SplineFontDB: 3.2
FontName: Sampradaya
FullName: Sampradaya
FamilyName: Sampradaya
Weight: Regular
Copyright: Copyright 2014-2021 Ambarish Sridharanarayanan.\n
Version: 0.9
ItalicAngle: 0
UnderlinePosition: -126
UnderlineWidth: 50
Ascent: 819
Descent: 205
InvalidEm: 0
sfntRevision: 0x00010000
LayerCount: 2
Layer: 0 1 "Back" 1
Layer: 1 1 "Fore" 0
XUID: [1021 268 364675272 1489025]
StyleMap: 0x0040
FSType: 0
OS2Version: 3
OS2_WeightWidthSlopeOnly: 0
OS2_UseTypoMetrics: 0
CreationTime: 1358746353
ModificationTime: 1610861922
PfmFamily: 81
TTFWeight: 400
TTFWidth: 5
LineGap: 31
VLineGap: 0
Panose: 0 0 0 0 0 0 0 0 0 0
OS2TypoAscent: 768
OS2TypoAOffset: 0
OS2TypoDescent: -174
OS2TypoDOffset: 0
OS2TypoLinegap: 31
OS2WinAscent: 876
OS2WinAOffset: 0
OS2WinDescent: 642
OS2WinDOffset: 0
HheadAscent: 768
HheadAOffset: 0
HheadDescent: -174
HheadDOffset: 0
OS2SubXSize: 102
OS2SubYSize: 102
OS2SubXOff: 0
OS2SubYOff: 143
OS2SupXSize: 102
OS2SupYSize: 102
OS2SupXOff: 0
OS2SupYOff: 143
OS2StrikeYSize: 51
OS2StrikeYPos: 256
OS2Vendor: 'pyrs'
OS2CodePages: 00000001.00000000
OS2UnicodeRanges: 80000003.00000000.00000000.00000000
Lookup: 4 0 0 "'akhn' Akhand lookup 0" { "'akhn' Akhand lookup 0 subtable"  } ['akhn' ('DFLT' <'dflt' > 'deva' <'dflt' > 'gran' <'dflt' > 'taml' <'dflt' > ) ]
Lookup: 4 0 0 "'rphf' Reph Form lookup 2" { "'rphf' Reph Form lookup 2 subtable"  } ['rphf' ('DFLT' <'dflt' > 'deva' <'dflt' > 'gran' <'dflt' > 'taml' <'dflt' > ) ]
Lookup: 4 0 0 "'rkrf' Rakar Forms lookup 7" { "'rkrf' Rakar Forms lookup 7-1"  } ['rkrf' ('DFLT' <'dflt' > 'deva' <'dflt' > 'gran' <'dflt' > 'taml' <'dflt' > ) ]
Lookup: 4 0 0 "'blwf' Below Base Forms lookup 4 (second stacked layer)" { "'blwf' Below Base Forms lookup 4 subtable"  } ['blwf' ('DFLT' <'dflt' > 'deva' <'dflt' > 'gran' <'dflt' > 'taml' <'dflt' > ) ]
Lookup: 1 0 0 "Single Substitution lookup (second stack to third)" { "Single Substitution lookup 0-1"  } []

StartChar: .notdef
Encoding: 1114112 -1 0
Width: 373
Flags: MW
LayerCount: 2
Fore
SplineSet
34 0 m 1,0,-1
 34 682 l 1,1,-1
 306 682 l 1,2,-1
 306 0 l 1,3,-1
 34 0 l 1,0,-1
68 34 m 1,4,-1
 272 34 l 1,5,-1
 272 648 l 1,6,-1
 68 648 l 1,7,-1
 68 34 l 1,4,-1
EndSplineSet
Validated: 1
EndChar

StartChar: udattadeva
Encoding: 2385 2385 3
Width: 0
Flags: MW
LayerCount: 2
Fore
SplineSet
-227 504 m 2,0,1
 -227 541 -227 541 -210 541 c 128,-1,2
 -193 541 -193 541 -188 532 c 128,-1,3
 -183 523 -183 523 -183 504 c 2,4,-1
 -183 305 l 6,5,6
 -183 297 -183 297 -189 291.5 c 128,-1,7
 -195 286 -195 286 -203.5 286 c 128,-1,8
 -212 286 -212 286 -219.5 291 c 128,-1,9
 -227 296 -227 296 -227 303 c 2,10,-1
 -227 504 l 2,0,1
EndSplineSet
Validated: 1
EndChar

StartChar: anudattadeva
Encoding: 2386 2386 4
Width: 0
Flags: MW
LayerCount: 2
Fore
SplineSet
-354 -36 m 256,0,1
 -354 -13 -354 -13 -339 -13 c 2,2,-1
 -90 -13 l 2,3,4
 -82 -13 -82 -13 -77.5 -20.5 c 128,-1,5
 -73 -28 -73 -28 -73 -36.5 c 132,-1,6
 -73 -45 -73 -45 -78.5 -52.5 c 128,-1,7
 -84 -60 -84 -60 -92 -60 c 2,8,-1
 -339 -60 l 2,9,10
 -354 -60 -354 -60 -354 -36 c 256,0,1
EndSplineSet
Validated: 1
EndChar

StartChar: danda
Encoding: 2404 2404 5
Width: 198
Flags: MW
LayerCount: 2
Fore
SplineSet
67 455 m 2,0,1
 67 483 67 483 98 483 c 0,2,3
 108 483 108 483 119.5 476.5 c 128,-1,4
 131 470 131 470 131 455 c 2,5,-1
 131 27 l 2,6,7
 131 14 131 14 120 7 c 128,-1,8
 109 0 109 0 97.5 0 c 128,-1,9
 86 0 86 0 76.5 6.5 c 128,-1,10
 67 13 67 13 67 27 c 2,11,-1
 67 455 l 2,0,1
EndSplineSet
Validated: 1
EndChar

StartChar: u0BE6
Encoding: 3046 3046 7
Width: 408
Flags: MW
LayerCount: 2
Fore
SplineSet
49 243 m 128,-1,1
 69 279 69 279 108 302 c 128,-1,2
 147 325 147 325 196 325 c 132,-1,3
 245 325 245 325 272 314.5 c 128,-1,4
 299 304 299 304 324 284 c 0,5,6
 383 237 383 237 383 165 c 0,7,8
 382 96 382 96 340 52 c 0,9,10
 291 0 291 0 206 0 c 0,11,12
 149 0 149 0 108 25 c 0,13,14
 29 74 29 74 29 165 c 256,15,0
 29 207 29 207 49 243 c 128,-1,1
210 269 m 1,16,17
 176 269 176 269 153.5 259.5 c 0,18,19
 130 250 130 250 116 234 c 0,20,21
 88 203 88 203 88 163.5 c 128,-1,22
 88 124 88 124 117.5 94.5 c 128,-1,23
 147 65 147 65 206.5 65 c 128,-1,24
 266 65 266 65 296 94.5 c 128,-1,25
 326 124 326 124 326 163 c 4,26,27
 326 198 326 198 296 232 c 0,28,29
 264 268 264 268 210 269 c 1,16,17
EndSplineSet
Validated: 1
EndChar

StartChar: u0BE7
Encoding: 3047 3047 8
Width: 490
Flags: MW
LayerCount: 2
Fore
SplineSet
336 284 m 2,0,1
 347 284 347 284 352.5 276.5 c 128,-1,2
 358 269 358 269 358 260 c 0,3,4
 358 252 358 252 356 248 c 0,5,6
 350 240 350 240 322 239 c 1,7,-1
 322 187 l 1,8,-1
 337 187 l 2,9,10
 354 187 354 187 381.5 178 c 128,-1,11
 409 169 409 169 426 156 c 0,12,13
 461 129 461 129 461 86 c 0,14,15
 461 30 461 30 406 8 c 0,16,17
 388 0 388 0 371 0 c 128,-1,18
 354 0 354 0 347.5 7 c 128,-1,19
 341 14 341 14 341 23 c 0,20,21
 341 42 341 42 368 45.5 c 128,-1,22
 395 49 395 49 405 64 c 0,23,24
 415 80 415 80 415 90 c 0,25,26
 415 117 415 117 386 137 c 0,27,28
 368 150 368 150 336 150 c 0,29,30
 330 150 330 150 322 149 c 1,31,-1
 322 75 l 2,32,33
 322 50 322 50 284 22 c 0,34,35
 262 6 262 6 240 2 c 0,36,37
 225 -1 225 -1 214 -1 c 0,38,39
 209 -1 209 -1 204 0 c 1,40,41
 151 0 151 0 117 20 c 0,42,43
 48 60 48 60 48 114 c 0,44,45
 48 148 48 148 86 162 c 0,46,47
 113 172 113 172 156 179 c 1,48,-1
 156 261 l 2,49,50
 156 270 156 270 168 276 c 1,51,52
 174 284 174 284 186 284 c 2,53,-1
 336 284 l 2,0,1
260 150 m 1,54,55
 217 150 217 150 175 141 c 0,56,57
 103 126 103 126 103 118 c 2,58,-1
 103 114 l 2,59,60
 103 78 103 78 143 57 c 0,61,62
 169 43 169 43 199.5 43 c 128,-1,63
 230 43 230 43 245 50.5 c 128,-1,64
 260 58 260 58 260 69 c 2,65,-1
 260 150 l 1,54,55
198 187 m 1,66,-1
 260 188 l 1,67,-1
 260 239 l 1,68,-1
 198 239 l 1,69,-1
 198 187 l 1,66,-1
EndSplineSet
Validated: 1
EndChar

StartChar: u0BE8
Encoding: 3048 3048 9
Width: 489
Flags: MW
LayerCount: 2
Fore
SplineSet
97 118 m 1,0,1
 37 155 37 155 37 214 c 0,2,3
 37 258 37 258 70 284.5 c 0,4,5
 103 312 103 312 150 312 c 0,6,7
 152 312 152 312 153 312 c 0,8,9
 198 312 198 312 225 299 c 0,10,11
 253 286 253 286 268 268.5 c 128,-1,12
 283 251 283 251 283 225 c 0,13,14
 283 154 283 154 227 128 c 2,15,-1
 104 68 l 2,16,17
 86 60 86 60 75 49 c 1,18,-1
 418 49 l 2,19,20
 431 49 431 49 437 41.5 c 128,-1,21
 443 34 443 34 443 25 c 260,22,23
 443 16 443 16 437 8 c 128,-1,24
 431 0 431 0 418 0 c 2,25,-1
 72 0 l 2,26,27
 63 0 63 0 51.5 10 c 152,-1,28
 40 20 40 20 35.5 31 c 128,-1,29
 31 42 31 42 35 56 c 0,30,31
 44 87 44 87 97 118 c 1,0,1
161 256 m 256,32,33
 127 256 127 256 109 243.5 c 128,-1,34
 91 231 91 231 91 213 c 128,-1,35
 91 195 91 195 108 176.5 c 128,-1,36
 125 158 125 158 160 146 c 1,37,38
 195 158 195 158 212 176.5 c 128,-1,39
 229 195 229 195 229 212.5 c 128,-1,40
 229 230 229 230 212 243 c 128,-1,41
 195 256 195 256 161 256 c 256,32,33
EndSplineSet
Validated: 1
EndChar

StartChar: u0BE9
Encoding: 3049 3049 10
Width: 367
Flags: MW
LayerCount: 2
Fore
SplineSet
251 283 m 0,0,1
 251 255 251 255 193 255 c 1,2,-1
 193 188 l 1,3,4
 213 191 213 191 232 191 c 128,-1,5
 251 191 251 191 277 182.5 c 128,-1,6
 303 174 303 174 322 152 c 0,7,8
 348 122 348 122 348 87 c 0,9,10
 348 42 348 42 306 16 c 0,11,12
 280 0 280 0 238 0 c 0,13,14
 226 0 226 0 219 7 c 128,-1,15
 212 14 212 14 212 23 c 128,-1,16
 212 32 212 32 217.5 39 c 128,-1,17
 223 46 223 46 241 46 c 128,-1,18
 259 46 259 46 272 57 c 128,-1,19
 285 68 285 68 288.5 82 c 128,-1,20
 292 96 292 96 287 111 c 0,21,22
 277 142 277 142 242 142 c 2,23,-1
 238 142 l 2,24,25
 219 142 219 142 193 124 c 1,26,-1
 193 93 l 2,27,28
 193 81 193 81 182 75.5 c 128,-1,29
 171 70 171 70 159 70 c 256,30,31
 147 70 147 70 136 75.5 c 128,-1,32
 125 81 125 81 125 93 c 2,33,-1
 125 255 l 1,34,-1
 80 255 l 1,35,-1
 80 33 l 2,36,37
 80 0 80 0 54 0 c 4,38,39
 45 0 45 0 39 11 c 128,-1,40
 33 22 33 22 33 31 c 2,41,-1
 33 282 l 2,42,43
 33 293 33 293 39.5 299 c 128,-1,44
 46 305 46 305 54 305 c 2,45,-1
 193 305 l 2,46,47
 251 305 251 305 251 283 c 0,0,1
EndSplineSet
Validated: 1
EndChar

StartChar: u0BEA
Encoding: 3050 3050 11
Width: 490
Flags: MW
LayerCount: 2
Fore
SplineSet
33 115 m 0,0,1
 33 165 33 165 130 190 c 1,2,-1
 130 282 l 2,3,4
 130 293 130 293 142 298 c 1,5,6
 149 308 149 308 160 308 c 2,7,-1
 319 308 l 2,8,9
 337 308 337 308 338 305.5 c 128,-1,10
 339 303 339 303 343 297 c 128,-1,11
 347 291 347 291 347 277 c 128,-1,12
 347 263 347 263 332.5 259.5 c 128,-1,13
 318 256 318 256 298 256 c 1,14,-1
 298 195 l 1,15,16
 316 192 316 192 330 192 c 0,17,18
 370 192 370 192 392 208 c 0,19,20
 432 236 432 236 432 278 c 0,21,22
 432 288 432 288 434 294.5 c 128,-1,23
 436 301 436 301 446 301 c 0,24,25
 475 301 475 301 475 282 c 0,26,27
 475 191 475 191 382 162 c 0,28,29
 360 155 360 155 336 155 c 128,-1,30
 312 155 312 155 298 156 c 1,31,-1
 298 77 l 2,32,33
 298 40 298 40 279 23 c 128,-1,34
 260 6 260 6 239 3 c 128,-1,35
 218 0 218 0 201.5 0 c 128,-1,36
 185 0 185 0 159 3.5 c 0,37,38
 132 8 132 8 102 24 c 0,39,40
 32 62 32 62 33 115 c 0,0,1
173 158 m 2,41,42
 104 158 104 158 87 124 c 1,43,-1
 87 108 l 2,44,45
 87 79 87 79 113.5 61.5 c 128,-1,46
 140 44 140 44 159.5 42.5 c 128,-1,47
 179 41 179 41 191 41 c 128,-1,48
 203 41 203 41 218 44 c 0,49,50
 241 51 241 51 241 65 c 2,51,-1
 241 157 l 1,52,53
 212 157 212 157 187 158 c 2,54,-1
 173 158 l 2,41,42
195 198 m 1,55,-1
 241 197 l 1,56,-1
 241 254 l 1,57,-1
 176 254 l 1,58,-1
 176 198 l 1,59,-1
 195 198 l 1,55,-1
EndSplineSet
Validated: 33
EndChar

StartChar: u0BEB
Encoding: 3051 3051 12
Width: 490
Flags: MW
LayerCount: 2
Fore
SplineSet
328 304 m 2,0,1
 345 304 345 304 345 284.5 c 128,-1,2
 345 265 345 265 328 265 c 1,3,-1
 328 200 l 1,4,5
 349 211 349 211 361 211 c 2,6,-1
 376 211 l 1,7,8
 424 205 424 205 446 161 c 0,9,10
 455 145 455 145 455 122 c 0,11,12
 455 78 455 78 426 50 c 0,13,14
 373 0 373 0 281 0 c 0,15,16
 154 0 154 0 79 90 c 0,17,18
 41 135 41 135 41 193 c 2,19,-1
 41 251 l 2,20,21
 41 295 41 295 59 309 c 0,22,23
 67 315 67 315 73.5 302 c 128,-1,24
 80 289 80 289 80 235 c 128,-1,25
 80 181 80 181 101 139 c 0,26,27
 140 61 140 61 226 42 c 0,28,29
 246 38 246 38 264 38 c 0,30,31
 324 38 324 38 359.5 68.5 c 128,-1,32
 395 99 395 99 395 124 c 0,33,34
 395 136 395 136 390 150 c 0,35,36
 384 164 384 164 376 168 c 0,37,38
 371 171 371 171 365 171 c 0,39,40
 349 171 349 171 328 149 c 9,41,-1
 328 144 l 2,42,43
 328 128 328 128 303 128 c 0,44,45
 294 128 294 128 286.5 132 c 128,-1,46
 279 136 279 136 279 143 c 2,47,-1
 279 265 l 1,48,-1
 214 265 l 1,49,-1
 214 124 l 2,50,51
 214 111 214 111 195.5 111 c 128,-1,52
 177 111 177 111 177 123 c 2,53,-1
 177 287 l 2,54,55
 177 304 177 304 191 304 c 2,56,-1
 328 304 l 2,0,1
EndSplineSet
Validated: 1
EndChar

StartChar: u0BEC
Encoding: 3052 3052 13
Width: 490
Flags: MW
LayerCount: 2
Fore
SplineSet
463 181 m 256,0,1
 463 155 463 155 447 155 c 2,2,-1
 441 155 l 1,3,-1
 441 23 l 2,4,5
 441 10 441 10 435.5 5 c 128,-1,6
 430 0 430 0 424 0 c 256,7,8
 422 0 422 0 413 3.5 c 128,-1,9
 404 7 404 7 404 25 c 2,10,-1
 404 155 l 1,11,-1
 353 155 l 1,12,-1
 353 27 l 2,13,14
 353 0 353 0 335 0 c 0,15,16
 329 0 329 0 323 7.5 c 128,-1,17
 317 15 317 15 317 27 c 2,18,-1
 317 155 l 1,19,-1
 265 155 l 1,20,-1
 265 71 l 2,21,22
 265 46 265 46 241.5 28.5 c 128,-1,23
 218 11 218 11 195 5.5 c 128,-1,24
 172 0 172 0 141.5 0 c 0,25,26
 112 0 112 0 86 16 c 0,27,28
 27 53 27 53 27 110 c 0,29,30
 27 114 27 114 34 131.5 c 128,-1,31
 41 149 41 149 63 168.5 c 128,-1,32
 85 188 85 188 119 200 c 1,33,-1
 119 282 l 2,34,35
 119 286 119 286 128 295 c 128,-1,36
 137 304 137 304 141 303 c 2,37,-1
 295 303 l 21,38,39
 321 294 321 294 321 280 c 4,40,41
 321 276 321 276 320 273 c 0,42,43
 316 265 316 265 308 260 c 128,-1,44
 300 255 300 255 293 255 c 2,45,-1
 265 255 l 1,46,-1
 265 208 l 1,47,-1
 444 208 l 2,48,49
 453 208 453 208 458 199.5 c 128,-1,50
 463 191 463 191 463 181 c 256,0,1
170 48 m 0,51,52
 204 48 204 48 204 67 c 2,53,-1
 204 153 l 1,54,55
 179 159 179 159 157 159 c 0,56,57
 114 159 114 159 94.5 143 c 128,-1,58
 75 127 75 127 75 112 c 0,59,60
 74 97 74 97 84 85 c 0,61,62
 112 48 112 48 170 48 c 0,51,52
157 208 m 1,63,64
 181 208 181 208 204 208 c 1,65,-1
 204 255 l 1,66,-1
 157 255 l 1,67,-1
 157 208 l 1,63,64
EndSplineSet
Validated: 1
EndChar

StartChar: u0BED
Encoding: 3053 3053 14
Width: 490
Flags: MW
LayerCount: 2
Fore
SplineSet
423 19 m 2,0,1
 423 0 423 0 391 0 c 0,2,3
 379 0 379 0 367.5 4.5 c 128,-1,4
 356 9 356 9 356 19 c 2,5,-1
 356 259 l 1,6,7
 259 259 259 259 218.5 250.5 c 128,-1,8
 178 242 178 242 155.5 228.5 c 128,-1,9
 133 215 133 215 117.5 191.5 c 128,-1,10
 102 168 102 168 96 152 c 1,11,12
 149 150 149 150 176.5 125 c 128,-1,13
 204 100 204 100 204 71.5 c 128,-1,14
 204 43 204 43 184.5 21.5 c 128,-1,15
 165 0 165 0 126 0 c 128,-1,16
 87 0 87 0 68 23 c 0,17,18
 38 59 38 59 38 113 c 0,19,20
 38 206 38 206 116 254 c 0,21,22
 188 296 188 296 320 302 c 0,23,24
 380 304 380 304 437 306 c 0,25,26
 448 306 448 306 454 299 c 128,-1,27
 460 292 460 292 460 283 c 0,28,29
 460 259 460 259 438 259 c 2,30,-1
 423 259 l 1,31,-1
 423 19 l 2,0,1
89 105 m 0,32,33
 89 45 89 45 125 45 c 0,34,35
 156 46 156 46 156 82 c 0,36,37
 156 96 156 96 137 107 c 0,38,39
 121 119 121 119 90 121 c 1,40,41
 89 113 89 113 89 105 c 0,32,33
EndSplineSet
Validated: 1
EndChar

StartChar: u0BEE
Encoding: 3054 3054 15
Width: 490
Flags: MW
LayerCount: 2
Fore
SplineSet
412 285 m 2,0,1
 412 306 412 306 434 306 c 0,2,3
 446 306 446 306 455.5 300.5 c 128,-1,4
 465 295 465 295 465 284 c 6,5,-1
 465 24 l 6,6,7
 465 12 465 12 455.5 6 c 128,-1,8
 446 0 446 0 434 0 c 0,9,10
 412 0 412 0 412 23 c 2,11,-1
 412 203 l 1,12,13
 389 193 389 193 357 183.5 c 128,-1,14
 325 174 325 174 323 172 c 128,-1,15
 321 170 321 170 322.5 165 c 128,-1,16
 324 160 324 160 324 156 c 0,17,18
 322 90 322 90 260 42 c 0,19,20
 208 1 208 1 134 0 c 0,21,22
 106 0 106 0 69.5 24.5 c 128,-1,23
 33 49 33 49 19 86 c 0,24,25
 16 94 16 94 16 98.5 c 128,-1,26
 16 103 16 103 33 113 c 0,27,28
 55 126 55 126 236 183 c 1,29,30
 237 189 237 189 237 194 c 0,31,32
 238 214 238 214 228 228 c 0,33,34
 216 244 216 244 200 250 c 0,35,36
 189 254 189 254 177 254 c 0,37,38
 151 254 151 254 125 231 c 1,39,-1
 121 211 l 1,40,41
 114 198 114 198 103 193.5 c 128,-1,42
 92 189 92 189 83.5 193 c 128,-1,43
 75 197 75 197 70.5 206.5 c 128,-1,44
 66 216 66 216 73.5 234 c 128,-1,45
 81 252 81 252 102.5 267 c 128,-1,46
 124 282 124 282 145 286 c 0,47,48
 169 291 169 291 191 292 c 0,49,50
 223 292 223 292 251 280 c 0,51,52
 306 258 306 258 312 210 c 1,53,54
 321 214 321 214 354 225 c 2,55,-1
 412 245 l 1,56,-1
 412 285 l 2,0,1
240 143 m 1,57,58
 166 119 166 119 100 99 c 1,59,-1
 73 86 l 1,60,61
 76 66 76 66 90.5 55.5 c 128,-1,62
 105 45 105 45 125 45 c 128,-1,63
 145 45 145 45 166.5 51 c 0,64,65
 188 56 188 56 206 70 c 0,66,67
 241 96 241 96 241 131 c 0,68,69
 241 137 241 137 240 143 c 1,57,58
EndSplineSet
Validated: 33
EndChar

StartChar: u0BEF
Encoding: 3055 3055 16
Width: 490
Flags: MW
LayerCount: 2
Fore
SplineSet
143 199 m 1,0,1
 159 199 159 199 175 199 c 1,2,-1
 175 252 l 1,3,-1
 143 252 l 1,4,-1
 143 199 l 1,0,1
175 79 m 2,5,-1
 175 157 l 1,6,7
 109 154 109 154 100 149 c 128,-1,8
 91 144 91 144 82 140 c 0,9,10
 68 135 68 135 64 120.5 c 128,-1,11
 60 106 60 106 60 104 c 2,12,-1
 60 99 l 2,13,14
 60 75 60 75 74 62 c 0,15,16
 94 44 94 44 118 44 c 0,17,18
 132 44 132 44 146 50 c 0,19,20
 176 58 176 58 175 79 c 2,5,-1
246 278 m 0,21,22
 246 252 246 252 229 252 c 1,23,-1
 229 196 l 1,24,25
 245 197 245 197 263 197 c 128,-1,26
 281 197 281 197 297 189 c 1,27,28
 320 203 320 203 352 203 c 0,29,30
 420 202 420 202 460 150 c 0,31,32
 478 126 478 126 478 99 c 0,33,34
 478 95 478 95 478 92 c 0,35,36
 478 69 478 69 474 59 c 0,37,38
 466 32 466 32 449.5 16 c 128,-1,39
 433 0 433 0 426 0 c 2,40,-1
 419 0 l 2,41,42
 410 0 410 0 408 0 c 0,43,44
 406 1 406 1 403 8 c 128,-1,45
 400 15 400 15 407 21.5 c 128,-1,46
 414 28 414 28 422 34 c 0,47,48
 442 52 442 52 442 70 c 2,49,-1
 442 91 l 2,50,51
 442 134 442 134 401 158 c 0,52,53
 376 173 376 173 353 172 c 0,54,55
 341 172 341 172 329 168 c 1,56,57
 348 154 348 154 360.5 137 c 128,-1,58
 373 120 373 120 374 93 c 0,59,60
 374 45 374 45 357.5 22.5 c 128,-1,61
 341 0 341 0 320 0 c 128,-1,62
 299 0 299 0 278 18 c 128,-1,63
 257 36 257 36 257 58 c 2,64,-1
 257 86 l 2,65,66
 257 116 257 116 271 150 c 1,67,68
 261 159 261 159 244 159 c 0,69,70
 237 159 237 159 229 157 c 1,71,-1
 229 92 l 2,72,73
 229 89 229 89 227 81 c 0,74,75
 216 43 216 43 192.5 21.5 c 128,-1,76
 169 0 169 0 142.5 0 c 128,-1,77
 116 0 116 0 91 10 c 128,-1,78
 66 20 66 20 46 40 c 0,79,80
 15 71 15 71 15 106 c 0,81,82
 15 118 15 118 19 132 c 0,83,84
 24 149 24 149 46 167.5 c 128,-1,85
 68 186 68 186 98 197 c 1,86,-1
 98 279 l 2,87,88
 98 290 98 290 110 294 c 1,89,90
 114 303 114 303 122 303 c 6,91,-1
 229 303 l 6,92,93
 237 303 237 303 241.5 295 c 128,-1,94
 246 287 246 287 246 278 c 0,21,22
321 35 m 128,-1,96
 333 39 333 39 341 53 c 0,97,98
 347 63 347 63 347 77 c 0,99,100
 347 84 347 84 346 92 c 8,101,102
 342 116 342 116 334 127 c 0,103,104
 329 134 329 134 317 134 c 0,105,106
 310 134 310 134 302 132 c 0,107,108
 289 129 289 129 289 90.5 c 128,-1,109
 289 52 289 52 299 41.5 c 128,-1,95
 309 31 309 31 321 35 c 128,-1,96
EndSplineSet
Validated: 33
EndChar

StartChar: u1CDA
Encoding: 7386 7386 17
Width: 0
Flags: MW
LayerCount: 2
Fore
SplineSet
-249 306 m 2,0,1
 -248 284 -248 284 -268 284 c 0,2,3
 -276 284 -276 284 -282.5 291.5 c 128,-1,4
 -289 299 -289 299 -289 312 c 2,5,-1
 -289 516 l 2,6,7
 -289 523 -289 523 -282 527.5 c 128,-1,8
 -275 532 -275 532 -267.5 532 c 128,-1,9
 -260 532 -260 532 -254.5 526 c 128,-1,10
 -249 520 -249 520 -249 513 c 2,11,-1
 -249 306 l 2,0,1
-167 513 m 2,12,13
 -167 520 -167 520 -160.5 526 c 128,-1,14
 -154 532 -154 532 -147 532 c 128,-1,15
 -140 532 -140 532 -135 530 c 4,16,17
 -124 524 -124 524 -124 508 c 2,18,-1
 -124 306 l 2,19,20
 -124 299 -124 299 -129.5 291 c 128,-1,21
 -135 283 -135 283 -141.5 283 c 128,-1,22
 -148 283 -148 283 -157.5 287 c 128,-1,23
 -167 291 -167 291 -167 298 c 2,24,-1
 -167 513 l 2,12,13
EndSplineSet
Validated: 1
EndChar

StartChar: uE100
Encoding: 57600 57600 18
Width: 859
Flags: MW
LayerCount: 2
Fore
SplineSet
274 186 m 3,0,1
 274 128 274 128 212 105 c 0,2,3
 182 94 182 94 154 94 c 3,4,5
 127 94 127 94 100 104 c 0,6,7
 80 111 80 111 54 135 c 0,8,9
 34 153 34 153 33 185 c 0,10,11
 33 311 33 311 110 368 c 0,12,13
 148 396 148 396 190 400 c 0,14,15
 218 403 218 403 225 403 c 0,16,17
 252 403 252 403 280 396 c 0,18,19
 377 373 377 373 428 297 c 1,20,-1
 428 393 l 2,21,22
 428 403 428 403 439.5 408 c 0,23,24
 447 411 447 411 462 411 c 2,25,-1
 662 411 l 2,26,27
 681 411 681 411 689 402 c 0,28,29
 695 394 695 394 695 385.5 c 131,-1,30
 695 377 695 377 686 369.5 c 128,-1,31
 677 362 677 362 664 362 c 2,32,-1
 635 362 l 1,33,-1
 635 297 l 1,34,35
 709 287 709 287 759 244.5 c 128,-1,36
 809 202 809 202 809 152 c 3,37,38
 809 53 809 53 734 18 c 0,39,40
 689 -3 689 -3 593 -4 c 0,41,42
 568 -4 568 -4 565 -4 c 0,43,44
 518 0 518 0 430 0 c 2,45,-1
 380 0 l 2,46,47
 288 0 288 0 277 -15 c 0,48,49
 272 -22 272 -22 281 -31.5 c 128,-1,50
 290 -41 290 -41 300.5 -49.5 c 128,-1,51
 311 -58 311 -58 308.5 -68.5 c 128,-1,52
 306 -79 306 -79 294 -90 c 0,53,54
 285 -98 285 -98 274 -98 c 3,55,56
 246.470583425 -98 246.470583425 -98 235 -74.5 c 0,57,58
 222 -61.7602505187 222 -61.7602505187 222 -38 c 7,59,60
 222 -21.8754845034 222 -21.8754845034 234 -2 c 0,61,62
 267.555230843 39.2348069652 267.555230843 39.2348069652 386 37 c 2,63,-1
 545 34 l 2,64,65
 688 31 688 31 726 92 c 0,66,67
 738 111 738 111 739 140 c 0,68,69
 739 181 739 181 713.5 210.5 c 0,70,71
 689 239 689 239 637 248 c 1,72,73
 641 215 641 215 641 181 c 3,74,75
 641 154 641 154 634 130 c 0,76,77
 615 63 615 63 526 63 c 3,78,79
 457 63 457 63 414 86 c 128,-1,80
 371 109 371 109 353 141 c 0,81,82
 341 163 341 163 341 187 c 3,83,84
 341 197 341 197 343 208 c 0,85,86
 351 243 351 243 388 268 c 1,87,88
 361 311 361 311 317 336 c 0,89,90
 267 364 267 364 228 364 c 0,91,92
 223 364 223 364 218 364 c 0,93,94
 180 364 180 364 148 344 c 0,95,96
 112 321 112 321 103 266 c 1,97,98
 128 274 128 274 153 274 c 0,99,100
 184 274 184 274 216 262 c 0,101,102
 274 240 274 240 274 186 c 3,0,1
484 362 m 1,103,-1
 484 298 l 1,104,-1
 564 298 l 1,105,-1
 564 362 l 1,106,-1
 484 362 l 1,103,-1
105 184 m 3,107,108
 105 161 105 161 123 149.5 c 128,-1,109
 141 138 141 138 161 138 c 0,110,111
 183 138 183 138 198 149 c 0,112,113
 216 161 216 161 216 184 c 3,114,115
 216 210 216 210 198 222 c 0,116,117
 184 231 184 231 161 231 c 3,118,119
 139.976203958 231 139.976203958 231 122 218 c 0,120,121
 105 206 105 206 105 184 c 3,107,108
526 125 m 3,122,123
 563.5 125 563.5 125 566 165 c 0,124,125
 567 181 567 181 567 187 c 3,126,127
 567 214 567 214 564 250 c 1,128,-1
 457 250 l 2,129,130
 421 250 421 250 402 220 c 0,131,132
 394.404255319 205.531914894 394.404255319 205.531914894 393 195 c 0,133,134
 392 186 392 186 396 178 c 0,135,136
 406 156 406 156 439 140.5 c 128,-1,137
 472 125 472 125 526 125 c 3,122,123
EndSplineSet
LCarets2: 2 0 0
Ligature2: "'akhn' Akhand lookup 0 subtable" u11328 u1134D u11324
EndChar

StartChar: uE101
Encoding: 57601 57601 19
Width: 761
Flags: MW
LayerCount: 2
Fore
SplineSet
244 202 m 3,0,1
 244 150 244 150 190 128 c 0,2,3
 164 117 164 117 138 117 c 3,4,5
 114 117 114 117 90 125 c 0,6,7
 42 141 42 141 30 198 c 0,8,9
 26 212 26 212 26 253 c 3,10,11
 26 327 26 327 62 368 c 0,12,13
 95 406 95 406 146 406 c 3,14,15
 160 406 160 406 176 403 c 0,16,17
 245 390 245 390 297 332 c 1,18,-1
 297 388 l 2,19,20
 297 397 297 397 309 400 c 1,21,22
 316 409 316 409 327 409 c 2,23,-1
 594 409 l 2,24,25
 603 409 603 409 608 401 c 128,-1,26
 613 393 613 393 613 384.5 c 131,-1,27
 613 376 613 376 608 368.5 c 128,-1,28
 603 361 603 361 594 361 c 2,29,-1
 516 361 l 1,30,-1
 516 257 l 1,31,32
 545 270 545 270 574 270 c 3,33,34
 608 270 608 270 640 254 c 0,35,36
 668 240 668 240 686.5 211 c 128,-1,37
 705 182 705 182 705 142 c 3,38,39
 705 88 705 88 659 46 c 0,40,41
 607 0 607 0 516 0 c 2,42,-1
 136 0 l 2,43,44
 116 0 116 0 116 23 c 131,-1,45
 116 46 116 46 136 46 c 2,46,-1
 516 46 l 2,47,48
 606 46 606 46 623 104 c 0,49,50
 628 122 628 122 628 142 c 3,51,52
 628 176 628 176 615.5 197.5 c 128,-1,53
 603 219 603 219 585 226 c 0,54,55
 577 229 577 229 569 229 c 3,56,57
 559 229 559 229 548 224 c 0,58,59
 529 216 529 216 516 191 c 1,60,-1
 516 173 l 2,61,62
 516 162 516 162 504.5 156.5 c 128,-1,63
 493 151 493 151 478.5 151 c 128,-1,64
 464 151 464 151 452 156.5 c 128,-1,65
 440 162 440 162 440 173 c 2,66,-1
 440 361 l 1,67,-1
 357 361 l 1,68,-1
 357 139 l 2,69,70
 357 126 357 126 332 125 c 0,71,72
 297 125 297 125 297 140 c 2,73,-1
 297 168 l 2,74,75
 297 269 297 269 240 326 c 0,76,77
 216 350 216 350 189 358 c 4,78,79
 174 362 174 362 159 362 c 7,80,81
 147 362 147 362 137 359 c 0,82,83
 113 352 113 352 96.5 330.5 c 128,-1,84
 80 309 80 309 79 275 c 1,85,86
 103 289 103 289 135 289 c 3,87,88
 159 289 159 289 184 279.5 c 128,-1,89
 209 270 209 270 226.5 250 c 128,-1,90
 244 230 244 230 244 202 c 3,0,1
108 240 m 128,-1,92
 94 228 94 228 94 203 c 131,-1,93
 94 178 94 178 108 166 c 128,-1,94
 122 154 122 154 138 154 c 131,-1,95
 154 154 154 154 168 166 c 128,-1,96
 182 178 182 178 182 202 c 3,97,98
 182 228 182 228 168.5 240 c 128,-1,99
 155 252 155 252 138.5 252 c 131,-1,91
 122 252 122 252 108 240 c 128,-1,92
EndSplineSet
LCarets2: 2 0 0
Ligature2: "'akhn' Akhand lookup 0 subtable" u11328 u1134D u11328
EndChar

StartChar: uE102
Encoding: 57602 57602 20
Width: 853
Flags: MW
LayerCount: 2
Fore
SplineSet
591 63 m 1,0,1
 614 24 614 24 650 10 c 0,2,3
 677 0 677 0 691 0 c 7,4,5
 698 0 698 0 720 6 c 0,6,7
 754 16 754 16 777 52.5 c 128,-1,8
 800 89 800 89 800 149 c 3,9,10
 800 166 800 166 791.5 199 c 0,11,12
 778 251 778 251 732 269 c 0,13,14
 707 279 707 279 689 279 c 128,-1,15
 671 279 671 279 656 276 c 128,-1,16
 641 273 641 273 628 256 c 128,-1,17
 615 239 615 239 615 214 c 2,18,-1
 615 210 l 0,19,20
 616 175 616 175 664 148 c 0,21,22
 682 138 682 138 710 138 c 3,23,24
 728 138 728 138 743 149 c 1,25,26
 743 140 743 140 743 134 c 0,27,28
 743 93 743 93 730 70 c 0,29,30
 714 43 714 43 690 42 c 0,31,32
 689 42 689 42 688 42 c 0,33,34
 665 42 665 42 640 70 c 0,35,36
 614 100 614 100 614 146 c 3,37,38
 614 172 614 172 579 193 c 0,39,40
 572 197 572 197 560.5 189.5 c 128,-1,41
 549 182 549 182 546 177 c 128,-1,42
 543 172 543 172 544 171 c 0,43,44
 563 152 563 152 563 126 c 3,45,46
 563 98 563 98 550 80 c 0,47,48
 538 62 538 62 523 51.5 c 128,-1,49
 508 41 508 41 499 41 c 1,50,51
 495 40 495 40 481 40 c 0,52,53
 472 40 472 40 466 45 c 0,54,55
 456 53 456 53 455 69 c 0,56,57
 455 90 455 90 469 117 c 1,58,-1
 469 118 l 1,59,60
 477 140 477 140 477 159 c 3,61,62
 477 198 477 198 443 224 c 0,63,64
 401 257 401 257 314 261 c 1,65,-1
 314 336 l 1,66,-1
 327 336 l 2,67,68
 340 336 340 336 347 343.5 c 0,69,70
 353.5 350.985306817 353.5 350.985306817 353.5 359.5 c 131,-1,71
 353.5 368.014693183 353.5 368.014693183 344.5 375 c 0,72,73
 336 382 336 382 320 382 c 2,74,-1
 152 382 l 2,75,76
 138 382 138 382 127 377.5 c 0,77,78
 114 372 114 372 114 362 c 2,79,-1
 114 256 l 1,80,81
 79 245 79 245 59 221.5 c 128,-1,82
 39 198 39 198 33 170 c 0,83,84
 30 158 30 158 30 146 c 3,85,86
 30 130 30 130 35 112 c 0,87,88
 42 82 42 82 64 57 c 0,89,90
 115 0 115 0 204 0 c 3,91,92
 253 0 253 0 277.5 25 c 0,93,94
 301 50 301 50 310 84 c 0,95,96
 318 114 318 114 318 144 c 0,97,98
 318 148 318 148 318 154 c 0,99,100
 316 190 316 190 314 217 c 1,101,102
 318 217 318 217 323 217 c 0,103,104
 381 217 381 217 408 191 c 0,105,106
 424 175 424 175 424 154 c 3,107,108
 424 132.5 424 132.5 414 117 c 24,109,110
 401 97 401 97 398 87 c 0,111,112
 395 74.0710678119 395 74.0710678119 395 67 c 3,113,114
 395 57.9446148619 395 57.9446148619 398 49 c 0,115,116
 404 30 404 30 426 16 c 0,117,118
 449 -0 449 -0 489 0 c 3,119,120
 552 0 552 0 591 63 c 1,0,1
169 336 m 1,121,-1
 244 336 l 1,122,-1
 244 262 l 1,123,-1
 169 262 l 1,124,-1
 169 336 l 1,121,-1
205 62 m 3,125,126
 153 62 153 62 121 82.5 c 0,127,128
 87.5315487572 102.894837476 87.5315487572 102.894837476 80 128 c 0,129,130
 77 138 77 138 77 148 c 3,131,132
 77 164 77 164 86 179 c 0,133,134
 101 204 101 204 142 214 c 1,135,-1
 244 214 l 1,136,137
 244 182 244 182 246 154 c 0,138,139
 247 143 247 143 247 134 c 0,140,141
 248 118 248 118 246 106 c 0,142,143
 240 62 240 62 205 62 c 3,125,126
724 226 m 0,144,145
 732 215 732 215 726 197 c 0,146,147
 720 178 720 178 693 177 c 0,148,149
 668 177 668 177 662 186 c 0,150,151
 653 197 653 197 653 213 c 2,152,-1
 653 214 l 2,153,154
 653 226 653 226 663.5 234.5 c 0,155,156
 673.992425981 242.5 673.992425981 242.5 690.5 242.5 c 3,157,158
 713.00555487 242.5 713.00555487 242.5 724 226 c 0,144,145
EndSplineSet
Position2: "Single Position lookup 0-1" dx=0 dy=0 dh=-410 dv=0 [ddx={} ddy={} ddh={} ddv={}]
LCarets2: 2 0 0
Ligature2: "'akhn' Akhand lookup 0 subtable" u11324 u1134D u11325
EndChar

StartChar: uE103
Encoding: 57603 57603 21
Width: 1128
Flags: MW
LayerCount: 2
Fore
SplineSet
557 212 m 1,0,1
 556 221 556 221 555.5 230 c 128,-1,2
 555 239 555 239 554 247 c 1,3,4
 519 244 519 244 493 220 c 1,5,6
 499 221 499 221 506 221 c 0,7,8
 529 221 529 221 557 212 c 1,0,1
457 137 m 3,9,10
 457 117 457 117 473 107 c 0,11,12
 492 96 492 96 510 96 c 131,-1,13
 528 96 528 96 544 106 c 128,-1,14
 560 116 560 116 560 137 c 131,-1,15
 560 158 560 158 543 168 c 0,16,17
 529 176 529 176 510 176 c 3,18,19
 492 176 492 176 473.5 164.5 c 0,20,21
 457 154 457 154 457 137 c 3,9,10
552 283 m 1,22,23
 552 322 552 322 552 362 c 1,24,-1
 354 362 l 2,25,26
 319 362 319 362 304.5 350 c 0,27,28
 291 338 291 338 288 312 c 0,29,30
 287 304 287 304 287 275 c 2,31,-1
 287 136 l 2,32,33
 286 92 286 92 267 62.5 c 0,34,35
 250 36 250 36 219.5 18 c 0,36,37
 188 -0 188 -0 160 0 c 3,38,39
 130 0 130 0 100 16 c 0,40,41
 72 30 72 30 54 59 c 128,-1,42
 36 88 36 88 36 132 c 2,43,-1
 36 388 l 2,44,45
 36 404 36 404 59 404 c 3,46,47
 86 404 86 404 86 388 c 2,48,-1
 86 136 l 2,49,50
 86 94 86 94 109 73.5 c 128,-1,51
 132 53 132 53 159 53 c 131,-1,52
 186 53 186 53 207 74 c 0,53,54
 225 92 225 92 225 125 c 2,55,-1
 225 262 l 2,56,57
 225 309 225 309 234 338 c 0,58,59
 244 372 244 372 271 390.5 c 0,60,61
 299 410 299 410 354 410 c 2,62,-1
 675 410 l 2,63,64
 684 410 684 410 689 402.5 c 128,-1,65
 694 395 694 395 694 386 c 131,-1,66
 694 377 694 377 689 369.5 c 128,-1,67
 684 362 684 362 675 362 c 2,68,-1
 615 362 l 1,69,-1
 615 280 l 1,70,71
 682 270 682 270 722 232 c 0,72,73
 763 193 763 193 763 137 c 3,74,75
 763 70 763 70 696 39 c 1,76,77
 842 39 842 39 988 39 c 1,78,-1
 988 366 l 2,79,80
 988 379 988 379 999 388 c 0,81,82
 1010.99107427 397.5 1010.99107427 397.5 1025 397.5 c 131,-1,83
 1039.00892573 397.5 1039.00892573 397.5 1051.5 393.5 c 0,84,85
 1064 388 1064 388 1064 374 c 2,86,-1
 1064 0 l 1,87,-1
 403 0 l 1,88,-1
 403 39 l 1,89,90
 552 39 552 39 596.5 49.5 c 0,91,92
 628 57 628 57 664.5 80 c 0,93,94
 695 99 695 99 696 137 c 3,95,96
 696 174 696 174 672 201 c 128,-1,97
 648 228 648 228 615 240 c 1,98,99
 618 156 618 156 618 138 c 7,100,101
 618 87 618 87 561 64 c 0,102,103
 536 54 536 54 505 53 c 0,104,105
 479 52 479 52 453 62 c 0,106,107
 395 84 395 84 395 137 c 3,108,109
 395 198 395 198 452 244 c 0,110,111
 492 277 492 277 552 283 c 1,22,23
EndSplineSet
LCarets2: 2 0 0
Ligature2: "'akhn' Akhand lookup 0 subtable" u11336 u1134D u1131A
EndChar

StartChar: uE104
Encoding: 57604 57604 22
Width: 613
Flags: MW
LayerCount: 2
Fore
SplineSet
586 287 m 3,0,1
 586 196 586 196 483 158 c 0,2,3
 456 148 456 148 430 137.5 c 128,-1,4
 404 127 404 127 379 114.5 c 0,5,6
 352 102 352 102 352 82 c 3,7,8
 352 52 352 52 366 45 c 0,9,10
 384 36 384 36 397 36 c 19,11,12
 412 36 412 36 428 50.5 c 0,13,14
 442 63 442 63 442 88 c 0,15,16
 442 95 442 95 449 98.5 c 0,17,18
 455.937742252 101 455.937742252 101 464 101 c 3,19,20
 486.203603311 101 486.203603311 101 486 81 c 0,21,22
 486 37 486 37 440 11 c 0,23,24
 421 0 421 0 394 0 c 3,25,26
 374 0 374 0 354 7.5 c 0,27,28
 334 16 334 16 320.5 32.5 c 128,-1,29
 307 49 307 49 307 74 c 3,30,31
 307 108.228571429 307 108.228571429 326.5 125.5 c 0,32,33
 344 141 344 141 366 154 c 128,-1,34
 388 167 388 167 413 178 c 0,35,36
 438 188 438 188 459 204 c 0,37,38
 506 240 506 240 506 296 c 3,39,40
 506 334 506 334 467 352 c 0,41,42
 441 364 441 364 423 364 c 0,43,44
 414 364 414 364 406 362 c 0,45,46
 374 356 374 356 343 331 c 0,47,48
 304 300 304 300 300 266 c 0,49,50
 299 258 299 258 289 258 c 24,51,52
 282 258 282 258 275 258 c 0,53,54
 258 258 258 258 252 268 c 0,55,56
 251 270 251 270 251 275 c 2,57,-1
 251 282 l 2,58,59
 251 308 251 308 237 325.5 c 0,60,61
 222 343 222 343 202 351 c 0,62,63
 183 358 183 358 166 358 c 3,64,65
 140 358 140 358 118 342 c 1,66,67
 154 342 154 342 181 323 c 128,-1,68
 208 304 208 304 208 266 c 3,69,70
 208 212 208 212 162 188 c 0,71,72
 139 176 139 176 116 176 c 3,73,74
 96 176 96 176 76 185 c 0,75,76
 25 208 25 208 25 267 c 131,-1,77
 25 326 25 326 56.5 361 c 0,78,79
 90.1950422652 397.456930975 90.1950422652 397.456930975 131 404 c 4,80,81
 150 407 150 407 160 407 c 0,82,83
 199 407 199 407 217 396 c 24,84,85
 265.466353818 369.889410303 265.466353818 369.889410303 284 339 c 1,86,87
 315 380 315 380 362 396 c 0,88,89
 384 404 384 404 436 409 c 0,90,91
 446 410 446 410 458 408 c 0,92,93
 506 402 506 402 543 374 c 0,94,95
 586 341 586 341 586 287 c 3,0,1
86 266 m 3,96,97
 86 241 86 241 97.5 229 c 0,98,99
 108.990388169 216.5 108.990388169 216.5 122 216.5 c 131,-1,100
 135.009611831 216.5 135.009611831 216.5 146.5 227.5 c 0,101,102
 158 239 158 239 158 265 c 3,103,104
 158 284 158 284 144.5 292 c 0,105,106
 132.008925726 299.5 132.008925726 299.5 118 299.5 c 131,-1,107
 103.991074274 299.5 103.991074274 299.5 95 290 c 0,108,109
 86 281 86 281 86 266 c 3,96,97
EndSplineSet
LCarets2: 2 0 0
Ligature2: "'akhn' Akhand lookup 0 subtable" u1132E u1134D u1132E
EndChar

StartChar: uE105
Encoding: 57605 57605 23
Width: 554
Flags: MW
LayerCount: 2
Fore
SplineSet
425 -69 m 0,0,1
 425 -138 425 -138 384 -138.009328106 c 0,2,3
 334 -138 334 -138 320 -96 c 0,4,5
 318 -90 318 -90 321 -67 c 0,6,7
 324.963101758 -40.2490631306 324.963101758 -40.2490631306 337 -32 c 26,8,-1
 480 66 l 2,9,10
 499 79 499 79 500 151 c 0,11,12
 501 224 501 224 432 253 c 0,13,14
 393 270 393 270 364 270 c 2,15,-1
 342 270 l 2,16,17
 326 270 326 270 297 258 c 1,18,-1
 297 358 l 1,19,-1
 379 358 l 2,20,21
 390 358 390 358 396.5 365 c 128,-1,22
 403 372 403 372 403 380.5 c 128,-1,23
 403 389 403 389 397 396.5 c 128,-1,24
 391 404 391 404 379 404 c 2,25,-1
 92 404 l 2,26,27
 77 404 77 404 72 395 c 1,28,29
 54 391 54 391 54 380 c 2,30,-1
 54 127 l 2,31,32
 54 116 54 116 64 106 c 128,-1,33
 74 96 74 96 88.5 96 c 128,-1,34
 103 96 103 96 113 102 c 128,-1,35
 123 108 123 108 123 127 c 2,36,-1
 123 358 l 1,37,-1
 214 358 l 1,38,-1
 214 166 l 2,39,40
 214 133 214 133 228.5 113 c 128,-1,41
 243 93 243 93 256.5 93 c 128,-1,42
 270 93 270 93 283 111.5 c 128,-1,43
 296 130 296 130 296 169 c 2,44,-1
 296 192 l 1,45,46
 319 230 319 230 356 230 c 0,47,48
 364 230 364 230 372 227 c 0,49,50
 419 209 419 209 416 135 c 0,51,52
 415.003042596 113.06693712 415.003042596 113.06693712 412 110 c 2,53,-1
 318 14 l 2,54,55
 280 -25 280 -25 277 -31 c 0,56,57
 261 -63 261 -63 261 -81.5 c 0,58,59
 261 -127 261 -127 306 -154 c 0,60,61
 346.216900948 -174.29304854 346.216900948 -174.29304854 363 -177 c 4,62,63
 394 -182 394 -182 418 -175 c 132,-1,64
 442 -168 442 -168 458 -134.5 c 128,-1,65
 474 -101 474 -101 474 -77 c 0,66,67
 474 -33 474 -33 442 -33 c 0,68,69
 425 -33 425 -33 425 -69 c 0,0,1
EndSplineSet
LCarets2: 2 0 0
Ligature2: "'akhn' Akhand lookup 0 subtable" u11328 u1134D u1132E
EndChar

StartChar: uE106
Encoding: 57606 57606 24
Width: 655
Flags: MW
LayerCount: 2
Fore
SplineSet
216 355 m 5,0,1
 260 339 260 339 260 301 c 7,2,3
 260 262 260 262 220 244 c 4,4,5
 203.020507812 235 203.020507812 235 179 235 c 7,6,7
 159.973632812 235 159.973632812 235 142 240 c 4,8,9
 111 249 111 249 94 291 c 4,10,11
 91 295.916992188 91 295.916992188 91 302 c 7,12,13
 91 328.172851562 91 328.172851562 111 353.5 c 4,14,15
 131 376 131 376 162 388 c 132,-1,16
 193 400 193 400 229 401 c 4,17,18
 268 401 268 401 298 389 c 4,19,20
 330 376 330 376 353 345.5 c 4,21,22
 381 315.259765625 381 315.259765625 381 267 c 7,23,24
 381 199 381 199 322 160 c 5,25,26
 355 141 355 141 355 110 c 7,27,28
 355 78 355 78 314 49 c 5,29,-1
 510 49 l 5,30,-1
 510 391 l 6,31,32
 510 407 510 407 545 407 c 7,33,34
 558 407 558 407 569 402.5 c 132,-1,35
 580 398 580 398 580 391 c 6,36,-1
 580 35 l 5,37,38
 586 24 586 24 577.5 12 c 132,-1,39
 569 0 569 0 548 0 c 6,40,-1
 48 0 l 6,41,42
 39 0 39 0 34 7.5 c 132,-1,43
 29 15 29 15 29 24.5 c 135,-1,44
 29 34 29 34 34 41.5 c 132,-1,45
 39 49 39 49 48 49 c 6,46,-1
 86 49 l 6,47,48
 256 50 256 50 298 82 c 4,49,50
 314 94 314 94 303 106.5 c 4,51,52
 292 123 292 123 264 123 c 6,53,-1
 121 123 l 6,54,55
 100 123 100 123 100 145 c 7,56,57
 100 171 100 171 121 171 c 7,58,59
 252 171 252 171 298 225 c 4,60,61
 314 243 314 243 313 267 c 4,62,63
 313 314 313 314 280 338 c 4,64,65
 256 355 256 355 224 355 c 4,66,67
 220 355 220 355 216 355 c 5,0,1
160.5 321 m 132,-1,69
 153 314 153 314 153 300.5 c 135,-1,70
 153 287 153 287 160.5 280 c 132,-1,71
 168 273 168 273 177.5 273 c 135,-1,72
 187 273 187 273 195 280 c 132,-1,73
 203 287 203 287 203 300.5 c 135,-1,74
 203 314 203 314 195 321 c 132,-1,75
 187 328 187 328 177.5 328 c 135,-1,68
 168 328 168 328 160.5 321 c 132,-1,69
EndSplineSet
LCarets2: 2 0 0
Ligature2: "'akhn' Akhand lookup 0 subtable" u11326 u1134D u11335
EndChar

StartChar: uE107
Encoding: 57607 57607 25
Width: 917
Flags: MW
LayerCount: 2
Fore
SplineSet
642 0 m 2,0,1
 628 0 628 0 620 19 c 0,2,3
 613 37 613 37 626 42 c 0,4,5
 653 51 653 51 662 84 c 0,6,7
 666 98 666 98 666 113 c 3,8,9
 666 132 666 132 660 152 c 0,10,11
 650 186 650 186 625 212 c 0,12,13
 603 236 603 236 570 236 c 3,14,15
 550 236 550 236 525 224 c 1,16,17
 567 194 567 194 587 156 c 0,18,19
 604 123 604 123 604 93 c 2,20,-1
 604 84 l 2,21,22
 604 53 604 53 575.5 25.5 c 0,23,24
 549 0 549 0 502.489257812 -0.1845703125 c 0,25,26
 459 0 459 0 438 24 c 0,27,28
 417 49 417 49 415.5 71.5 c 128,-1,29
 414 94 414 94 414 115 c 3,30,31
 414 132 414 132 418 152 c 0,32,33
 424 192 424 192 446 223 c 1,34,35
 397 241 397 241 344 241 c 0,36,37
 335 241 335 241 325 240 c 1,38,39
 328 173 328 173 328 165 c 3,40,41
 328 118 328 118 322 92.5 c 0,42,43
 313 54 313 54 309 46 c 0,44,45
 286 0 286 0 230 0 c 3,46,47
 139 0 139 0 87 58 c 0,48,49
 47 104 47 104 47 152 c 3,50,51
 47 165 47 165 50 178 c 0,52,53
 56 209 56 209 78.5 236.5 c 128,-1,54
 101 264 101 264 142 281 c 1,55,-1
 142 388 l 2,56,57
 142 411 142 411 161 411 c 2,58,-1
 349 411 l 2,59,60
 359 411 359 411 365 403.5 c 128,-1,61
 371 396 371 396 371 387 c 259,62,63
 371 378 371 378 365 371 c 128,-1,64
 359 364 359 364 349 364 c 2,65,-1
 325 364 l 1,66,-1
 325 287 l 1,67,68
 412 283 412 283 477 253 c 1,69,70
 509 276 509 276 561 276 c 3,71,72
 614 276 614 276 647.5 251.5 c 128,-1,73
 681 227 681 227 697 192 c 0,74,75
 713 158 713 158 713 120 c 3,76,77
 713 79 713 79 698 48 c 1,78,-1
 784 48 l 1,79,-1
 784 386 l 2,80,81
 784 395 784 395 794.5 400.5 c 0,82,83
 805 407 805 407 817.5 406.5 c 0,84,85
 830 407 830 407 840.5 402 c 128,-1,86
 851 397 851 397 851 388 c 2,87,-1
 851 18 l 2,88,89
 851 0 851 0 831 0 c 0,90,-1
 642 0 l 2,0,1
231 49 m 2,91,92
 267 49 267 49 267 142 c 3,93,94
 267 159 267 159 266 179 c 0,95,96
 262 236 262 236 262 238 c 1,97,-1
 168 238 l 1,98,99
 122 221 122 221 106 188 c 0,100,101
 97 168 97 168 97 149 c 3,102,103
 97 136 97 136 102 122 c 0,104,105
 112 90 112 90 144 68 c 0,106,107
 170 49 170 49 209 49 c 2,108,-1
 231 49 l 2,91,92
543 57 m 0,109,110
 555 70.6326979673 555 70.6326979673 555 92 c 3,111,112
 555 119 555 119 538 149 c 0,113,114
 522 177 522 177 490 200 c 1,115,116
 462 166 462 166 462 114 c 2,117,-1
 462 106 l 2,118,119
 461.392118992 39 461.392118992 39 502 39 c 0,120,121
 526 39 526 39 543 57 c 0,109,110
193 364 m 1,122,-1
 193 288 l 1,123,-1
 262 288 l 1,124,-1
 262 364 l 1,125,-1
 193 364 l 1,122,-1
EndSplineSet
LCarets2: 2 0 0
Ligature2: "'akhn' Akhand lookup 0 subtable" u11324 u1134D u11335
EndChar

StartChar: uE108
Encoding: 57608 57608 26
Width: 772
Flags: MW
LayerCount: 2
Fore
SplineSet
492 371 m 3,0,1
 469 371 469 371 474 389 c 0,2,3
 476 396 476 396 482.5 402 c 128,-1,4
 489 408 489 408 500 408 c 3,5,6
 568 408 568 408 637 324 c 24,7,8
 711 234 711 234 711 142 c 3,9,10
 711 81 711 81 648 33 c 0,11,12
 606 0 606 0 536 0 c 3,13,14
 443 0 443 0 397 65 c 1,15,16
 349 0 349 0 264 0 c 3,17,18
 202 0 202 0 159 36 c 0,19,20
 115 74 115 74 115 134 c 3,21,22
 115 147 115 147 117 161 c 1,23,-1
 39 161 l 2,24,25
 29 161 29 161 23.5 167 c 128,-1,26
 18 173 18 173 18 179.5 c 131,-1,27
 18 186 18 186 23.5 192.5 c 128,-1,28
 29 199 29 199 39 199 c 2,29,-1
 111 199 l 2,30,31
 242 199 242 199 270 241 c 0,32,33
 299 283 299 283 273.5 329 c 0,34,35
 260 354 260 354 240 363 c 0,36,37
 229 368 229 368 219 368 c 3,38,39
 210 368 210 368 200 364 c 0,40,41
 178 356 178 356 162 334 c 1,42,43
 173 336 173 336 182 336 c 0,44,45
 202 336 202 336 220 328 c 0,46,47
 242 319 242 319 242 301 c 2,48,-1
 242 299 l 2,49,50
 242 271 242 271 219.5 254.5 c 0,51,52
 191 235 191 235 142 229 c 0,53,54
 133 228 133 228 115 232 c 0,55,56
 82 239 82 239 82 266 c 3,57,58
 82 334 82 334 125 374 c 0,59,60
 167 412 167 412 221 412 c 3,61,62
 278 412 278 412 315 376 c 0,63,64
 355 337 355 337 355 270 c 3,65,66
 355 250 355 250 343 232 c 128,-1,67
 331 214 331 214 303 199 c 1,68,-1
 461 199 l 2,69,70
 471 199 471 199 476 192.5 c 0,71,72
 480 186 480 186 480.5 179.5 c 0,73,74
 480 173 480 173 474.5 167 c 128,-1,75
 469 161 469 161 459 161 c 2,76,-1
 171 161 l 1,77,78
 166 143 166 143 166 128 c 3,79,80
 166 92 166 92 191.5 66.5 c 128,-1,81
 217 41 217 41 252 41 c 0,82,83
 266 41 266 41 281 44 c 0,84,85
 339 59 339 59 370 128 c 1,86,-1
 425 128 l 1,87,88
 460 66 460 66 486 51 c 0,89,90
 509 38 509 38 533 38 c 3,91,92
 542 38 542 38 550 40 c 0,93,94
 578 46 578 46 607 74.5 c 0,95,96
 638 105 638 105 638 142 c 3,97,98
 638 223 638 223 602.5 289.5 c 0,99,100
 559 371 559 371 492 371 c 3,0,1
143 290 m 0,101,102
 141 285 141 285 140.5 280 c 0,103,104
 137.683446322 260.847434992 137.683446322 260.847434992 166.5 263.5 c 0,105,106
 188.67453505 265.645922747 188.67453505 265.645922747 188 296 c 24,107,108
 188 310 188 310 168 310 c 2,109,-1
 167 310 l 2,110,111
 151 310 151 310 143 290 c 0,101,102
EndSplineSet
LCarets2: 2 0 0
Ligature2: "'akhn' Akhand lookup 0 subtable" u11326 u1134D u11327
EndChar

StartChar: uE109
Encoding: 57609 57609 27
Width: 1024
Flags: MW
LayerCount: 2
Fore
SplineSet
287 174 m 2,0,1
 580 174 580 174 580 276 c 3,2,3
 580 293 580 293 564 312 c 0,4,5
 549 329 549 329 528 338 c 0,6,7
 506 348 506 348 482 348 c 3,8,9
 457 348 457 348 438 338 c 0,10,11
 394 315 394 315 394 250 c 2,12,-1
 394 240 l 2,13,14
 394 226 394 226 370 226 c 2,15,-1
 362 226 l 2,16,17
 352 226 352 226 340.5 232 c 0,18,19
 331 237 331 237 331 244 c 3,20,21
 331 290 331 290 310 319.5 c 0,22,23
 290 349 290 349 260 362 c 0,24,25
 237 372 237 372 214 372 c 3,26,27
 207 372 207 372 199 371 c 0,28,29
 168 367 168 367 146 344 c 1,30,31
 179 342 179 342 198 326 c 0,32,33
 231 298 231 298 231 263 c 3,34,35
 231 215 231 215 184 204 c 0,36,37
 163 199 163 199 151 199 c 3,38,39
 128 199 128 199 103 208 c 0,40,41
 48 227 48 227 48 266 c 3,42,43
 48 344 48 344 111 382 c 0,44,45
 150 405 150 405 199 405 c 3,46,47
 221 405 221 405 245 400 c 0,48,49
 321 385 321 385 364 330 c 1,50,51
 393 393 393 393 468 404 c 0,52,53
 490 407 490 407 497 407 c 3,54,55
 543 407 543 407 594 376 c 0,56,57
 657 338 657 338 657 272 c 3,58,59
 657 187 657 187 472 150 c 0,60,61
 374 130 374 130 325 130 c 2,62,63
 283 130 l 2,64,65
 205 130 205 130 159 96 c 0,66,67
 126 71 126 71 126 57.5 c 135,-1,68
 126 44 126 44 151 29 c 0,69,70
 188.862126342 4 188.862126342 4 219 4 c 3,71,72
 288 4 288 4 354 55 c 0,73,-1
 376 72 l 1,74,75
 442 133 442 133 518 133 c 3,76,77
 586 133 586 133 643 86 c 1,78,-1
 643 134 l 1,79,-1
 841 134 l 2,80,81
 860 134 860 134 869.5 127.5 c 0,82,83
 878 121 878 121 878.5 112 c 0,84,85
 878 103 878 103 867 96.5 c 128,-1,86
 856 90 856 90 835 90 c 2,87,-1
 810 90 l 1,88,-1
 810 15 l 1,89,90
 868 10 868 10 904.5 -14.5 c 0,91,92
 942 -40 942 -40 956 -74 c 0,93,94
 965 -96 965 -96 965 -119 c 3,95,96
 965 -132 965 -132 962 -146 c 0,97,98
 954 -184 954 -184 924.5 -216.5 c 128,-1,99
 895 -249 895 -249 844 -270.5 c 128,-1,100
 793 -292 793 -292 720 -292 c 2,101,-1
 718 -292 l 2,102,103
 610 -292 610 -292 532 -252 c 0,104,105
 442 -206 442 -206 441 -124 c 0,106,107
 441 -121 441 -121 441 -118 c 3,108,109
 441 -111 441 -111 446.5 -107 c 0,110,111
 452 -104 452 -104 458 -104 c 3,112,113
 474.031219542 -104 474.031219542 -104 474 -119 c 3,114,115
 474 -166 474 -166 503 -193 c 128,-1,116
 532 -220 532 -220 572 -234 c 0,117,118
 632 -255 632 -255 700.5 -255 c 131,-1,119
 769 -255 769 -255 806.5 -240.5 c 128,-1,120
 844 -226 844 -226 867 -203.5 c 0,121,122
 890 -182 890 -182 898 -154 c 0,123,124
 902 -139 902 -139 902 -125 c 3,125,126
 902 -113 902 -113 899 -101 c 0,127,128
 892 -76 892 -76 870 -56 c 128,-1,129
 848 -36 848 -36 810 -28 c 1,130,-1
 810 -48 l 2,131,132
 810 -100 810 -100 802 -126 c 0,133,134
 784 -188 784 -188 724 -188 c 2,135,-1
 721 -188 l 2,136,137
 634 -188 634 -188 592 -144 c 0,138,139
 565 -114.064449134 565 -114.064449134 565 -83 c 3,140,141
 565 -69.9615951896 565 -69.9615951896 570 -56 c 0,142,143
 587 -3 587 -3 643 14 c 1,144,145
 638 31 638 31 616 53 c 0,146,147
 596 74 596 74 568 86 c 0,148,149
 534 101 534 101 503 101 c 3,150,151
 475 101 475 101 449 88 c 1,152,153
 485 84 485 84 502 60 c 0,154,155
 518 38 518 38 518 13 c 3,156,157
 518 -17 518 -17 496 -41 c 0,158,159
 476 -63 476 -63 438 -63 c 131,-1,160
 400 -63 400 -63 380.5 -44 c 128,-1,161
 361 -25 361 -25 356 0 c 1,162,163
 298 -36 298 -36 219 -36 c 3,164,165
 129 -36 129 -36 84 6 c 0,166,167
 67 22 67 22 60 48 c 0,168,169
 59 52 59 52 59 57 c 3,170,171
 59 76 59 76 72 94 c 0,172,173
 108 143 108 143 234 169 c 0,174,175
 258 174 258 174 275 174 c 2,176,-1
 287 174 l 2,0,1
  Spiro
    287 174 ]
    506.75 199.5 o
    580 276 o
    576 293.5 o
    564 312 o
    547.5 327 o
    528 338 o
    505.5 345.5 o
    482 348 o
    458.5 345.5 o
    438 338 o
    405 304.5 o
    394 250 [
    394 240 ]
    388 229.5 o
    370 226 [
    362 226 ]
    351.625 227.5 o
    340.5 232 o
    333.375 237.5 o
    331 244 o
    325.75 285.875 o
    310 319.5 o
    287.5 344.875 o
    260 362 o
    237 369.5 o
    214 372 o
    206.75 371.75 o
    199 371 o
    170.25 362.25 o
    146 344 v
    175.5 338.5 o
    198 326 o
    222.75 296.25 o
    231 263 o
    219.25 224.25 o
    184 204 o
    165.25 200.25 o
    151 199 o
    127.5 201.25 o
    103 208 o
    61.75 232 o
    48 266 o
    63.75 334 o
    111 382 o
    152.5 399.25 o
    199 405 o
    221.5 403.75 o
    245 400 o
    312.75 375 o
    364 330 v
    404.5 380 o
    468 404 o
    486.25 406.25 o
    497 407 o
    544.25 399.25 o
    594 376 o
    641.25 331 o
    657 272 o
    610.75 199 o
    472 150 o
    386.25 135 o
    325 130 [
    283 130 ]
    213 121.5 o
    159 96 o
    134.25 74.25 o
    126 59 o
    132.25 49 o
    151 29 o
    180 10.25 o
    219 4 o
    287.25 16.75 o
    354 55 ]
    376 72 v
    444.5 117.75 o
    518 133 o
    583.25 121.25 o
    643 86 v
    643 134 v
    841 134 ]
    857.625 132.375 o
    869.5 127.5 o
    876 120.375 o
    878.5 112 o
    875.375 103.625 o
    867 96.5 o
    853.5 91.625 o
    835 90 [
    810 90 v
    810 15 v
    862.625 5.125 o
    904.5 -14.5 o
    936.125 -42.125 o
    956 -74 o
    962.75 -96.25 o
    965 -119 o
    964.25 -132.25 o
    962 -146 o
    948.625 -182.625 o
    924.5 -216.5 o
    889.625 -246.25 o
    844 -270.5 o
    787.5 -286.625 o
    720 -292 [
    718 -292 ]
    617.5 -282 o
    532 -252 o
    464.25 -197 o
    441 -124 o
    441 -118 o
    442.375 -111.75 o
    446.5 -107 o
    452.125 -104.75 o
    458 -104 o
    470 -108.25 o
    474 -119 o
    481.25 -161 o
    503 -193 o
    534.75 -216.75 o
    572 -234 o
    634.125 -249.75 o
    700.5 -255 o
    761.25 -251.375 o
    806.5 -240.5 o
    840.375 -224 o
    867 -203.5 o
    886.25 -180.375 o
    898 -154 o
    901 -139.25 o
    902 -125 o
    901.25 -113 o
    899 -101 o
    888.25 -77.25 o
    870 -56 o
    844 -39 o
    810 -28 v
    810 -48 ]
    808 -93.5 o
    802 -126 o
    773.5 -172.5 o
    724 -188 [
    721 -188 ]
    645.25 -177 o
    592 -144 o
    570.75 -113.75 o
    565 -83 o
    566.75 -69.75 o
    570 -56 o
    596.75 -12 o
    643 14 v
    633.75 32.25 o
    616 53 o
    594 71.75 o
    568 86 o
    534.75 97.25 o
    503 101 o
    475.5 97.75 o
    449 88 v
    480.25 79 o
    502 60 o
    514 37.25 o
    518 13 o
    512.5 -15.5 o
    496 -41 o
    471.5 -57.5 o
    438 -63 o
    404.625 -58.25 o
    380.5 -44 o
    364.625 -23.5 o
    356 0 v
    292.75 -27 o
    219 -36 o
    140.25 -25.5 o
    84 6 o
    69.5 24.5 o
    60 48 o
    59.25 52.25 o
    59 57 o
    62.25 75.75 o
    72 94 o
    130.5 137.25 o
    234 169 o
    256.25 172.75 o
    275 174 [
    0 0 z
  EndSpiro
724 -140 m 3,177,178
 751 -140 751 -140 751 -101 c 3,179,180
 749 -87.0973907295 749 -87.0973907295 749 -72 c 24,181,-1
 749 -19 l 1,182,-1
 666 -19 l 2,183,184
 632 -19 632 -19 616 -46 c 0,185,186
 605 -64 605 -64 605 -76 c 3,187,188
 605 -82 605 -82 607 -88 c 0,189,190
 613 -109 613 -109 642 -124.5 c 128,-1,191
 671 -140 671 -140 724 -140 c 3,177,178
  Spiro
    724 -140 o
    744.25 -130.25 o
    751 -101 o
    750 -86.75 o
    749 -72 ]
    749 -19 v
    666 -19 ]
    636.5 -25.75 o
    616 -46 o
    607.75 -62.5 o
    605 -76 o
    605.5 -82 o
    607 -88 o
    618.75 -107.625 o
    642 -124.5 o
    677 -136.125 o
    0 0 z
  EndSpiro
470 36.5 m 128,-1,193
 459 49 459 49 440 49 c 3,194,195
 420.5 49 420.5 49 407 40 c 0,196,197
 404 38 404 38 395 30 c 1,198,199
 389 20 389 20 389 10 c 3,200,201
 389 0.944614861863 389 0.944614861863 394 -8 c 0,202,203
 404 -28 404 -28 431.5 -28 c 131,-1,204
 459 -28 459 -28 470 -15.5 c 128,-1,205
 481 -3 481 -3 481 10.5 c 131,-1,192
 481 24 481 24 470 36.5 c 128,-1,193
  Spiro
    470 36.5 o
    457 45.875 o
    440 49 o
    422 46.75 o
    407 40 o
    402.5 36.5 o
    395 30 v
    390.5 20 o
    389 10 o
    390.75 1 o
    394 -8 o
    408.375 -23 o
    431.5 -28 o
    454.875 -24.875 o
    470 -15.5 o
    478.25 -2.75 o
    481 10.5 o
    478.25 23.75 o
    0 0 z
  EndSpiro
749 90 m 1,206,-1
 688 90 l 1,207,-1
 688 17 l 1,208,-1
 749 17 l 1,209,-1
 749 90 l 1,206,-1
  Spiro
    749 90 v
    688 90 v
    688 17 v
    749 17 v
    0 0 z
  EndSpiro
125 265 m 3,210,211
 125 252 125 252 132.5 244 c 128,-1,212
 140 236 140 236 149.5 235.5 c 128,-1,213
 159 235 159 235 168.5 240 c 0,214,215
 180 247 180 247 180 259 c 2,216,-1
 180 263 l 2,217,218
 180 279 180 279 171.5 288.5 c 128,-1,219
 163 298 163 298 152 299 c 128,-1,220
 141 300 141 300 133 291 c 128,-1,221
 125 282 125 282 125 265 c 3,210,211
  Spiro
    125 265 o
    126.875 253.25 o
    132.5 244 o
    140.5 237.875 o
    149.5 235.5 o
    159 236.375 o
    168.5 240 o
    177.125 248.25 o
    180 259 [
    180 263 ]
    177.875 277.375 o
    171.5 288.5 o
    162.375 295.875 o
    152 299 o
    141.75 297.5 o
    133 291 o
    127 280 o
    0 0 z
  EndSpiro
EndSplineSet
Position2: "Single Position lookup 0-1" dx=0 dy=0 dh=-280 dv=0 [ddx={} ddy={} ddh={} ddv={}]
LCarets2: 2 0 0
Ligature2: "'akhn' Akhand lookup 0 subtable" u1131C u1134D u1131E
EndChar

StartChar: uE10A
Encoding: 57610 57610 28
Width: 859
Flags: MW
LayerCount: 2
Fore
SplineSet
460 138 m 0,0,1
 494 138 494 138 494 194 c 0,2,3
 494 210 494 210 490 252 c 1,4,-1
 399 252 l 18,5,6
 369 252 369 252 350 224 c 0,7,8
 342 212 342 212 342 200 c 0,9,10
 342 193 342 193 345 186 c 0,11,12
 353 167 353 167 382.5 152.5 c 128,-1,13
 412 138 412 138 460 138 c 0,0,1
824 31 m 2,14,15
 824 0 824 0 804 0 c 2,16,-1
 98 0 l 2,17,18
 90 0 90 0 85.5 6.5 c 128,-1,19
 81 13 81 13 81 21 c 128,-1,20
 81 29 81 29 85.5 35.5 c 128,-1,21
 90 42 90 42 98 42 c 2,22,-1
 425 42 l 1,23,24
 641 58 641 58 641 166 c 0,25,26
 641 193 641 193 618 217 c 128,-1,27
 595 241 595 241 552 249 c 1,28,-1
 557 188 l 2,29,30
 557 165 557 165 550 143 c 0,31,32
 532 83 532 83 465.5 83 c 128,-1,33
 399 83 399 83 360 108 c 0,34,35
 302 145.179487179 302 145.179487179 302 202.58974359 c 128,-1,36
 302 260 302 260 365 287 c 1,37,38
 351 319 351 319 318.5 339 c 128,-1,39
 286 359 286 359 253 359 c 2,40,-1
 242 359 l 1,41,42
 159.269230769 354.403846154 159.269230769 354.403846154 121 297 c 1,43,44
 129 298 129 298 136 298 c 0,45,46
 172 298 172 298 201 281 c 0,47,48
 240 258 240 258 240 219.5 c 128,-1,49
 240 181 240 181 208.5 160 c 128,-1,50
 177 139 177 139 146.5 139 c 0,51,52
 92 139 92 139 61.5 160.5 c 128,-1,53
 31 182 31 182 31 220 c 0,54,55
 31 323.271193071 31 323.271193071 108 361 c 1,56,57
 167 396 167 396 227 396 c 0,58,59
 330 396 330 396 374 348 c 1,60,-1
 374 411 l 1,61,-1
 578 411 l 2,62,63
 589 411 589 411 594.5 404.5 c 128,-1,64
 600 398 600 398 600 391 c 128,-1,65
 600 384 600 384 594.5 378 c 128,-1,66
 589 372 589 372 578 372 c 2,67,-1
 552 372 l 1,68,-1
 552 295 l 1,69,70
 616 285 616 285 659 247 c 128,-1,71
 702 209 702 209 702 166 c 0,72,73
 702 77 702 77 602 42 c 1,74,-1
 764 42 l 1,75,-1
 764 391 l 2,76,77
 764 401 764 401 772.994793925 407.25 c 128,-1,78
 781.989587851 413.5 781.989587851 413.5 794 413.5 c 4,79,80
 824 413.5 824 413.5 824 393 c 2,81,-1
 824 31 l 2,14,15
190 216 m 1,82,-1
 190 219 l 1,83,84
 189 241 189 241 174 251 c 0,85,86
 160 260 160 260 140 260 c 0,87,88
 121.972243623 260 121.972243623 260 107 248 c 0,89,90
 92 237 92 237 92 217.5 c 128,-1,91
 92 198 92 198 107 187 c 0,92,93
 122 175 122 175 140 175 c 0,94,95
 159 175 159 175 174 185 c 128,-1,96
 189 195 189 195 190 216 c 1,82,-1
423 372 m 1,97,-1
 423 297 l 1,98,-1
 490 297 l 1,99,-1
 490 372 l 1,100,-1
 423 372 l 1,97,-1
EndSplineSet
LCarets2: 2 0 0
Ligature2: "'akhn' Akhand lookup 0 subtable" u1131E u1134D u1131A
EndChar

StartChar: uE10B
Encoding: 57611 57611 29
Width: 768
Flags: MW
LayerCount: 2
Fore
SplineSet
108 244 m 128,-1,1
 94 232 94 232 94 207 c 131,-1,2
 94 182 94 182 108 170 c 128,-1,3
 122 158 122 158 138 158 c 131,-1,4
 154 158 154 158 168 170 c 128,-1,5
 182 182 182 182 182 206 c 3,6,7
 182 232 182 232 168.5 244 c 128,-1,8
 155 256 155 256 138.5 256 c 131,-1,0
 122 256 122 256 108 244 c 128,-1,1
628 147 m 3,9,10
 628 181 628 181 615.5 202 c 128,-1,11
 603 223 603 223 585 230 c 0,12,13
 577 233 577 233 569 233 c 3,14,15
 559 233 559 233 548 228 c 0,16,17
 529 220 529 220 516 195 c 1,18,-1
 516 177 l 2,19,20
 516 166 516 166 504.5 160.5 c 128,-1,21
 493 155 493 155 478.5 155 c 131,-1,22
 464 155 464 155 452 160.5 c 128,-1,23
 440 166 440 166 440 177 c 2,24,-1
 440 365 l 1,25,-1
 357 365 l 1,26,-1
 357 142 l 2,27,28
 357 129 357 129 332 129 c 3,29,30
 297 129 297 129 297 144 c 2,31,-1
 297 172 l 2,32,33
 297 273 297 273 240 330 c 0,34,35
 216 354 216 354 189 362 c 0,36,37
 174 367 174 367 159 366 c 0,38,39
 147 366 147 366 137 363 c 0,40,41
 113 356 113 356 96.5 334.5 c 128,-1,42
 80 313 80 313 79 279 c 1,43,44
 103 293 103 293 135 293 c 3,45,46
 159 293 159 293 184 284 c 0,47,48
 209 274 209 274 226.5 254 c 128,-1,49
 244 234 244 234 244 206 c 3,50,51
 244 154 244 154 190 132 c 0,52,53
 164 121 164 121 138 121 c 3,54,55
 114 121 114 121 90 129 c 0,56,57
 62 138 62 138 50 154.5 c 0,58,59
 43 164 43 164 30 206 c 0,60,61
 26 219 26 219 26 257 c 3,62,63
 26 331 26 331 62 372 c 0,64,65
 95 410 95 410 146 410 c 3,66,67
 160 410 160 410 176 407 c 0,68,69
 245 394 245 394 297 336 c 1,70,-1
 297 392 l 2,71,72
 297 401 297 401 309 404 c 1,73,74
 316 413 316 413 327 413 c 2,75,-1
 594 413 l 2,76,77
 603 413 603 413 608 405 c 128,-1,78
 613 397 613 397 613 388.5 c 131,-1,79
 613 380 613 380 608 372.5 c 128,-1,80
 603 365 603 365 594 365 c 2,81,-1
 516 365 l 1,82,-1
 516 261 l 1,83,84
 545 274 545 274 574 274 c 3,85,86
 608 274 608 274 640 258 c 0,87,88
 668 244 668 244 686.5 215.5 c 128,-1,89
 705 187 705 187 705 147 c 3,90,91
 705 101 705 101 628 63 c 0,92,93
 507 2 507 2 324 2 c 3,94,95
 262 2 262 2 182 -45 c 0,96,97
 133 -74 133 -74 133 -100 c 3,98,99
 133 -119 133 -119 161 -132 c 0,100,101
 191 -146 191 -146 257 -146 c 3,102,103
 322 -146 322 -146 392 -94 c 0,104,105
 423 -71 423 -71 425 -68 c 0,106,107
 500 -3 500 -3 583 -3 c 3,108,109
 602 -3 602 -3 620 -6 c 0,110,111
 684 -16 684 -16 716 -58 c 0,112,113
 732 -78 732 -78 732 -105 c 3,114,115
 732 -136 732 -136 700 -160.5 c 128,-1,116
 668 -185 668 -185 639 -194 c 0,117,118
 605 -205 605 -205 572 -205 c 3,119,120
 514 -205 514 -205 500 -188.5 c 0,121,122
 494 -181 494 -181 494 -173 c 131,-1,123
 494 -165 494 -165 501.5 -158 c 0,124,125
 513.017857143 -147.25 513.017857143 -147.25 524 -151 c 24,126,127
 565 -165 565 -165 576 -165 c 3,128,129
 594 -165 594 -165 612 -158 c 0,130,131
 651 -144 651 -144 662 -103 c 24,132,133
 665 -92 665 -92 653 -75 c 128,-1,134
 641 -58 641 -58 622 -52 c 0,135,136
 607 -47 607 -47 591 -47 c 3,137,138
 558 -47 558 -47 498 -79 c 2,139,-1
 468 -95 l 1,140,141
 446 -113 446 -113 423.5 -132.5 c 128,-1,142
 401 -152 401 -152 376 -168 c 0,143,144
 317 -205 317 -205 260 -205 c 2,145,-1
 244 -205 l 2,146,147
 193 -205 193 -205 160 -194 c 0,148,149
 118 -180 118 -180 95 -156 c 0,150,151
 70 -130 70 -130 70 -100 c 3,152,153
 70 -74 70 -74 90 -46 c 0,154,155
 152 40 152 40 334 40 c 3,156,157
 520 40 520 40 602 110 c 0,158,159
 628 132 628 132 628 147 c 3,9,10
EndSplineSet
LCarets2: 2 0 0
Ligature2: "'akhn' Akhand lookup 0 subtable" u1131E u1134D u1131C
EndChar

StartChar: uE10C
Encoding: 57612 57612 30
Width: 1050
Flags: MW
LayerCount: 2
Fore
SplineSet
411 122 m 0,0,1
 411 79 411 79 427 65.5 c 0,2,3
 441.988101979 52.5 441.988101979 52.5 452.5 52.5 c 135,-1,4
 463.011898021 52.5 463.011898021 52.5 469 71 c 0,5,6
 475 90 475 90 475 97 c 2,7,-1
 475 114 l 2,8,9
 475 130 475 130 472 146 c 0,10,11
 461 204 461 204 440 204 c 0,12,13
 411 204 411 204 411 122 c 0,0,1
162 206 m 1,14,15
 73 164.678571429 73 164.678571429 73 107 c 2,16,-1
 73 100 l 2,17,18
 73 76 73 76 93 61.5 c 128,-1,19
 113 47 113 47 132.5 47 c 128,-1,20
 152 47 152 47 162 63 c 128,-1,21
 172 79 172 79 172 96.5 c 128,-1,22
 172 114 172 114 170 130 c 1,23,-1
 170 148 l 2,24,25
 170 161 170 161 196 161 c 128,-1,26
 222 161 222 161 225 152 c 0,27,28
 241 80 241 80 248.5 68 c 128,-1,29
 256 56 256 56 264.5 56 c 128,-1,30
 273 56 273 56 273 91 c 2,31,-1
 273 103 l 1,32,33
 272 149 272 149 269 171 c 26,34,-1
 265 206 l 1,35,-1
 162 206 l 1,14,15
183 356 m 1,36,-1
 183 251 l 1,37,-1
 265 251 l 1,38,-1
 265 356 l 1,39,-1
 183 356 l 1,36,-1
784 352 m 128,-1,41
 766 352 766 352 752 335.5 c 128,-1,42
 738 319 738 319 738 291.5 c 128,-1,43
 738 264 738 264 764 250.5 c 128,-1,44
 790 237 790 237 824 236 c 1,45,-1
 824 285 l 2,46,47
 824 318 824 318 813 335 c 128,-1,40
 802 352 802 352 784 352 c 128,-1,41
931 211 m 1,48,-1
 899 204 l 1,49,-1
 899 45 l 1,50,-1
 931 45 l 1,51,-1
 931 211 l 1,48,-1
580 0 m 2,52,53
 537 0 537 0 537 26 c 0,54,55
 537 36 537 36 549 43 c 0,56,57
 581 59 581 59 595.5 81.5 c 128,-1,58
 610 104 610 104 610 117 c 128,-1,59
 610 130 610 130 609 134 c 0,60,61
 605 158 605 158 578 177.5 c 128,-1,62
 551 197 551 197 496 203 c 1,63,64
 511 167 511 167 511 136.5 c 0,65,66
 511 26 511 26 468 4 c 0,67,68
 460 0 460 0 451 0 c 0,69,70
 420 -0 420 -0 398.25 36 c 0,71,72
 370.5 79.9971099232 370.5 79.9971099232 370.5 123.25 c 3,73,74
 370.5 152.004347497 370.5 152.004347497 386 206 c 1,75,-1
 337 206 l 1,76,-1
 337 150 l 2,77,78
 337 103 337 103 324.5 66.5 c 128,-1,79
 312 30 312 30 295 15 c 128,-1,80
 278 0 278 0 261 0 c 0,81,82
 228 0 228 0 204 52 c 1,83,84
 188 12 188 12 160 4 c 0,85,86
 146 0 146 0 132.5 0 c 0,87,88
 90 -0 90 -0 52 43 c 0,89,90
 24 75 24 75 24 104 c 2,91,-1
 24 115 l 2,92,93
 24 190 24 190 122 241 c 1,94,-1
 122 376 l 1,95,-1
 126 385 l 2,96,97
 134 402 134 402 152 402 c 2,98,-1
 360 402 l 2,99,100
 374 402 374 402 380 394 c 128,-1,101
 386 386 386 386 386 378 c 128,-1,102
 386 370 386 370 378 363 c 128,-1,103
 370 356 370 356 359 356 c 2,104,-1
 337 356 l 1,105,-1
 337 251 l 1,106,-1
 450 251 l 2,107,108
 522 251 522 251 573.5 226 c 128,-1,109
 625 201 625 201 638 174 c 0,110,111
 657 136 657 136 657 117 c 0,112,113
 657 79 657 79 632 45 c 1,114,-1
 824 45 l 1,115,-1
 824 198 l 1,116,117
 730 201 730 201 694 249 c 0,118,119
 682 265 682 265 682 294 c 128,-1,120
 682 323 682 323 698 348.5 c 0,121,122
 733 405 733 405 790 405 c 0,123,124
 818 405 818 405 839 394 c 0,125,126
 899 363 899 363 899 265 c 2,127,-1
 899 246 l 1,128,129
 913 251 913 251 931 263 c 1,130,131
 934 290 934 290 970 291.5 c 0,132,133
 981 292 981 292 993.5 283.25 c 0,134,135
 1006 275 1006 275 1006 262 c 2,136,-1
 1006 23 l 2,137,138
 1006 15 1006 15 996 7.5 c 128,-1,139
 986 0 986 0 968 0 c 2,140,-1
 899 0 l 1,141,-1
 899 -93 l 2,142,143
 899 -105 899 -105 887.5 -111.5 c 128,-1,144
 876 -118 876 -118 862 -118 c 128,-1,145
 848 -118 848 -118 836 -111.5 c 128,-1,146
 824 -105 824 -105 824 -93 c 2,147,-1
 824 0 l 1,148,-1
 580 0 l 2,52,53
EndSplineSet
LCarets2: 2 0 0
Ligature2: "'akhn' Akhand lookup 0 subtable" u11315 u1134D u11337
EndChar

StartChar: uE10D
Encoding: 57613 57613 31
Width: 653
Flags: MW
LayerCount: 2
Fore
SplineSet
616 24 m 3,0,1
 616 0 616 0 598 0 c 2,2,-1
 452 0 l 1,3,-1
 452 -97 l 2,4,5
 452 -108 452 -108 440.5 -114.5 c 128,-1,6
 429 -121 429 -121 416 -121 c 131,-1,7
 403 -121 403 -121 391.5 -114.5 c 128,-1,8
 380 -108 380 -108 380 -97 c 2,9,-1
 380 0 l 1,10,-1
 199 0 l 2,11,12
 178.5 -0.00675552332175 178.5 -0.00675552332175 178.5 18.5 c 0,13,14
 179 47 179 47 197 47 c 2,15,-1
 215 47 l 6,16,17
 352 51 352 51 400 115 c 0,18,19
 419 140 419 140 419 175 c 3,20,21
 419 198 419 198 398.5 215 c 128,-1,22
 378 232 378 232 352 238 c 0,23,24
 352.029386366 239 352.029386366 239 335 239 c 131,-1,25
 317.970613634 239 317.970613634 239 302 232 c 0,26,27
 272 221 272 221 272 186 c 2,28,-1
 272 157.939731992 l 2,29,30
 272 144.879463985 272 144.879463985 259.5 140.5 c 0,31,32
 248 136 248 136 234.5 136.5 c 0,33,34
 223.842105263 136.105263158 223.842105263 136.105263158 210.5 145 c 0,35,36
 200 152 200 152 200 163 c 2,37,-1
 200 366 l 1,38,-1
 118 366 l 1,39,-1
 118 52 l 2,40,41
 118 36 118 36 90 36 c 128,-1,42
 62 36 62 36 62 52 c 2,43,-1
 62 387 l 2,44,45
 62 397 62 397 75 402 c 1,46,47
 82 411 82 411 93 411 c 2,48,-1
 346 411 l 2,49,50
 356 411 356 411 361.5 403.5 c 128,-1,51
 367 396 367 396 367 388 c 128,-1,52
 367 380 367 380 361.5 373 c 128,-1,53
 356 366 356 366 346 366 c 2,54,-1
 272 366 l 1,55,-1
 272 269 l 1,56,57
 300 280 300 280 334 280 c 2,58,-1
 342 280 l 2,59,60
 380 278 380 278 412 264.5 c 128,-1,61
 444 251 444 251 466 228 c 128,-1,62
 488 205 488 205 488 175 c 3,63,64
 488 96 488 96 411 47 c 1,65,-1
 598 47 l 2,66,67
 616 47 616 47 616 24 c 3,0,1
EndSplineSet
Position2: "Single Position lookup 0-1" dx=0 dy=0 dh=-160 dv=0 [ddx={} ddy={} ddh={} ddv={}]
LCarets2: 2 0 0
Ligature2: "'akhn' Akhand lookup 0 subtable" u11328 u1134D u11326
EndChar

StartChar: uE10E
Encoding: 57614 57614 32
Width: 982
Flags: MW
LayerCount: 2
Fore
SplineSet
117 242.5 m 128,-1,1
 104 231 104 231 104 206 c 131,-1,2
 104 181 104 181 117 166.5 c 128,-1,3
 130 152 130 152 146 150 c 2,4,5
 150 150 l 2,6,7
 164 150 164 150 175 162 c 0,8,9
 188 176 188 176 188 203.5 c 131,-1,10
 188 231 188 231 175 242.5 c 128,-1,11
 162 254 162 254 146 254 c 131,-1,0
 130 254 130 254 117 242.5 c 128,-1,1
246 110 m 0,12,13
 245 116 245 116 245 121 c 3,14,15
 245 140 245 140 264 144 c 0,16,17
 273 146 273 146 289 162 c 0,18,19
 318 192 318 192 318 237 c 3,20,21
 318 273 318 273 291.5 308.5 c 0,22,23
 271 336 271 336 237 346 c 0,24,25
 227 349 227 349 217 349 c 3,26,27
 196 349 196 349 173 340 c 0,28,29
 140 326 140 326 122 289 c 1,30,31
 134 292 134 292 146 292 c 3,32,33
 175 292 175 292 204 276 c 0,34,35
 244 254 244 254 244 213 c 131,-1,36
 244 172 244 172 229 150 c 0,37,38
 203 113 203 113 157 113 c 2,39,-1
 148 113 l 2,40,41
 100 113 100 113 65 160 c 0,42,43
 48 183 48 183 48 202.5 c 3,44,45
 48 313 48 313 100.5 362 c 0,46,47
 151 409 151 409 218.5 409 c 131,-1,48
 286 409 286 409 336 364 c 0,49,50
 360 343 360 343 376 304 c 128,-1,51
 392 265 392 265 392 224 c 3,52,53
 392 176 392 176 354 144 c 1,54,-1
 508 144 l 1,55,-1
 508 312 l 2,56,57
 508 343 508 343 525 366.5 c 0,58,59
 543 392 543 392 572 401 c 256,60,61
 591 407 591 407 604 407 c 3,62,63
 618 407 618 407 631 402 c 0,64,65
 660 392 660 392 680 362 c 1,66,67
 724 410 724 410 784 410 c 2,68,-1
 792 410 l 2,69,70
 850 410 850 410 893 366 c 0,71,72
 931 327 931 327 931 245 c 3,73,74
 931 227 931 227 929 208 c 0,75,76
 923.096514408 144.242355606 923.096514408 144.242355606 862 99 c 24,77,78
 766 28 766 28 766 -12 c 3,79,80
 766 -26 766 -26 774 -39 c 0,81,82
 794 -72 794 -72 823 -72 c 3,83,84
 837 -72 837 -72 854 -64 c 0,85,86
 867 -58 867 -58 867 -45 c 3,87,88
 867 -28 867 -28 842 1 c 1,89,90
 842 4 842 4 842 7 c 0,91,92
 842 34 842 34 850 37 c 0,93,94
 858 39 858 39 865 39 c 7,95,96
 887 39 887 39 906 16 c 0,97,98
 922 -3 922 -3 922 -23 c 3,99,100
 922 -35 922 -35 916 -46 c 0,101,102
 895 -89 895 -89 844 -103 c 0,103,104
 829 -107 829 -107 813 -107 c 3,105,106
 777 -107 777 -107 740 -87 c 1,107,108
 706 -62 706 -62 706 -29 c 3,109,110
 706 8 706 8 722 28 c 26,111,-1
 798 124 l 2,112,113
 850 189.684210526 850 189.684210526 850 212 c 3,114,115
 850 280 850 280 830 315.5 c 0,116,117
 808.613518198 354.530329289 808.613518198 354.530329289 784 360 c 0,118,119
 775 362 775 362 766 362 c 3,120,121
 748.263157895 362 748.263157895 362 733 352 c 0,122,123
 704 331 704 331 704 277 c 2,124,-1
 704 120 l 2,125,126
 704 109 704 109 693 102.5 c 128,-1,127
 682 96 682 96 669 96 c 131,-1,128
 656 96 656 96 644.041992188 102.476074219 c 128,-1,129
 632 109 632 109 632 120 c 2,130,-1
 632 263 l 2,131,132
 632 292 632 292 621 310 c 0,133,134
 606 334 606 334 591 334 c 3,135,136
 580.3 334 580.3 334 574 327 c 24,137,138
 565 317 565 317 564 304 c 24,139,-1
 564 118 l 2,140,141
 564 96 564 96 532 96 c 2,142,-1
 257 96 l 0,143,144
 249 96 249 96 246 110 c 0,12,13
EndSplineSet
LCarets2: 2 0 0
Ligature2: "'akhn' Akhand lookup 0 subtable" u11339 u1134D u1132E
EndChar

StartChar: uE10F
Encoding: 57615 57615 33
Width: 612
Flags: MW
LayerCount: 2
Fore
SplineSet
401 240 m 5,0,1
 403 223 403 223 403 197 c 3,2,3
 403 174 403 174 397 151 c 0,4,5
 389 124 389 124 379 112 c 0,6,7
 362 91 362 91 356 85.5 c 0,8,9
 337 68 337 68 305 67 c 0,10,11
 239 67 239 67 208.5 86.5 c 128,-1,12
 178 106 178 106 157 127 c 128,-1,13
 136 148 136 148 130 176 c 0,14,15
 126 194 126 194 126 208 c 3,16,17
 126 214 126 214 127 220 c 0,18,19
 133 250 133 250 217 285 c 1,20,-1
 217 390 l 2,21,22
 217 413 217 413 236 413 c 2,23,-1
 424 413 l 2,24,25
 434 413 434 413 440 405.5 c 128,-1,26
 446 398 446 398 446 389 c 259,27,28
 446 380 446 380 440 373 c 128,-1,29
 434 366 434 366 424 366 c 2,30,-1
 400 366 l 1,31,-1
 400 289 l 1,32,-1
 589 289 l 1,33,-1
 589 240 l 1,34,-1
 543 240 l 1,35,-1
 543 78 l 2,36,37
 543 22 543 22 468 -26 c 0,38,39
 396 -72 396 -72 320 -72 c 2,40,-1
 311 -72 l 2,41,42
 235 -72 235 -72 128 -14 c 0,43,44
 115 -7 115 -7 22 86 c 0,45,46
 0 108 0 108 -8 128 c 0,47,48
 -18 150 -18 150 -8 155 c 0,49,50
 -4 157 -4 157 0 157 c 3,51,52
 9 157 9 157 22 148 c 1,53,-1
 130 43 l 1,54,55
 207 -8 207 -8 263 -14 c 0,56,57
 282 -16 282 -16 300 -16 c 3,58,59
 377 -16 377 -16 423 12 c 0,60,61
 487 52 487 52 487 107 c 2,62,-1
 487 240 l 1,63,-1
 401 240 l 5,0,1
304 138 m 0,64,65
 341 160 341 160 341 199 c 3,66,67
 341 204 341 204 339.5 220 c 128,-1,68
 338 236 338 236 338 240 c 1,69,-1
 243 240 l 2,70,71
 196 240 196 240 186 215 c 0,72,73
 184 210 184 210 184 197.5 c 3,74,75
 184 188 184 188 192 173.5 c 0,76,77
 197 165 197 165 218 150 c 0,78,79
 243 132 243 132 257 132 c 3,80,81
 292 132 292 132 304 138 c 0,64,65
268 366 m 1,82,-1
 268 290 l 1,83,-1
 337 290 l 1,84,-1
 337 366 l 1,85,-1
 268 366 l 1,82,-1
EndSplineSet
Validated: 1
Ligature2: "'vatu' Vattu Variants lookup 10-1" u11324 uE204
LCarets2: 2 0 0
Ligature2: "'akhn' Akhand lookup 0 subtable" u11324 u1134D u11330
EndChar

StartChar: uE110
Encoding: 57616 57616 34
Width: 869
Flags: MW
LayerCount: 2
Fore
SplineSet
498 113 m 2,0,1
 498 83 498 83 517 68 c 0,2,3
 533 52 533 52 553 52 c 3,4,5
 569 52 569 52 583 64 c 0,6,7
 602 77 602 77 602 101 c 2,8,-1
 602 361 l 1,9,-1
 498 361 l 1,10,-1
 498 113 l 2,0,1
37 -64 m 0,11,12
 10 -26 10 -26 10 -17 c 0,13,14
 10 -13 10 -13 13 -14 c 2,15,-1
 56 -30.5 l 2,16,17
 71 -37 71 -37 104 -48 c 0,18,19
 261 -103 261 -103 283 -107 c 0,20,21
 367 -122 367 -122 439 -122 c 3,22,23
 576 -122 576 -122 674 -64 c 0,24,25
 731 -30 731 -30 731 22 c 2,26,-1
 731 361 l 1,27,-1
 671 361 l 1,28,-1
 671 98 l 2,29,30
 671 33 671 33 602 10 c 0,31,32
 571 0 571 0 557 0 c 3,33,34
 524 0 524 0 491 22 c 0,35,36
 444 54 444 54 444 122 c 2,37,-1
 444 361 l 1,38,-1
 402 361 l 2,39,40
 368 361 368 361 354 348.5 c 0,41,42
 341 337 341 337 337 311 c 0,43,44
 336 304 336 304 336 275 c 2,45,-1
 336 134 l 2,46,47
 336 92 336 92 315.5 60.5 c 0,48,49
 296 31 296 31 268 16 c 0,50,51
 239 0 239 0 207 0 c 3,52,53
 177 0 177 0 147 15 c 0,54,55
 82 48 82 48 82 130 c 2,56,-1
 82 387 l 2,57,58
 82 395 82 395 89 399.5 c 128,-1,59
 96 404 96 404 105.5 404 c 131,-1,60
 115 404 115 404 123.5 399.5 c 128,-1,61
 132 395 132 395 132 387 c 2,62,-1
 132 134 l 2,63,64
 132 91 132 91 155 70.5 c 128,-1,65
 178 50 178 50 206 50 c 131,-1,66
 234 50 234 50 255 70 c 0,67,68
 273 88 273 88 273 123 c 2,69,-1
 273 261 l 2,70,71
 273 309 273 309 282 338 c 0,72,73
 293 372 293 372 320.5 390 c 0,74,75
 350 409 350 409 405 409 c 2,76,-1
 813 409 l 2,77,78
 820 409 820 409 829.5 398.5 c 128,-1,79
 839 388 839 388 830.545898438 374.072753906 c 128,-1,80
 822 360 822 360 817 360 c 2,81,-1
 782 360 l 1,82,-1
 782 -3 l 2,83,84
 782 -74.5552644506 782 -74.5552644506 647 -142 c 0,85,86
 575 -178 575 -178 461 -178 c 2,87,-1
 428 -178 l 2,88,89
 322 -178 322 -178 245 -155 c 0,90,91
 157 -129 157 -129 51 -76 c 0,92,93
 43 -72 43 -72 37 -64 c 0,11,12
EndSplineSet
Validated: 33
Ligature2: "'vatu' Vattu Variants lookup 10-1" u11336 uE204
LCarets2: 2 0 0
Ligature2: "'akhn' Akhand lookup 0 subtable" u11336 u1134D u11330
EndChar

StartChar: uE111
Encoding: 57617 57617 35
Width: 890
Flags: MW
LayerCount: 2
Fore
SplineSet
139 51 m 1,0,1
 139 35 139 35 110.5 35 c 131,-1,2
 82 35 82 35 82 51 c 2,3,-1
 82 386 l 2,4,5
 82 396 82 396 95 401 c 1,6,7
 101 409 101 409 113 410 c 5,8,-1
 366 410 l 6,9,10
 376 410 376 410 381.5 402.5 c 128,-1,11
 387 395 387 395 387 387 c 259,12,13
 387 379 387 379 381.5 372 c 128,-1,14
 376 365 376 365 366 365 c 2,15,-1
 292 365 l 1,16,-1
 292 268 l 1,17,18
 319 278 319 278 351 278 c 2,19,20
 362 278 l 2,21,22
 456 278 456 278 487 226 c 24,23,24
 499 206 499 206 499 167 c 3,25,26
 499 141 499 141 491 124 c 24,27,28
 477 95 477 95 477 79 c 3,29,30
 477 57 477 57 488 46 c 0,31,32
 493 41 493 41 504 41 c 3,33,34
 506 41 506 41 523 43 c 24,35,36
 536 45 536 45 550 54 c 0,37,38
 590 81 590 81 590 120 c 2,39,40
 590 126 l 2,41,42
 590 162 590 162 571 181 c 0,43,44
 568 184 568 184 583 196.5 c 128,-1,45
 598 209 598 209 609 204 c 0,46,47
 627 194 627 194 640 165 c 0,48,49
 649 144 649 144 657.5 118.5 c 0,50,51
 671 77 671 77 677 69 c 0,52,53
 700 43 700 43 726 43 c 3,54,55
 751.019992006 43 751.019992006 43 769 72 c 0,56,57
 784 95 784 95 784 138 c 3,58,59
 784 162.705882353 784 162.705882353 778 192 c 24,60,61
 770 232 770 232 736 248 c 0,62,63
 722 255 722 255 703 255 c 3,64,65
 682.272727273 255 682.272727273 255 670 258 c 24,66,67
 651 263 651 263 661.5 280.5 c 0,68,69
 670 295 670 295 693 295 c 3,70,71
 742.010203019 295 742.010203019 295 793 254 c 0,72,73
 839 217 839 217 840 137 c 3,74,75
 840 127 840 127 839 118 c 0,76,77
 834 80 834 80 819 54 c 24,78,79
 794.919447463 16.1877113523 794.919447463 16.1877113523 758 5 c 0,80,81
 743 0 743 0 729 0 c 3,82,83
 708 0 708 0 685 10 c 0,84,85
 647 26 647 26 621 66 c 1,86,87
 604 38 604 38 578 19.5 c 128,-1,88
 552 1 552 1 520 0 c 2,89,-1
 513 0 l 2,90,91
 468 0 468 0 446 14 c 0,92,93
 422 29 422 29 413 57 c 0,94,95
 410 66 410 66 410 75 c 3,96,97
 410 95 410 95 426 116 c 0,98,99
 440 135 440 135 440 164 c 3,100,101
 440 196 440 196 418 214 c 0,102,103
 398 230 398 230 372 236 c 0,104,105
 364 238 364 238 355 238 c 3,106,107
 341 238 341 238 322 230 c 0,108,109
 292 218 292 218 292 185 c 26,110,-1
 292 157 l 2,111,112
 292 143 292 143 279.5 139.5 c 0,113,114
 268 136 268 136 254.5 135.5 c 0,115,116
 241 136 241 136 230.5 144 c 0,117,118
 220 151 220 151 220 162 c 2,119,-1
 220 365 l 1,120,-1
 138 365 l 1,121,-1
 138 51 l 1,122,-1
 139 51 l 1,0,1
EndSplineSet
Position2: "Single Position lookup 0-1" dx=0 dy=0 dh=-410 dv=0 [ddx={} ddy={} ddh={} ddv={}]
LCarets2: 2 0 0
Ligature2: "'akhn' Akhand lookup 0 subtable" u11328 u1134D u11327
EndChar

StartChar: uE112
Encoding: 57618 57618 36
Width: 659
Flags: MW
LayerCount: 2
Fore
SplineSet
114 54 m 1,0,1
 114 38 114 38 85.5 38 c 128,-1,2
 57 38 57 38 57 54 c 2,3,-1
 57 384 l 6,4,5
 57 394 57 394 70 399 c 5,6,7
 76 407 76 407 88 408 c 5,8,-1
 341 408 l 6,9,10
 351 408 351 408 356.5 400.5 c 132,-1,11
 362 393 362 393 362 385 c 135,-1,12
 362 377 362 377 356.5 370 c 132,-1,13
 351 363 351 363 341 363 c 6,14,-1
 267 363 l 5,15,-1
 267 271 l 1,16,17
 299 282 299 282 330 282 c 3,18,19
 363 282 363 282 403.5 266.5 c 0,20,21
 439 253 439 253 460.5 225 c 128,-1,22
 482 197 482 197 482 167 c 3,23,24
 482 95 482 95 406 49 c 1,25,-1
 550 49 l 1,26,-1
 550 258 l 2,27,28
 550 283 550 283 575 283 c 3,29,30
 603 283 603 283 603 262 c 2,31,-1
 603 0 l 1,32,-1
 194 0 l 2,33,34
 176 0 176 0 175 22 c 0,35,36
 175 49 175 49 192 49 c 2,37,-1
 210 49 l 2,38,39
 341 49 341 49 395 117 c 0,40,41
 412 138 412 138 412 165 c 3,42,43
 412 188 412 188 392.5 211 c 0,44,45
 373 233 373 233 347 239 c 0,46,47
 339 241 339 241 330 241 c 3,48,49
 318 241 318 241 298 233 c 0,50,51
 267 221 267 221 267 188 c 2,52,-1
 267 160 l 2,53,54
 267 148 267 148 254.5 142.5 c 0,55,56
 246 139 246 139 229.5 138.5 c 0,57,58
 219 138 219 138 205.5 147 c 0,59,60
 195 154 195 154 195 165 c 2,61,-1
 195 363 l 5,62,-1
 113 363 l 5,63,-1
 113 54 l 1,64,-1
 114 54 l 1,0,1
EndSplineSet
Position2: "Single Position lookup 0-1" dx=0 dy=0 dh=-240 dv=0 [ddx={} ddy={} ddh={} ddv={}]
LCarets2: 2 0 0
Ligature2: "'akhn' Akhand lookup 0 subtable" u11328 u1134D u11335
EndChar

StartChar: uE113
Encoding: 57619 57619 37
Width: 834
Flags: MW
LayerCount: 2
Fore
SplineSet
547 194 m 3,0,1
 547 199.333007812 547 199.333007812 546 211 c 2,2,-1
 543 246 l 1,3,-1
 433 246 l 2,4,5
 426 246 426 246 405 210 c 0,6,7
 400 202 400 202 400 190 c 27,8,9
 400 172 400 172 410 157 c 24,10,11
 426 132 426 132 443 125 c 0,12,13
 450 122 450 122 464 122 c 3,14,15
 480 122 480 122 503 126 c 24,16,17
 547 134 547 134 547 194 c 3,0,1
463 376 m 1,18,-1
 463 293 l 1,19,-1
 543 293 l 1,20,-1
 543 376 l 1,21,-1
 463 376 l 1,18,-1
357 397 m 3,22,23
 357 374 357 374 321 374 c 2,24,-1
 306 374 l 1,25,-1
 306 293 l 1,26,-1
 405 293 l 1,27,-1
 405 401 l 2,28,29
 405 410 405 410 417.5 415 c 0,30,31
 432 421 432 421 445 421 c 2,32,-1
 624 421 l 2,33,34
 641 421 641 421 650 413 c 0,35,36
 660 405 660 405 660 396 c 3,37,38
 660 390 660 390 654 383 c 0,39,40
 647 376 647 376 632 376 c 2,41,-1
 617 376 l 1,42,-1
 617 293 l 1,43,44
 629 293 l 2,45,46
 702 293 702 293 743 247 c 0,47,48
 794 189 794 189 794 134 c 3,49,50
 794 39 794 39 697 10 c 0,51,52
 663 0 663 0 579 0 c 2,53,54
 408 0 l 2,55,56
 320 0 320 0 310 -11 c 0,57,58
 308 -13 308 -13 308 -16 c 3,59,60
 308 -27 308 -27 333 -46 c 0,61,62
 341 -52 341 -52 341 -60 c 3,63,64
 341 -70.0498756211 341 -70.0498756211 328 -81 c 0,65,66
 318.247548784 -91.5 318.247548784 -91.5 305.5 -91.5 c 131,-1,67
 292.752451216 -91.5 292.752451216 -91.5 283.5 -86.5 c 0,68,69
 264 -82.4012194669 264 -82.4012194669 264 -66 c 3,70,71
 249 -48.0670340542 249 -48.0670340542 249 -27 c 3,72,73
 249 -20 249 -20 251 -13 c 0,74,75
 256 1 256 1 270 11 c 0,76,77
 308 40 308 40 409 40 c 2,78,-1
 545 40 l 2,79,80
 675.714285714 40 675.714285714 40 717 91 c 0,81,82
 734 112 734 112 734 145 c 2,83,-1
 734 156 l 2,84,85
 734 188 734 188 704 218 c 0,86,87
 695 227 695 227 668 239 c 0,88,89
 652 246 652 246 623 246 c 2,90,-1
 617 246 l 1,91,92
 622 210 622 210 622 195 c 3,93,94
 622 191 622 191 622 187 c 3,95,96
 622 122 622 122 579 94 c 0,97,98
 550 75 550 75 504 75 c 3,99,100
 428 75 428 75 417 81 c 0,101,102
 349 118 349 118 349 160 c 3,103,104
 349 233 349 233 383 246 c 1,105,-1
 306 246 l 1,106,-1
 306 184 l 2,107,108
 306 65 306 65 264 43 c 0,109,110
 256 39 256 39 247 39 c 3,111,112
 236 39 236 39 226 43 c 0,113,114
 206 53 206 53 193 73 c 1,115,116
 178 41 178 41 148 41 c 3,117,118
 97 41 97 41 60 99 c 0,119,120
 41 129 41 129 41 163 c 2,121,-1
 41 171 l 2,122,123
 41 245 41 245 129 285 c 1,124,-1
 129 398 l 2,125,126
 129 404 129 404 132.5 407 c 128,-1,127
 136 410 136 410 141 411 c 1,128,129
 144 420 144 420 153 420 c 2,130,-1
 325 420 l 2,131,132
 340 420 340 420 348.5 412.5 c 128,-1,133
 357 405 357 405 357 397 c 3,22,23
207 152 m 28,134,135
 214 95 214 95 228 95 c 0,136,137
 234 95 234 95 240 115 c 0,138,139
 246 134 246 134 246 147 c 2,140,-1
 246 246 l 1,141,-1
 153 246 l 1,142,143
 113 228 113 228 99 204 c 0,144,145
 87 182 87 182 87 161 c 3,146,147
 87 138 87 138 102 117 c 0,148,149
 113 102 113 102 128.5 97 c 128,-1,150
 144 92 144 92 157 106 c 0,151,152
 168 119 168 119 168 152 c 2,153,-1
 168 168 l 2,154,155
 168 195 168 195 183.5 195 c 3,156,157
 201 195 201 195 202.5 189.5 c 4,158,159
 203 187 203 187 207 152 c 28,134,135
177 374 m 1,160,-1
 177 293 l 1,161,-1
 246 293 l 1,162,-1
 246 374 l 1,163,-1
 177 374 l 1,160,-1
EndSplineSet
LCarets2: 2 0 0
Ligature2: "'akhn' Akhand lookup 0 subtable" u11315 u1134D u11324
EndChar

StartChar: uE114
Encoding: 57620 57620 38
Width: 854
Flags: MW
LayerCount: 2
Fore
SplineSet
583 63 m 1,0,1
 621.414634146 6.03961325396e-14 621.414634146 6.03961325396e-14 683 0 c 0,2,3
 733.152777778 0 733.152777778 0 766.5 49 c 0,4,5
 792 86 792 86 792 128 c 128,-1,6
 792 170 792 170 781 205 c 0,7,8
 768.181299151 251.28184347 768.181299151 251.28184347 723 269 c 0,9,10
 698 279 698 279 680.5 279 c 128,-1,11
 663 279 663 279 648 276 c 128,-1,12
 633 273 633 273 619.5 256 c 128,-1,13
 606 239 606 239 606 214 c 2,14,-1
 606 210 l 2,15,16
 606 193 606 193 620.5 176.5 c 128,-1,17
 635 160 635 160 656.496875488 149.75 c 128,-1,18
 677.993750976 139.5 677.993750976 139.5 698 139.5 c 128,-1,19
 718.006249024 139.5 718.006249024 139.5 734 151 c 1,20,-1
 734 140 l 2,21,22
 734 94 734 94 719 68 c 128,-1,23
 704 42 704 42 681 42 c 128,-1,24
 658 42 658 42 635 66 c 0,25,26
 600 100 600 100 600 146 c 0,27,28
 600 151 600 151 598 156 c 24,29,30
 589 178 589 178 565 193 c 0,31,32
 557 198 557 198 541.5 186.5 c 128,-1,33
 526 175 526 175 530 171 c 0,34,35
 548 153 548 153 548 125 c 0,36,37
 548 54.6 548 54.6 490 43 c 24,38,39
 480 41 480 41 473 41 c 0,40,41
 446 41 446 41 446 66 c 0,42,43
 446 120 446 120 472 172 c 16,44,45
 475 178 475 178 475 189 c 128,-1,46
 475 200 475 200 460 220 c 128,-1,47
 445 240 445 240 410.5 254 c 128,-1,48
 376 268 376 268 343 268 c 2,49,-1
 333 268 l 2,50,51
 301 268 301 268 273 257 c 1,52,-1
 273 354 l 1,53,-1
 347 354 l 2,54,55
 357 354 357 354 362.5 361 c 128,-1,56
 368 368 368 368 368 376 c 128,-1,57
 368 384 368 384 362.5 391.5 c 128,-1,58
 357 399 357 399 347 399 c 2,59,-1
 94 399 l 2,60,61
 82 399 82 399 76 390 c 1,62,63
 63 385 63 385 63 375 c 2,64,-1
 63 40 l 2,65,66
 63 24 63 24 91 24 c 128,-1,67
 119 24 119 24 119 40 c 2,68,-1
 119 354 l 1,69,-1
 201 354 l 1,70,-1
 201 151 l 2,71,72
 201 142 201 142 211.495371957 133.25 c 128,-1,73
 221.990743914 124.5 221.990743914 124.5 235.5 124.5 c 128,-1,74
 249.009256086 124.5 249.009256086 124.5 260.5 128 c 0,75,76
 272 133 272 133 273 149 c 5,77,-1
 273 174 l 2,78,79
 273 208 273 208 303 220 c 0,80,81
 320 227 320 227 334.5 227 c 0,82,83
 371.774193548 227 371.774193548 227 391.387096774 208 c 128,-1,84
 411 189 411 189 411 166 c 0,85,86
 411 159 411 159 392 112 c 0,87,88
 386 97 386 97 386 76.5 c 128,-1,89
 386 56 386 56 390 43 c 128,-1,90
 394 30 394 30 416.5 15 c 128,-1,91
 439 0 439 0 481 0 c 2,92,-1
 487 0 l 2,93,94
 542 0 542 0 583 63 c 1,0,1
716 226 m 0,95,96
 724 215 724 215 718 197 c 0,97,98
 712 178 712 178 686 177 c 1,99,-1
 681 177 l 2,100,101
 658 177 658 177 652 186 c 0,102,103
 644 196 644 196 644 212 c 0,104,105
 644 226 644 226 654.5 234.5 c 0,106,107
 664.992648648 242.5 664.992648648 242.5 682 242.5 c 0,108,109
 705.005434141 242.5 705.005434141 242.5 716 226 c 0,95,96
EndSplineSet
Position2: "Single Position lookup 0-1" dx=0 dy=0 dh=-410 dv=0 [ddx={} ddy={} ddh={} ddv={}]
LCarets2: 2 0 0
Ligature2: "'akhn' Akhand lookup 0 subtable" u11328 u1134D u11325
EndChar

StartChar: uE115
Encoding: 57621 57621 39
Width: 854
Flags: MW
LayerCount: 2
Fore
SplineSet
214 165 m 1024,0,-1
117 191 m 3,2,3
 117 133.921107229 117 133.921107229 150 118 c 0,4,5
 163 111 163 111 179 111 c 3,6,7
 209 111 209 111 218 137 c 0,8,9
 219 140 219 140 219 143 c 3,10,11
 219 154 219 154 211 170 c 0,12,13
 201 190 201 190 184 202.5 c 0,14,15
 167 216 167 216 152.5 216.5 c 0,16,17
 135 216 135 216 128.5 211 c 0,18,19
 117 203.041594579 117 203.041594579 117 191 c 3,2,3
735 113 m 1,20,-1
 735 226 l 1,21,22
 710 208 710 208 630 200 c 1,23,-1
 586 113 l 1,24,-1
 735 113 l 1,20,-1
433 238 m 3,25,26
 433 146 433 146 384 113 c 1,27,-1
 526 113 l 1,28,-1
 570 200 l 1,29,30
 525 205 525 205 509.5 230 c 128,-1,31
 494 255 494 255 494 307 c 2,32,-1
 494 312 l 2,33,34
 494 340 494 340 509 359 c 0,35,36
 532 390 532 390 569 390 c 3,37,38
 576 390 576 390 583 389 c 0,39,40
 630 382 630 382 651 328 c 0,41,42
 661 302 661 302 653 262 c 26,43,-1
 649 242 l 1,44,45
 683 251 683 251 726 285 c 0,46,47
 735 292 735 292 735 293 c 0,48,49
 735 303 735 303 756.5 303 c 131,-1,50
 778 303 778 303 783.5 298.5 c 0,51,52
 791 292 791 292 791 286 c 2,53,-1
 791 72 l 1,54,-1
 565 72 l 1,55,-1
 520 -16 l 24,56,-1
 795 -16 l 2,57,58
 809 -16 809 -16 809 -38 c 131,-1,59
 809 -60 809 -60 795 -60 c 2,60,-1
 653 -60 l 1,61,-1
 653 -110 l 2,62,63
 653 -128 653 -128 627.5 -128 c 131,-1,64
 602 -128 602 -128 602 -110 c 2,65,-1
 602 -60 l 1,66,-1
 460 -60 l 2,67,68
 437.363636364 -60 437.363636364 -60 443 -49 c 2,69,-1
 505 72 l 1,70,-1
 290 72 l 5,71,-1
 290 113 l 1,72,-1
 311 113 l 2,73,74
 340.811320755 113 340.811320755 113 352.5 142.5 c 0,75,76
 363 169 363 169 363 221 c 131,-1,77
 363 273 363 273 348 296 c 0,78,79
 316 349 316 349 262 349 c 2,80,-1
 254 349 l 2,81,82
 229 349 229 349 208 340 c 0,83,84
 180 328 180 328 160.5 308 c 128,-1,85
 141 288 141 288 126 246 c 1,86,87
 138 249 138 249 149 249 c 3,88,89
 167 249 167 249 184 242 c 0,90,91
 232 223 232 223 253 181 c 0,92,93
 264 159 264 159 264 144 c 3,94,95
 264 137 264 137 262 130 c 0,96,97
 246 81 246 81 184 73 c 0,98,99
 176 72 176 72 168 72 c 3,100,101
 118 72 118 72 85 122 c 0,102,103
 69 147 69 147 69 197 c 2,104,-1
 69 203 l 2,105,106
 69 312 69 312 164 369 c 0,107,108
 205 394 205 394 248 394 c 2,109,-1
 260 394 l 2,110,111
 349 394 349 394 402 327 c 0,112,113
 433 288 433 288 433 238 c 3,25,26
600 262 m 24,114,115
 603 271 603 271 603 283 c 3,116,117
 603 309.076809621 603 309.076809621 596 326 c 0,118,119
 588 350 588 350 577 355 c 256,120,121
 566 360 566 360 555 347.5 c 0,122,123
 540 331 540 331 540 305 c 27,124,125
 540 277 540 277 554.5 257.5 c 0,126,127
 567 242 567 242 590 239 c 1,128,-1
 600 262 l 24,114,115
EndSplineSet
Position2: "Single Position lookup 0-1" dx=0 dy=0 dh=-50 dv=0 [ddx={} ddy={} ddh={} ddv={}]
LCarets2: 2 0 0
Ligature2: "'akhn' Akhand lookup 0 subtable" u11337 u1134D u1131F
EndChar

StartChar: uE116
Encoding: 57622 57622 40
Width: 1228
Flags: MW
LayerCount: 2
Fore
SplineSet
474 347 m 1,0,-1
 474 272 l 1,1,-1
 553 272 l 1,2,-1
 553 347 l 1,3,-1
 474 347 l 1,0,-1
834 111 m 0,4,5
 825 149 825 149 804.5 167.5 c 0,6,7
 779 190 779 190 743 203 c 1,8,9
 727 174 727 174 727 128 c 131,-1,10
 727 82 727 82 746 62 c 0,11,12
 764 42 764 42 788 42 c 3,13,14
 808 42 808 42 822 55.5 c 128,-1,15
 836 69 836 69 836 90 c 0,16,17
 836 100 836 100 834 111 c 0,4,5
216 200 m 2,18,-1
 216 203 l 2,19,20
 216 231 216 231 198 244 c 0,21,22
 183.142578125 256 183.142578125 256 160 256 c 3,23,24
 139 256 139 256 122 242.5 c 0,25,26
 106 230 106 230 106 203 c 2,27,-1
 106 200 l 2,28,29
 106 180 106 180 123 168 c 0,30,31
 143 154 143 154 161 154 c 2,32,-1
 166 154 l 2,33,34
 184 154 184 154 199 164 c 0,35,36
 216 174 216 174 216 200 c 2,18,-1
517 70 m 0,37,38
 551 78 551 78 556 118 c 0,39,40
 557 128 557 128 557 140 c 131,-1,41
 557 152 557 152 556 166 c 0,42,43
 554 192 554 192 553 217 c 1,44,-1
 451 217 l 1,45,46
 411 203 411 203 398 175 c 0,47,48
 390 159 390 159 390 143 c 3,49,50
 390 131 390 131 394 120 c 0,51,52
 404 94 404 94 436 78 c 0,53,54
 454.980007994 68 454.980007994 68 480 68 c 3,55,56
 506.915114463 68 506.915114463 68 517 70 c 0,37,38
517 0 m 3,57,58
 446 0 446 0 402.5 25.5 c 0,59,60
 358 51 358 51 342 88 c 0,61,62
 332 111 332 111 332 137 c 3,63,64
 332 151 332 151 336 166 c 0,65,66
 346 207 346 207 382 237 c 1,67,68
 365 274 365 274 329.5 303.5 c 128,-1,69
 294 333 294 333 255 346 c 0,70,71
 232 354 232 354 211 354 c 3,72,73
 195 354 195 354 179 350 c 0,74,75
 142 340 142 340 121 300 c 1,76,77
 139 304 139 304 156 304 c 3,78,79
 191 304 191 304 222 287 c 0,80,81
 272 260 272 260 272 203 c 2,82,-1
 272 200 l 2,83,84
 272 137 272 137 212 108 c 0,85,86
 185 95 185 95 153 95 c 3,87,88
 125 95 125 95 98 106 c 0,89,90
 37 133 37 133 37 200 c 2,91,-1
 37 206 l 2,92,93
 37 327 37 327 125 376 c 0,94,95
 165 398 165 398 205 398 c 2,96,-1
 219 398 l 2,97,98
 258 398 258 398 290 388 c 0,99,100
 381 359 381 359 419 295 c 1,101,-1
 419 383 l 2,102,103
 419 395 419 395 430 398 c 0,104,105
 450 402 450 402 457 402 c 2,106,-1
 649 402 l 2,107,108
 667 402 667 402 676 392 c 0,109,110
 683 383 683 383 683 373.5 c 131,-1,111
 683 364 683 364 673.5 355.5 c 0,112,113
 665 347 665 347 651 347 c 2,114,-1
 623 347 l 1,115,-1
 623 270 l 1,116,117
 672 266 672 266 714 257 c 1,118,119
 764 318 764 318 844 327 c 0,120,121
 862 329 862 329 880 329 c 3,122,123
 940 329 940 329 986 300 c 0,124,125
 1056 255 1056 255 1056 178 c 2,126,127
 1056 165 l 2,128,129
 1056 91 1056 91 1001 48 c 1,130,-1
 1123 48 l 1,131,-1
 1123 379 l 2,132,133
 1123 387 1123 387 1133.5 395 c 0,134,135
 1142.80196097 404 1142.80196097 404 1153 404 c 135,-1,136
 1163.19803903 404 1163.19803903 404 1172 401.5 c 0,137,138
 1181 397 1181 397 1181 387 c 2,139,-1
 1181 0 l 1,140,-1
 907 0 l 1,141,-1
 907 48 l 1,142,143
 934 48 934 48 949.5 64.5 c 0,144,145
 966 80 966 80 972 102 c 0,146,147
 980 129 980 129 980 151 c 2,148,-1
 980 177 l 2,149,150
 980 221 980 221 954.5 248.5 c 128,-1,151
 929 276 929 276 896 284 c 0,152,153
 881 288 881 288 866 288 c 3,154,155
 848 288 848 288 828 282 c 0,156,157
 792 272 792 272 766 240 c 1,158,159
 847 201 847 201 873 123 c 24,160,161
 879 105 879 105 879 89 c 3,162,163
 879 76 879 76 875 64 c 0,164,165
 866 35 866 35 845.5 19.5 c 0,166,167
 826 5 826 5 798 1 c 0,168,169
 792 0 792 0 785 0 c 3,170,171
 764 0 764 0 744 9 c 0,172,173
 721 20 721 20 698 51 c 0,174,175
 674 84 674 84 674 130 c 3,176,177
 674 180 674 180 690 217 c 1,178,179
 658 223 658 223 631 223 c 2,180,-1
 623 223 l 1,181,182
 625 196 625 196 628 158 c 0,183,184
 629 148 629 148 629 137 c 3,185,186
 629 110 629 110 623 84 c 0,187,188
 615 48 615 48 591.5 24 c 128,-1,189
 568 0 568 0 517 0 c 3,57,58
EndSplineSet
LCarets2: 4 0 0 0 0
Ligature2: "'akhn' Akhand lookup 0 subtable" u11328 u1134D u11324 u1134D u11335
EndChar

StartChar: uE200
Encoding: 57856 57856 41
Width: 404
Flags: MW
LayerCount: 2
Fore
SplineSet
61 54 m 6,0,-1
 177 54 l 1,1,2
 178 76 178 76 190.5 132 c 128,-1,3
 203 188 203 188 208.5 207.5 c 152,-1,4
 214 227 214 227 242 315 c 0,5,6
 254 352 254 352 253.5 398 c 128,-1,7
 253 444 253 444 231 477.5 c 128,-1,8
 209 511 209 511 164 542 c 25,9,-1
 132 549 l 25,10,11
 124 556 124 556 124 566 c 0,12,13
 123 589 123 589 139 590 c 0,14,15
 142 590 142 590 178 576 c 0,16,17
 216 562 216 562 240.5 540.5 c 128,-1,18
 265 519 265 519 283 485.5 c 128,-1,19
 301 452 301 452 301 408 c 128,-1,20
 301 364 301 364 296 331 c 0,21,22
 291 297 291 297 269.5 225 c 128,-1,23
 248 153 248 153 244 122.5 c 128,-1,24
 240 92 240 92 232 53 c 1,25,26
 284 50 284 50 316 31 c 0,27,28
 374 -3.17857142857 374 -3.17857142857 374 -74 c 0,29,30
 374 -141.266666667 374 -141.266666667 322 -169 c 0,31,32
 307 -177 307 -177 285 -177 c 0,33,34
 277 -177 277 -177 269 -176 c 8,35,36
 236 -172 236 -172 221.5 -160 c 128,-1,37
 207 -148 207 -148 196 -124 c 0,38,39
 177 -83 177 -83 177 2 c 1,40,-1
 55 2 l 2,41,42
 32 2 32 2 19 11.5 c 128,-1,43
 6 21 6 21 6 30 c 128,-1,44
 6 39 6 39 20.5 46.5 c 128,-1,45
 35 54 35 54 61 54 c 6,0,-1
288 -124 m 1,46,47
 310 -124 310 -124 322 -109 c 0,48,49
 330 -98 330 -98 330 -84 c 0,50,51
 330 -78 330 -78 328 -72 c 0,52,53
 324 -50 324 -50 299 -29 c 128,-1,54
 274 -8 274 -8 225 0 c 1,55,56
 225 -48 225 -48 230 -83 c 128,-1,57
 235 -118 235 -118 263 -121 c 2,58,-1
 288 -124 l 1,46,47
EndSplineSet
Validated: 33
Substitution2: "Marker rearrangement single substitution 7-1" u1134D
Substitution2: "Marker rearrangement single substitution 6-1" u11340
Substitution2: "Marker rearrangement single substitution 3-1" u1133F
LCarets2: 1 0
Ligature2: "'rphf' Reph Form lookup 2 subtable" u11330 u1134D
EndChar

StartChar: uE201
Encoding: 57857 57857 42
Width: 407
Flags: MW
LayerCount: 2
Fore
SplineSet
159 478 m 1,0,1
 159 510 159 510 186 510 c 0,2,3
 218 510 218 510 225 499 c 0,4,5
 364 313 364 313 366 104 c 0,6,7
 366 5 366 5 354 -57 c 152,-1,8
 342 -119 342 -119 314 -153.5 c 128,-1,9
 286 -188 286 -188 256 -200 c 0,10,11
 234 -209 234 -209 213 -209 c 0,12,13
 205 -209 205 -209 196 -208 c 0,14,15
 167 -203 167 -203 145 -185 c 128,-1,16
 123 -167 123 -167 123 -138 c 128,-1,17
 123 -109 123 -109 135 -74 c 25,18,-1
 151 -51 l 25,19,20
 165 -22 165 -22 165 2 c 128,-1,21
 165 26 165 26 152 41 c 128,-1,22
 139 56 139 56 119 62 c 0,23,24
 112 64 112 64 105 63 c 0,25,26
 92 63 92 63 78 57 c 1,27,-1
 72 33 l 1,28,29
 63 26 63 26 49.5 26 c 128,-1,30
 36 26 36 26 34 35 c 0,31,32
 30 51 30 51 29 52 c 0,33,34
 29 60 29 60 49 72 c 0,35,36
 79 90 79 90 109.5 90 c 128,-1,37
 140 90 140 90 160 80 c 0,38,39
 208 58 208 58 208 7 c 0,40,41
 208 -20 208 -20 197 -56 c 16,42,43
 190 -79 190 -79 190 -98 c 0,44,45
 190 -108 190 -108 192 -116 c 0,46,47
 198 -140 198 -140 216 -147 c 0,48,49
 220 -149 220 -149 225 -149 c 0,50,51
 239 -149 239 -149 256 -135 c 0,52,53
 306 -96 306 -96 306 80 c 4,54,55
 306 192 306 192 299 244.5 c 128,-1,56
 292 297 292 297 264.5 360 c 128,-1,57
 237 423 237 423 196 452 c 2,58,-1
 159 478 l 1,0,1
EndSplineSet
Validated: 1
Substitution2: "Marker rearrangement single substitution 4-1" u11340
Substitution2: "Marker rearrangement single substitution 1-1" u1133F
LCarets2: 1 0
Ligature2: "'pstf' Post Base Forms lookup 3 subtable" u1134D u1132F
EndChar

StartChar: uE203
Encoding: 57859 57859 43
Width: 234
Flags: MW
LayerCount: 2
Fore
SplineSet
43 147 m 2,0,1
 32 147 32 147 25.5 155.5 c 128,-1,2
 19 164 19 164 19 174 c 256,3,4
 19 184 19 184 25 192.5 c 128,-1,5
 31 201 31 201 43 201 c 2,6,-1
 190 201 l 2,7,8
 201 201 201 201 207 192.5 c 128,-1,9
 213 184 213 184 213 174 c 256,10,11
 213 164 213 164 206.5 155.5 c 128,-1,12
 200 147 200 147 190 147 c 2,13,-1
 148 147 l 1,14,-1
 148 41 l 2,15,16
 148 -183 148 -183 12 -205 c 0,17,18
 -8 -208 -8 -208 -25 -208 c 0,19,20
 -29 -208 -29 -208 -34 -208 c 0,21,22
 -56 -207 -56 -207 -69.5 -207 c 128,-1,23
 -83 -207 -83 -207 -94.5 -200 c 128,-1,24
 -106 -193 -106 -193 -106 -184.5 c 128,-1,25
 -106 -176 -106 -176 -100 -170 c 0,26,27
 -97 -167 -97 -167 -87 -168 c 0,28,29
 -78 -168 -78 -168 -65 -170 c 128,-1,30
 -52 -172 -52 -172 -38 -172 c 0,31,32
 -22 -172 -22 -172 -5 -169 c 0,33,34
 60 -156 60 -156 84 -76 c 1,35,36
 90 -36 90 -36 90 36 c 2,37,-1
 90 147 l 1,38,-1
 43 147 l 2,0,1
EndSplineSet
EndChar

StartChar: uE204
Encoding: 57860 57860 44
Width: 235
Flags: MW
LayerCount: 2
Fore
SplineSet
-51 -284 m 0,0,1
 -51 -262 -51 -262 -20 -262.5 c 128,-1,2
 11 -263 11 -263 33 -246 c 128,-1,3
 55 -229 55 -229 73 -202.5 c 128,-1,4
 91 -176 91 -176 91 -112 c 2,5,-1
 91 147 l 1,6,-1
 44 147 l 2,7,8
 33 147 33 147 26.5 155.5 c 128,-1,9
 20 164 20 164 20 174 c 256,10,11
 20 184 20 184 26 192.5 c 128,-1,12
 32 201 32 201 44 201 c 2,13,-1
 191 201 l 2,14,15
 202 201 202 201 208 192.5 c 128,-1,16
 214 184 214 184 214 174 c 256,17,18
 214 164 214 164 208 155.5 c 128,-1,19
 202 147 202 147 191 147 c 2,20,-1
 149 147 l 1,21,-1
 149 37 l 2,22,23
 149 -174 149 -174 117 -230 c 4,24,25
 74 -308 74 -308 -13 -307 c 0,26,27
 -26 -307 -26 -307 -38.5 -299.5 c 128,-1,28
 -51 -292 -51 -292 -51 -284 c 0,0,1
EndSplineSet
LCarets2: 1 0
EndChar

StartChar: uE202
Encoding: 57858 57858 45
Width: 308
Flags: MW
LayerCount: 2
Fore
SplineSet
116 108 m 5,0,-1
 100 113 l 6,1,2
 97 113 97 113 89 108 c 132,-1,3
 81 103 81 103 81 95 c 4,4,5
 81 71 81 71 102 62 c 6,6,-1
 119 54 l 5,7,-1
 142 50 l 6,8,9
 147 48 147 48 173 52.5 c 132,-1,10
 199 57 199 57 214 80 c 4,11,12
 225 97 225 97 225.5 112.5 c 132,-1,13
 226 128 226 128 226 130 c 132,-1,14
 226 132 226 132 224.5 144.5 c 132,-1,15
 223 157 223 157 217 173 c 132,-1,16
 211 189 211 189 189.5 204 c 132,-1,17
 168 219 168 219 137 219 c 6,18,-1
 79 219 l 6,19,20
 74 219 74 219 70 227 c 132,-1,21
 66 235 66 235 66 243 c 4,22,23
 66 263 66 263 98 263 c 6,24,-1
 134 263 l 5,25,-1
 134 263 l 6,26,27
 140 263 140 263 147 263 c 4,28,29
 178 263 178 263 191 295 c 4,30,31
 197 308 197 308 197 327.5 c 132,-1,32
 197 347 197 347 188.5 359 c 132,-1,33
 180 371 180 371 170.5 375.5 c 132,-1,34
 161 380 161 380 154 380 c 132,-1,35
 147 380 147 380 136.5 378.5 c 132,-1,36
 126 377 126 377 116 367 c 132,-1,37
 106 357 106 357 106 351 c 132,-1,38
 106 345 106 345 107 340 c 5,39,-1
 79 312 l 5,40,41
 70 338 70 338 70 358 c 132,-1,42
 70 378 70 378 91.5 403 c 132,-1,43
 113 428 113 428 134 428 c 6,44,-1
 160 428 l 6,45,46
 203 428 203 428 228 375 c 4,47,48
 238 356 238 356 238 322.5 c 132,-1,49
 238 289 238 289 230.5 274 c 132,-1,50
 223 259 223 259 209 248 c 5,51,52
 253 235 253 235 271 183 c 4,53,54
 278 163 278 163 278 127.5 c 132,-1,55
 278 92 278 92 265 65 c 4,56,57
 234 0 234 0 152 0 c 6,58,-1
 146 0 l 6,59,60
 125 0 125 0 108.5 4.5 c 132,-1,61
 92 9 92 9 71.5 26.5 c 132,-1,62
 51 44 51 44 42 58.5 c 132,-1,63
 33 73 33 73 33 103 c 132,-1,64
 33 133 33 133 64 149 c 4,65,66
 83 160 83 160 99 160 c 132,-1,67
 115 160 115 160 132 152 c 5,68,69
 142 142 142 142 142 133 c 4,70,71
 142 114 142 114 123 109 c 4,72,73
 121 108 121 108 116 108 c 5,0,-1
EndSplineSet
Validated: 1
EndChar

StartChar: uE380
Encoding: 58240 58240 77
Width: 0
Flags: MW
LayerCount: 2
Fore
SplineSet
-75 -316 m 256,0,1
 -93 -316 -93 -316 -93 -303 c 2,2,-1
 -93 -250 l 1,3,-1
 -219 -250 l 1,4,5
 -231 -256 -231 -256 -239 -244 c 0,6,7
 -242 -240 -242 -240 -241.5 -234 c 128,-1,8
 -241 -228 -241 -228 -236 -225 c 0,9,10
 -220 -216 -220 -216 -211 -202 c 128,-1,11
 -202 -188 -202 -188 -204.5 -174.5 c 128,-1,12
 -207 -161 -207 -161 -220.5 -149.5 c 128,-1,13
 -234 -138 -234 -138 -262 -135 c 1,14,15
 -254 -154 -254 -154 -254 -180 c 0,16,17
 -254 -210 -254 -210 -263 -230 c 0,18,19
 -272 -248 -272 -248 -286 -250 c 0,20,21
 -287 -250 l 0,22,23
 -301 -250 -301 -250 -319 -218 c 1,24,-1
 -313 -226 l 1,25,-1
 -306 -220 l 1,26,-1
 -313 -226 l 1,27,28
 -323 -205 -323 -205 -323 -181 c 0,29,30
 -323 -177 -323 -177 -323 -172 c 0,31,32
 -321 -143 -321 -143 -317 -132 c 1,33,-1
 -344 -132 l 1,34,-1
 -344 -153 l 1,35,36
 -344 -158 -344 -158 -344 -163 c 0,37,38
 -344 -222 -344 -222 -366 -244 c 0,39,40
 -377 -254 -377 -254 -389 -249 c 128,-1,41
 -401 -244 -401 -244 -411 -220 c 1,42,43
 -422 -251 -422 -251 -445 -251 c 0,44,45
 -453 -251 -453 -251 -462 -247 c 0,46,47
 -477 -241 -477 -241 -489 -225.5 c 128,-1,48
 -501 -210 -501 -210 -503 -191 c 0,49,50
 -503 -187 -503 -187 -503 -183 c 0,51,52
 -503 -141 -503 -141 -453 -113 c 1,53,-1
 -453 -35 l 2,54,55
 -453 -32 -453 -32 -451 -30 c 0,56,57
 -449 -22 -449 -22 -437 -22 c 2,58,-1
 -333 -22 l 2,59,60
 -326 -22 -326 -22 -322 -26 c 128,-1,61
 -318 -30 -318 -30 -318.5 -34 c 128,-1,62
 -319 -38 -319 -38 -323 -41.5 c 128,-1,63
 -327 -45 -327 -45 -333 -45 c 2,64,-1
 -344 -45 l 1,65,-1
 -344 -108 l 1,66,-1
 -285 -108 l 1,67,-1
 -281 -110 l 1,68,69
 -212 -112 -212 -112 -188 -151 c 0,70,71
 -178 -167 -178 -167 -179 -185 c 0,72,73
 -179 -207 -179 -207 -193 -224 c 1,74,-1
 -93 -224 l 1,75,-1
 -93 -137 l 1,76,77
 -123 -137 -123 -137 -144.5 -124.5 c 128,-1,78
 -166 -112 -166 -112 -166 -84 c 128,-1,79
 -166 -56 -166 -56 -150 -38 c 128,-1,80
 -134 -20 -134 -20 -114 -19 c 0,81,82
 -113 -19 -113 -19 -112 -19 c 0,83,84
 -92 -18 -92 -18 -76 -36 c 0,85,86
 -58 -54 -58 -54 -57 -98 c 0,87,88
 -55 -100 -55 -100 -55 -102 c 2,89,-1
 -55 -110 l 1,90,-1
 -38 -98 l 1,91,92
 -38 -90 -38 -90 -32 -86.5 c 128,-1,93
 -26 -83 -26 -83 -18 -84 c 0,94,95
 0 -86 0 -86 0 -99 c 2,96,-1
 0 -237 l 2,97,98
 0 -250 0 -250 -20 -250 c 2,99,-1
 -55 -250 l 1,100,-1
 -55 -303 l 2,101,102
 -55 -316 -55 -316 -75 -316 c 256,0,1
-428 -176 m 1,103,-1
 -428 -166 l 1,104,105
 -424 -154 -424 -154 -413 -159 c 1,106,107
 -403 -156 -403 -156 -400 -163 c 0,108,109
 -396 -195 -396 -195 -390 -208 c 128,-1,110
 -384 -221 -384 -221 -380.5 -218.5 c 128,-1,111
 -377 -216 -377 -216 -376 -199 c 0,112,113
 -376 -196 -376 -196 -376 -193 c 0,114,115
 -376 -177 -376 -177 -380 -153 c 1,116,-1
 -380 -132 l 1,117,-1
 -433 -132 l 1,118,119
 -478 -156 -478 -156 -478 -186 c 0,120,121
 -478 -188 -478 -188 -478 -192 c 0,122,123
 -476 -206 -476 -206 -467 -214.5 c 128,-1,124
 -458 -223 -458 -223 -447.5 -223 c 0,125,126
 -436 -222 -436 -222 -430 -212 c 0,127,128
 -426 -206 -426 -206 -426 -194 c 0,129,130
 -426 -186 -426 -186 -428 -176 c 1,103,-1
-421 -45 m 1,131,-1
 -421 -108 l 1,132,-1
 -380 -108 l 1,133,-1
 -380 -45 l 1,134,-1
 -421 -45 l 1,131,-1
-93 -98 m 1,135,136
 -98 -61 -98 -61 -116 -50 c 1,137,138
 -124 -50 -124 -50 -132 -59.5 c 128,-1,139
 -140 -69 -140 -69 -139 -84 c 128,-1,140
 -138 -99 -138 -99 -125 -107.5 c 128,-1,141
 -112 -116 -112 -116 -93 -116 c 1,142,-1
 -93 -102 l 2,143,144
 -93 -99 -93 -99 -92 -98 c 1,145,-1
 -93 -98 l 1,135,136
-298 -213 m 1,146,-1
 -297 -212 l 1,147,-1
 -298 -213 l 1,148,149
 -286 -226 -286 -226 -280 -217 c 0,150,151
 -273 -207 -273 -207 -272 -188 c 0,152,153
 -272 -172 -272 -172 -277 -156 c 0,154,155
 -282 -138 -282 -138 -290 -137 c 0,156,157
 -303 -139 -303 -139 -306 -169 c 0,158,159
 -306 -175 -306 -175 -306 -180 c 0,160,161
 -306 -201 -306 -201 -298 -213 c 1,146,-1
-38 -129 m 1,162,-1
 -55 -134 l 1,163,-1
 -55 -224 l 1,164,-1
 -38 -224 l 1,165,-1
 -38 -129 l 1,162,-1
EndSplineSet
Validated: 37
Ligature2: "'blwf' Below Base Forms lookup 4 subtable" u1134D uE10C
EndChar

StartChar: uE381
Encoding: 58241 58241 78
Width: 85
Flags: MW
LayerCount: 2
Fore
SplineSet
-537 -101 m 2,0,1
 -537 -115 -537 -115 -523 -118 c 0,2,3
 -511 -120 -511 -120 -507 -105 c 1,4,-1
 -507 -102 l 2,5,6
 -507 -94 -507 -94 -512 -88.5 c 128,-1,7
 -517 -83 -517 -83 -522.5 -82.5 c 128,-1,8
 -528 -82 -528 -82 -533 -86 c 128,-1,9
 -538 -90 -538 -90 -538 -99 c 1,10,-1
 -537 -100 l 1,11,-1
 -537 -101 l 2,0,1
-196 -197 m 1,12,-1
 -230 -196 l 1,13,-1
 -230 -236 l 1,14,-1
 -196 -236 l 1,15,-1
 -196 -197 l 1,12,-1
-349 -226.5 m 128,-1,17
 -355 -220 -355 -220 -365.5 -220 c 128,-1,18
 -376 -220 -376 -220 -381 -224 c 1,19,-1
 -383 -224 l 1,20,21
 -384 -226 -384 -226 -390 -229 c 1,22,23
 -395 -239 -395 -239 -390.5 -250.5 c 128,-1,24
 -386 -262 -386 -262 -370.5 -262 c 128,-1,25
 -355 -262 -355 -262 -349 -255 c 128,-1,26
 -343 -248 -343 -248 -343 -240.5 c 128,-1,16
 -343 -233 -343 -233 -349 -226.5 c 128,-1,17
-210 -322 m 0,27,28
 -195 -322 -195 -322 -195 -298 c 0,29,30
 -195 -292 -195 -292 -196 -286 c 1,31,-1
 -196 -256 l 1,32,-1
 -242 -256 l 1,33,34
 -261 -260 -261 -260 -269 -271 c 128,-1,35
 -277 -282 -277 -282 -274 -293.5 c 128,-1,36
 -271 -305 -271 -305 -255 -313.5 c 128,-1,37
 -239 -322 -239 -322 -210 -322 c 0,27,28
-366 -281 m 0,38,39
 -404 -281 -404 -281 -411 -246 c 1,40,41
 -434 -261 -434 -261 -487 -266 c 0,42,43
 -489 -266 -489 -266 -491 -266 c 0,44,45
 -534 -264 -534 -264 -560 -242 c 0,46,47
 -574 -230 -574 -230 -573 -216 c 0,48,49
 -573 -205 -573 -205 -564 -193 c 0,50,51
 -543 -166 -543 -166 -477 -154 c 0,52,53
 -474 -152 -474 -152 -463 -152 c 2,54,-1
 -449 -152 l 1,55,56
 -368 -149 -368 -149 -329 -135.5 c 128,-1,57
 -290 -122 -290 -122 -288 -95 c 0,58,59
 -290 -71 -290 -71 -317 -62 c 0,60,61
 -330 -56 -330 -56 -343 -56 c 128,-1,62
 -356 -56 -356 -56 -368 -62 c 0,63,64
 -390 -74 -390 -74 -390 -109 c 0,65,66
 -390 -112 -390 -112 -390 -115 c 1,67,-1
 -391 -115 l 1,68,69
 -391 -124 -391 -124 -408 -123 c 128,-1,70
 -425 -122 -425 -122 -425 -113 c 0,71,72
 -425 -66 -425 -66 -464 -48 c 0,73,74
 -476 -42 -476 -42 -489 -43 c 0,75,76
 -493 -44 -493 -44 -497 -44 c 0,77,78
 -514 -46 -514 -46 -525 -59 c 1,79,80
 -508 -59 -508 -59 -494 -71 c 0,81,82
 -480 -84 -480 -84 -480 -100 c 0,83,84
 -480 -128 -480 -128 -505 -135 c 0,85,86
 -513 -137 -513 -137 -522 -137 c 0,87,88
 -534 -136 -534 -136 -548 -132 c 0,89,90
 -572 -124 -572 -124 -578 -105 c 0,91,92
 -579 -103 -579 -103 -579 -101 c 0,93,94
 -579 -58 -579 -58 -546 -38 c 0,95,96
 -523 -24 -523 -24 -496 -24 c 0,97,98
 -484 -24 -484 -24 -471 -27 c 0,99,100
 -429 -36 -429 -36 -407 -66 c 1,101,102
 -390 -33 -390 -33 -352 -26 c 0,103,104
 -343 -24 -343 -24 -334 -24 c 0,105,106
 -306 -24 -306 -24 -280 -40 c 0,107,108
 -246 -62 -246 -62 -246 -98 c 0,109,110
 -248 -146 -248 -146 -348 -164 c 0,111,112
 -400 -174 -400 -174 -464 -174 c 1,113,114
 -536 -192 -536 -192 -536 -215 c 0,115,116
 -536 -233 -536 -233 -491 -242 c 1,117,118
 -436 -242 -436 -242 -412 -216 c 1,119,-1
 -401 -207 l 2,120,121
 -399 -206 -399 -206 -397 -206 c 0,122,123
 -366 -173 -366 -173 -327 -173 c 0,124,125
 -326 -174 l 0,126,127
 -286 -174 -286 -174 -254 -198 c 1,128,-1
 -254 -173 l 1,129,-1
 -146 -173 l 2,130,131
 -125 -173 -125 -173 -125.5 -185 c 128,-1,132
 -126 -197 -126 -197 -149 -197 c 2,133,-1
 -163 -197 l 1,134,-1
 -163 -238 l 1,135,136
 -102 -244 -102 -244 -84 -286 c 0,137,138
 -78 -299 -78 -299 -77 -313 c 0,139,140
 -77 -339 -77 -339 -100 -364 c 0,141,142
 -137 -406 -137 -406 -212 -406 c 2,143,-1
 -213 -406 l 2,144,145
 -309 -406 -309 -406 -351 -355 c 0,146,147
 -365 -339 -365 -339 -365 -311 c 0,148,149
 -365 -303 -365 -303 -356 -303 c 128,-1,150
 -347 -303 -347 -303 -347 -311 c 0,151,152
 -347 -337 -347 -337 -331 -351.5 c 128,-1,153
 -315 -366 -315 -366 -288 -376 c 128,-1,154
 -261 -386 -261 -386 -223 -386 c 128,-1,155
 -185 -386 -185 -386 -164.5 -378 c 128,-1,156
 -144 -370 -144 -370 -131.5 -358 c 128,-1,157
 -119 -346 -119 -346 -115 -330.5 c 128,-1,158
 -111 -315 -111 -315 -114.5 -301.5 c 128,-1,159
 -118 -288 -118 -288 -130.5 -277 c 128,-1,160
 -143 -266 -143 -266 -163 -262 c 1,161,-1
 -163 -272 l 2,162,163
 -163 -300 -163 -300 -167 -314 c 0,164,165
 -176 -349 -176 -349 -210 -349 c 2,166,-1
 -212 -349 l 1,167,168
 -259 -348 -259 -348 -281 -326 c 0,169,170
 -297 -310 -297 -310 -297 -292 c 0,171,172
 -296 -286 -296 -286 -294 -278 c 0,173,174
 -286 -252 -286 -252 -255 -239 c 1,175,176
 -261 -216 -261 -216 -295 -198 c 0,177,178
 -313 -190 -313 -190 -329 -190 c 128,-1,179
 -345 -190 -345 -190 -360 -198 c 1,180,181
 -340 -200 -340 -200 -331 -213 c 128,-1,182
 -322 -226 -322 -226 -323 -241 c 128,-1,183
 -324 -256 -324 -256 -334.5 -268.5 c 128,-1,184
 -345 -281 -345 -281 -366 -281 c 0,38,39
EndSplineSet
Validated: 1
Ligature2: "'blwf' Below Base Forms lookup 4 subtable" u1134D uE109
EndChar

StartChar: uE382
Encoding: 58242 58242 79
Width: 0
Flags: MW
LayerCount: 2
Fore
SplineSet
-401 -83 m 1,0,-1
 -401 -124 l 1,1,-1
 -365 -124 l 1,2,-1
 -365 -83 l 1,3,-1
 -401 -83 l 1,0,-1
-574.5 -150.5 m 128,-1,5
 -583 -156 -583 -156 -583 -166.5 c 128,-1,6
 -583 -177 -583 -177 -574.5 -183.5 c 128,-1,7
 -566 -190 -566 -190 -555.5 -190 c 128,-1,8
 -545 -190 -545 -190 -537 -184.5 c 128,-1,9
 -529 -179 -529 -179 -529 -169 c 2,10,-1
 -529 -166 l 2,11,12
 -529 -155 -529 -155 -537 -149.5 c 128,-1,13
 -545 -144 -545 -144 -555.5 -144.5 c 128,-1,4
 -566 -145 -566 -145 -574.5 -150.5 c 128,-1,5
-214 -73 m 2,14,15
 -214 -59 -214 -59 -198 -59 c 128,-1,16
 -182 -59 -182 -59 -182 -70 c 2,17,-1
 -182 -269 l 1,18,19
 -180 -275 -180 -275 -182.5 -280.5 c 128,-1,20
 -185 -286 -185 -286 -193 -286 c 2,21,-1
 -578 -286 l 2,22,23
 -588 -286 -588 -286 -588 -274.5 c 128,-1,24
 -588 -263 -588 -263 -578 -263 c 2,25,-1
 -401 -263 l 1,26,27
 -344 -259 -344 -259 -323 -248 c 0,28,29
 -283 -227 -283 -227 -282 -197 c 0,30,31
 -283 -184 -283 -184 -295 -169.5 c 128,-1,32
 -307 -155 -307 -155 -330 -149 c 1,33,34
 -329 -166 -329 -166 -329 -178 c 0,35,36
 -329 -197 -329 -197 -332 -206 c 0,37,38
 -336 -221 -336 -221 -350 -231 c 128,-1,39
 -364 -241 -364 -241 -386 -241 c 1,40,-1
 -386 -240 l 1,41,42
 -417 -239 -417 -239 -437 -226 c 0,43,44
 -456 -212 -456 -212 -464 -194 c 0,45,46
 -468 -185 -468 -185 -468 -177 c 0,47,48
 -468 -168 -468 -168 -464 -158 c 0,49,50
 -456 -140 -456 -140 -433 -129 c 1,51,52
 -440 -112 -440 -112 -457 -101.5 c 128,-1,53
 -474 -91 -474 -91 -494 -90 c 0,54,55
 -497 -90 -497 -90 -499 -90 c 0,56,57
 -543 -90 -543 -90 -566 -124 c 1,58,59
 -560 -123 -560 -123 -555 -123 c 0,60,61
 -539 -123 -539 -123 -528 -130 c 0,62,63
 -502 -145 -502 -145 -502 -166 c 128,-1,64
 -502 -187 -502 -187 -519 -198.5 c 128,-1,65
 -536 -210 -536 -210 -559 -210 c 128,-1,66
 -582 -210 -582 -210 -599 -198.5 c 128,-1,67
 -616 -187 -616 -187 -616 -166 c 1,68,69
 -610 -113 -610 -113 -576 -90 c 0,70,71
 -545 -69 -545 -69 -506 -69 c 0,72,73
 -504 -69 -504 -69 -500 -69 c 0,74,75
 -458 -71 -458 -71 -427 -95 c 1,76,-1
 -427 -62 l 1,77,-1
 -317 -62 l 2,78,79
 -305 -62 -305 -62 -305 -72.5 c 128,-1,80
 -305 -83 -305 -83 -317 -83 c 2,81,-1
 -331 -83 l 1,82,-1
 -331 -124 l 1,83,84
 -293 -130 -293 -130 -272 -150.5 c 128,-1,85
 -251 -171 -251 -171 -250.5 -182.5 c 128,-1,86
 -250 -194 -250 -194 -250 -199 c 0,87,88
 -251 -245 -251 -245 -304 -263 c 1,89,-1
 -213 -263 l 1,90,91
 -214 -260 -214 -260 -214 -256 c 2,92,-1
 -214 -73 l 2,14,15
-382 -211 m 1,93,94
 -362 -208 -362 -208 -362 -180 c 0,95,96
 -362 -175 -362 -175 -363 -170 c 0,97,98
 -364 -160 -364 -160 -365 -148 c 1,99,-1
 -414 -148 l 1,100,101
 -434 -152 -434 -152 -441.5 -162.5 c 128,-1,102
 -449 -173 -449 -173 -444.5 -183.5 c 128,-1,103
 -440 -194 -440 -194 -424 -202 c 128,-1,104
 -408 -210 -408 -210 -382 -210 c 1,105,-1
 -382 -211 l 1,93,94
EndSplineSet
Validated: 1
Ligature2: "'blwf' Below Base Forms lookup 4 subtable" u1134D uE10A
EndChar

StartChar: uE383
Encoding: 58243 58243 80
Width: 0
Flags: MW
LayerCount: 2
Fore
SplineSet
-230 -96 m 0,0,1
 -270 -96 -270 -96 -270 -132 c 2,2,-1
 -270 -135 l 1,3,4
 -268 -161 -268 -161 -244 -168 c 0,5,6
 -229 -173 -229 -173 -218 -173 c 128,-1,7
 -207 -173 -207 -173 -201 -168 c 1,8,-1
 -169 -168 l 1,9,-1
 -174 -141 l 2,10,11
 -180 -114 -180 -114 -207 -102 c 0,12,13
 -220 -96 -220 -96 -230 -96 c 0,0,1
-249 -132 m 2,14,15
 -249 -117 -249 -117 -229 -117 c 0,16,17
 -220 -117 -220 -117 -211 -125 c 0,18,19
 -205 -133 -205 -133 -209 -142.5 c 128,-1,20
 -213 -152 -213 -152 -227 -152.5 c 128,-1,21
 -241 -153 -241 -153 -245 -147.5 c 128,-1,22
 -249 -142 -249 -142 -249 -133 c 2,23,-1
 -249 -132 l 2,14,15
-524 -41 m 2,24,25
 -544 -41 -544 -41 -544 -51 c 2,26,-1
 -544 -110 l 1,27,28
 -580 -122 -580 -122 -588 -156 c 0,29,30
 -590 -164 -590 -164 -591 -172 c 0,31,32
 -590 -196 -590 -196 -570 -218 c 0,33,34
 -544 -248 -544 -248 -494 -248 c 0,35,36
 -449 -248 -449 -248 -437 -204 c 0,37,38
 -433 -189 -433 -189 -433 -172 c 0,39,40
 -433 -169 -433 -169 -433 -165 c 2,41,-1
 -435 -131 l 1,42,43
 -431 -131 -431 -131 -427 -131 c 0,44,45
 -398 -131 -398 -131 -384 -144 c 0,46,47
 -375 -152 -375 -152 -375 -164 c 0,48,49
 -375 -173 -375 -173 -380 -185 c 0,50,51
 -385 -190 -385 -190 -389 -201 c 128,-1,52
 -393 -212 -393 -212 -390 -223 c 0,53,54
 -381 -248 -381 -248 -338 -248 c 0,55,56
 -336 -248 -336 -248 -335 -248 c 1,57,-1
 -336 -249 l 1,58,59
 -306 -248 -306 -248 -283 -215 c 1,60,61
 -270 -236 -270 -236 -250 -244 c 0,62,63
 -239 -248 -239 -248 -228 -248 c 0,64,65
 -220 -248 -220 -248 -213 -246 c 0,66,67
 -195 -240 -195 -240 -182 -220 c 128,-1,68
 -169 -200 -169 -200 -169 -168 c 1,69,-1
 -201 -168 l 1,70,71
 -200 -175 -200 -175 -200 -181 c 0,72,73
 -200 -200 -200 -200 -208 -211 c 0,74,75
 -218 -226 -218 -226 -230 -226.5 c 128,-1,76
 -242 -227 -242 -227 -254.5 -213 c 128,-1,77
 -267 -199 -267 -199 -270 -169 c 0,78,79
 -270 -167 -270 -167 -274 -164 c 0,80,81
 -277 -149 -277 -149 -290 -144 c 0,82,83
 -293 -141 -293 -141 -299.5 -145 c 128,-1,84
 -306 -149 -306 -149 -308 -152 c 128,-1,85
 -310 -155 -310 -155 -304 -162.5 c 128,-1,86
 -298 -170 -298 -170 -299 -183 c 128,-1,87
 -300 -196 -300 -196 -306 -206 c 0,88,89
 -320 -227 -320 -227 -334 -227 c 1,90,-1
 -334 -226 l 1,91,92
 -356 -230 -356 -230 -357 -213 c 0,93,94
 -359 -199 -359 -199 -349 -185 c 1,95,96
 -345 -173 -345 -173 -345 -162 c 0,97,98
 -345 -125 -345 -125 -395 -113 c 0,99,100
 -414 -107 -414 -107 -435 -107 c 1,101,-1
 -435 -66 l 1,102,-1
 -428 -66 l 2,103,104
 -421 -66 -421 -66 -417 -61.5 c 0,105,106
 -414 -56 -414 -56 -414 -52 c 0,107,108
 -415 -41 -415 -41 -432 -41 c 2,109,-1
 -524 -41 l 2,24,25
-478.5 -209 m 128,-1,111
 -483 -215 -483 -215 -503 -215 c 128,-1,112
 -523 -215 -523 -215 -540.5 -204 c 128,-1,113
 -558 -193 -558 -193 -563 -179 c 128,-1,114
 -568 -165 -568 -165 -559.5 -151.5 c 128,-1,115
 -551 -138 -551 -138 -529 -132 c 1,116,-1
 -472 -132 l 1,117,118
 -472 -149 -472 -149 -471.5 -164.5 c 128,-1,119
 -471 -180 -471 -180 -472.5 -191.5 c 128,-1,110
 -474 -203 -474 -203 -478.5 -209 c 128,-1,111
-514 -66 m 1,120,-1
 -472 -66 l 1,121,-1
 -472 -106 l 1,122,-1
 -514 -106 l 1,123,-1
 -514 -66 l 1,120,-1
EndSplineSet
Validated: 5
Ligature2: "'blwf' Below Base Forms lookup 4 subtable" u1134D uE102
EndChar

StartChar: uE384
Encoding: 58244 58244 81
Width: 0
Flags: MW
LayerCount: 2
Fore
SplineSet
-390 -50 m 2,0,1
 -378 -50 -378 -50 -378 -63 c 128,-1,2
 -378 -76 -378 -76 -390 -76 c 2,3,-1
 -403 -76 l 1,4,-1
 -403 -118 l 1,5,6
 -389 -120 -389 -120 -363.5 -120 c 128,-1,7
 -338 -120 -338 -120 -300 -118 c 1,8,-1
 -300 -143 l 1,9,-1
 -325 -143 l 1,10,-1
 -325 -234 l 1,11,12
 -336 -272 -336 -272 -366 -290 c 0,13,14
 -403 -315 -403 -315 -446 -315 c 0,15,16
 -495 -315 -495 -315 -552 -284 c 0,17,18
 -564 -277 -564 -277 -609 -229 c 0,19,20
 -622 -218 -622 -218 -625 -207 c 0,21,22
 -631 -196 -631 -196 -625.5 -192 c 128,-1,23
 -620 -188 -620 -188 -609 -196 c 1,24,-1
 -550 -253 l 1,25,26
 -501 -287 -501 -287 -454 -287 c 0,27,28
 -421 -287 -421 -287 -391 -270 c 0,29,30
 -367 -256 -367 -256 -356 -218 c 1,31,-1
 -356 -145 l 1,32,-1
 -403 -145 l 1,33,34
 -401 -157 -401 -157 -401 -168 c 0,35,36
 -401 -183 -401 -183 -405 -194 c 0,37,38
 -409 -211 -409 -211 -414.5 -216.5 c 128,-1,39
 -420 -222 -420 -222 -426.5 -230 c 128,-1,40
 -433 -238 -433 -238 -455 -241 c 0,41,42
 -491 -241 -491 -241 -508 -229.5 c 128,-1,43
 -525 -218 -525 -218 -536 -207 c 128,-1,44
 -547 -196 -547 -196 -550 -180.5 c 128,-1,45
 -553 -165 -553 -165 -552 -157 c 0,46,47
 -549 -142 -549 -142 -504 -122 c 1,48,-1
 -504 -64 l 2,49,50
 -504 -56 -504 -56 -492 -53 c 1,51,-1
 -492 -50 l 1,52,-1
 -390 -50 l 2,0,1
-455 -201 m 0,53,54
 -434 -178 -434 -178 -434 -165 c 2,55,-1
 -438 -146 l 1,56,-1
 -489 -146 l 1,57,58
 -518 -155 -518 -155 -520 -159 c 0,59,60
 -523 -172 -523 -172 -510.5 -186.5 c 128,-1,61
 -498 -201 -498 -201 -481 -205 c 1,62,63
 -459 -205 -459 -205 -455 -201 c 0,53,54
-475 -76 m 1,64,-1
 -475 -118 l 1,65,-1
 -438 -118 l 1,66,-1
 -438 -76 l 1,67,-1
 -475 -76 l 1,64,-1
EndSplineSet
Validated: 1
Ligature2: "'vatu' Vattu Variants lookup 10-1" uE324 uE204
Ligature2: "'blwf' Below Base Forms lookup 4 subtable" u1134D uE10F
EndChar

StartChar: uE385
Encoding: 58245 58245 82
Width: 0
Flags: MW
LayerCount: 2
Fore
SplineSet
-377 -125 m 1,0,1
 -359 -115 -359 -115 -331 -112 c 1,2,-1
 -331 -111 l 1,3,4
 -276 -112 -276 -112 -256 -158 c 0,5,6
 -248 -178 -248 -178 -248 -199 c 128,-1,7
 -248 -220 -248 -220 -256 -237 c 1,8,-1
 -209 -237 l 1,9,-1
 -209 -76 l 2,10,11
 -209 -72 -209 -72 -203 -69 c 128,-1,12
 -197 -66 -197 -66 -190 -66 c 0,13,14
 -172 -64 -172 -64 -172 -76 c 2,15,-1
 -172 -253 l 2,16,17
 -172 -265 -172 -265 -183 -265 c 1,18,-1
 -196 -263 l 1,19,-1
 -254 -263 l 2,20,21
 -258 -263 -258 -263 -261.5 -264 c 128,-1,22
 -265 -265 -265 -265 -271 -264 c 2,23,-1
 -286 -262 l 1,24,25
 -295 -263 -295 -263 -298 -253 c 256,26,27
 -301 -243 -301 -243 -295 -240 c 0,28,29
 -279 -234 -279 -234 -275 -216 c 0,30,31
 -273 -209 -273 -209 -273 -202 c 0,32,33
 -272 -192 -272 -192 -276 -180 c 0,34,35
 -282 -162 -282 -162 -296 -147 c 0,36,37
 -308 -134 -308 -134 -325 -134 c 0,38,39
 -327 -134 -327 -134 -330 -134 c 1,40,-1
 -330 -133 l 1,41,42
 -331 -135 -331 -135 -335 -135 c 128,-1,43
 -339 -135 -339 -135 -350 -141 c 1,44,45
 -307 -173 -307 -173 -307 -212 c 0,46,47
 -308 -215 -308 -215 -308 -218 c 0,48,49
 -310 -237 -310 -237 -323.5 -249.5 c 128,-1,50
 -337 -262 -337 -262 -364 -264 c 1,51,-1
 -369 -264 l 1,52,53
 -371 -264 -371 -264 -374 -264 c 0,54,55
 -401 -264 -401 -264 -409 -221 c 0,56,57
 -412 -208 -412 -208 -411 -197 c 0,58,59
 -411 -166 -411 -166 -394 -141 c 1,60,61
 -417 -131 -417 -131 -446 -131 c 0,62,63
 -453 -131 -453 -131 -460 -132 c 1,64,65
 -460 -142 -460 -142 -458.5 -155.5 c 0,66,67
 -458 -169 -458 -169 -458 -184 c 0,68,69
 -461 -262 -461 -262 -511 -262 c 1,70,-1
 -511 -263 l 1,71,72
 -560 -263 -560 -263 -588 -233 c 0,73,74
 -611 -208 -611 -208 -611 -178 c 0,75,76
 -611 -172 -611 -172 -610 -165 c 0,77,78
 -603 -127 -603 -127 -560 -109 c 1,79,-1
 -560 -51 l 2,80,81
 -560 -43 -560 -43 -550 -40 c 1,82,-1
 -550 -39 l 1,83,-1
 -447 -39 l 2,84,85
 -435 -39 -435 -39 -435 -51.5 c 128,-1,86
 -435 -64 -435 -64 -447 -64 c 2,87,-1
 -460 -64 l 1,88,-1
 -460 -106 l 1,89,90
 -409 -109 -409 -109 -377 -125 c 1,0,1
-516 -237 m 0,91,92
 -515 -235 -515 -235 -508 -235 c 0,93,94
 -500 -234 -500 -234 -496 -224 c 0,95,96
 -491 -212 -491 -212 -491 -183 c 0,97,98
 -491 -162 -491 -162 -494 -133 c 1,99,-1
 -546 -133 l 1,100,101
 -572 -142 -572 -142 -580 -160 c 0,102,103
 -585 -171 -585 -171 -584 -182 c 0,104,105
 -584 -188 -584 -188 -582 -196 c 0,106,107
 -576 -214 -576 -214 -558 -226 c 0,108,109
 -542 -237 -542 -237 -520 -237 c 0,110,111
 -518 -237 -518 -237 -516 -237 c 0,91,92
-363 -242 m 2,112,113
 -334 -242 -334 -242 -334 -212 c 0,114,115
 -334 -180 -334 -180 -369 -154 c 1,116,117
 -385 -170 -385 -170 -385 -204 c 0,118,119
 -385 -233 -385 -233 -367 -244 c 1,120,121
 -367 -243 -367 -243 -368 -242 c 1,122,-1
 -363 -242 l 2,112,113
-532 -64 m 1,123,-1
 -532 -106 l 1,124,-1
 -494 -106 l 1,125,-1
 -494 -64 l 1,126,-1
 -532 -64 l 1,123,-1
EndSplineSet
Validated: 1
Ligature2: "'blwf' Below Base Forms lookup 4 subtable" u1134D uE107
EndChar

StartChar: uE386
Encoding: 58246 58246 83
Width: 0
Flags: MW
LayerCount: 2
Fore
SplineSet
-424 -76 m 0,0,1
 -436 -76 -436 -76 -436 -91 c 128,-1,2
 -436 -106 -436 -106 -424 -106 c 0,3,4
 -418 -106 -418 -106 -413.5 -102 c 128,-1,5
 -409 -98 -409 -98 -409 -91 c 0,6,7
 -409 -76 -409 -76 -424 -76 c 0,0,1
-504 -242 m 0,8,9
 -504 -230 -504 -230 -494 -229 c 2,10,-1
 -473 -229 l 2,11,12
 -382 -229 -382 -229 -358 -210 c 0,13,14
 -349 -203 -349 -203 -355 -196.5 c 128,-1,15
 -361 -190 -361 -190 -376 -188 c 1,16,-1
 -424 -188 l 1,17,18
 -439 -189 -439 -189 -454 -188 c 1,19,-1
 -456 -188 l 1,20,21
 -466 -186 -466 -186 -466 -172 c 0,22,23
 -466 -161 -466 -161 -450 -161 c 0,24,25
 -382 -161 -382 -161 -358 -130 c 0,26,27
 -350 -121 -350 -121 -349 -109 c 1,28,-1
 -350 -109 l 1,29,30
 -350 -71 -350 -71 -384 -63 c 0,31,32
 -394 -61 -394 -61 -402 -62 c 1,33,34
 -378 -70 -378 -70 -378 -91 c 256,35,36
 -378 -112 -378 -112 -399 -122 c 0,37,38
 -411 -127 -411 -127 -423 -127 c 0,39,40
 -433 -128 -433 -128 -443 -124 c 0,41,42
 -470 -114 -470 -114 -470 -84 c 0,43,44
 -470 -74 -470 -74 -459 -62 c 0,45,46
 -437 -38 -437 -38 -395 -36 c 0,47,48
 -392 -36 -392 -36 -390 -36 c 0,49,50
 -351 -36 -351 -36 -327 -66 c 0,51,52
 -312 -84 -312 -84 -312 -114 c 0,53,54
 -312 -147 -312 -147 -345 -168 c 1,55,56
 -326 -178 -326 -178 -326 -195 c 128,-1,57
 -326 -212 -326 -212 -349 -229 c 1,58,-1
 -242 -229 l 1,59,-1
 -242 -41 l 2,60,61
 -242 -33 -242 -33 -229 -33 c 0,62,63
 -204 -33 -204 -33 -204 -41 c 2,64,-1
 -204 -236 l 1,65,66
 -199 -242 -199 -242 -204 -248.5 c 128,-1,67
 -209 -255 -209 -255 -221 -255 c 2,68,-1
 -494 -255 l 2,69,70
 -498 -255 -498 -255 -501 -251.5 c 128,-1,71
 -504 -248 -504 -248 -504 -242 c 0,8,9
EndSplineSet
Validated: 1
Ligature2: "'blwf' Below Base Forms lookup 4 subtable" u1134D uE106
EndChar

StartChar: uE387
Encoding: 58247 58247 84
Width: 0
Flags: MW
LayerCount: 2
Fore
SplineSet
-475 -98 m 0,0,1
 -476 -100 -476 -100 -476.5 -103 c 128,-1,2
 -477 -106 -477 -106 -478 -109 c 0,3,4
 -472 -116 -472 -116 -463 -112.5 c 128,-1,5
 -454 -109 -454 -109 -451 -94 c 1,6,7
 -454 -88 -454 -88 -462 -87.5 c 128,-1,8
 -470 -87 -470 -87 -475 -98 c 0,0,1
-385 -168 m 1,9,-1
 -460 -167 l 1,10,11
 -463 -177 -463 -177 -463 -186 c 0,12,13
 -463 -206 -463 -206 -449 -220 c 256,14,15
 -435 -235 -435 -235 -416 -235 c 0,16,17
 -408 -235 -408 -235 -398 -232 c 0,18,19
 -368 -223 -368 -223 -351 -186 c 1,20,-1
 -321 -186 l 1,21,22
 -321 -187 -321 -187 -321.5 -187 c 128,-1,23
 -322 -187 -322 -187 -322 -188 c 0,24,25
 -319 -189 -319 -189 -317 -192 c 0,26,27
 -306 -219 -306 -219 -288 -229 c 0,28,29
 -274 -236 -274 -236 -262 -236 c 0,30,31
 -240 -236 -240 -236 -222 -213 c 0,32,33
 -209 -197 -209 -197 -205 -178 c 1,34,35
 -205 -133 -205 -133 -223.5 -98 c 128,-1,36
 -242 -63 -242 -63 -271 -53 c 1,37,-1
 -285 -53 l 2,38,39
 -296 -53 -296 -53 -293.5 -43.5 c 128,-1,40
 -291 -34 -291 -34 -277 -34 c 128,-1,41
 -263 -34 -263 -34 -243 -46 c 0,42,43
 -202 -72 -202 -72 -176 -125 c 0,44,45
 -164 -150 -164 -150 -164 -176 c 0,46,47
 -164 -199 -164 -199 -174 -215 c 0,48,49
 -184 -232 -184 -232 -198 -240 c 0,50,51
 -227 -256 -227 -256 -262 -256 c 0,52,53
 -268 -256 -268 -256 -274 -256 c 0,54,55
 -315 -253 -315 -253 -337 -221 c 1,56,57
 -359 -253 -359 -253 -399 -256 c 0,58,59
 -404 -256 -404 -256 -408 -256 c 0,60,61
 -442 -256 -442 -256 -467 -236 c 0,62,63
 -491 -217 -491 -217 -491 -181 c 0,64,65
 -491 -175 -491 -175 -490 -168 c 1,66,-1
 -533 -168 l 2,67,68
 -538 -168 -538 -168 -541 -164.5 c 128,-1,69
 -544 -161 -544 -161 -544 -159 c 0,70,71
 -544 -148 -544 -148 -533 -148 c 2,72,-1
 -492 -148 l 2,73,74
 -421 -148 -421 -148 -406 -125 c 0,75,76
 -401 -118 -401 -118 -396 -113 c 1,77,-1
 -397 -113 l 1,78,79
 -396 -70 -396 -70 -422 -58 c 0,80,81
 -428 -55 -428 -55 -435 -55 c 0,82,83
 -451 -55 -451 -55 -465 -74 c 1,84,85
 -459 -73 -459 -73 -453 -73 c 0,86,87
 -442 -72 -442 -72 -434 -76 c 0,88,89
 -420 -82 -420 -82 -422 -92 c 1,90,-1
 -422 -93 l 2,91,92
 -422 -107 -422 -107 -434 -117 c 0,93,94
 -453 -132 -453 -132 -475 -132 c 0,95,96
 -483 -132 -483 -132 -491 -130 c 0,97,98
 -509 -126 -509 -126 -509 -103 c 0,99,100
 -509 -92 -509 -92 -502.5 -77 c 128,-1,101
 -496 -62 -496 -62 -485 -52 c 128,-1,102
 -474 -42 -474 -42 -460.5 -36.5 c 128,-1,103
 -447 -31 -447 -31 -433 -31 c 0,104,105
 -399 -31 -399 -31 -382 -52 c 0,106,107
 -360 -73 -360 -73 -360 -105 c 0,108,109
 -360 -109 -360 -109 -360 -113 c 1,110,-1
 -361 -113 l 1,111,112
 -361 -134 -361 -134 -388 -148 c 1,113,-1
 -301 -148 l 2,114,115
 -290 -148 -290 -148 -290 -158 c 0,116,117
 -293 -168 -293 -168 -303 -168 c 2,118,-1
 -385 -168 l 1,9,-1
-503 -119 m 1,119,-1
 -502 -120 l 1,120,121
 -502 -119 -502 -119 -503 -119 c 1,119,-1
EndSplineSet
Validated: 33
LCarets2: 1 0
Ligature2: "'blwf' Below Base Forms lookup 4 subtable" u1134D uE108
EndChar

StartChar: uE388
Encoding: 58248 58248 85
Width: 0
Flags: MW
LayerCount: 2
Fore
SplineSet
-335 -44.5 m 128,-1,1
 -335 -31 -335 -31 -347 -31 c 2,2,-1
 -499 -31 l 2,3,4
 -506 -31 -506 -31 -510 -36 c 0,5,6
 -517 -39 -517 -39 -518 -45 c 1,7,-1
 -518 -246 l 2,8,9
 -518 -256 -518 -256 -501 -256 c 256,10,11
 -484 -256 -484 -256 -484 -246 c 2,12,-1
 -484 -58 l 1,13,-1
 -435 -58 l 1,14,-1
 -435 -180 l 2,15,16
 -435 -186 -435 -186 -428.5 -190.5 c 0,17,18
 -422 -196 -422 -196 -414 -196 c 0,19,20
 -392 -197 -392 -197 -392 -183 c 1,21,-1
 -393 -178 l 1,22,23
 -392 -174 -392 -174 -392 -173 c 2,24,-1
 -392 -166 l 1,25,26
 -388 -145 -388 -145 -373.5 -138.5 c 128,-1,27
 -359 -132 -359 -132 -343.5 -135 c 128,-1,28
 -328 -138 -328 -138 -318.5 -147.5 c 128,-1,29
 -309 -157 -309 -157 -309 -171 c 1,30,31
 -314 -177 -314 -177 -320 -203 c 0,32,33
 -323 -219 -323 -219 -324 -229 c 0,34,35
 -324 -236 -324 -236 -322 -240 c 0,36,37
 -313 -269 -313 -269 -268 -269 c 0,38,39
 -265 -269 -265 -269 -263 -269 c 1,40,-1
 -264 -270 l 1,41,42
 -230 -269 -230 -269 -206 -232 c 1,43,44
 -191 -255 -191 -255 -170 -264 c 0,45,46
 -158 -269 -158 -269 -146 -269 c 0,47,48
 -137 -268 -137 -268 -129 -266 c 0,49,50
 -109 -260 -109 -260 -95.5 -240 c 128,-1,51
 -82 -220 -82 -220 -80 -189 c 1,52,-1
 -79 -189 l 1,53,-1
 -80 -183 l 2,54,55
 -80 -182 -80 -182 -80 -181 c 1,56,-1
 -81 -181 l 1,57,-1
 -87 -147 l 2,58,59
 -92 -120 -92 -120 -122 -109 c 0,60,61
 -137 -103 -137 -103 -147.5 -103 c 128,-1,62
 -158 -103 -158 -103 -167 -104.5 c 128,-1,63
 -176 -106 -176 -106 -184 -116.5 c 128,-1,64
 -192 -127 -192 -127 -192 -142 c 2,65,-1
 -192 -144 l 1,66,67
 -190 -167 -190 -167 -163 -180 c 0,68,69
 -149 -186 -149 -186 -136.5 -186 c 128,-1,70
 -124 -186 -124 -186 -115 -180 c 1,71,72
 -115 -183 -115 -183 -115 -186 c 0,73,74
 -116 -214 -116 -214 -124 -228 c 0,75,76
 -135 -246 -135 -246 -148 -246 c 0,77,78
 -160 -246 -160 -246 -175 -231 c 0,79,80
 -196 -210 -196 -210 -196 -183 c 0,81,82
 -196 -180 -196 -180 -199 -177 c 0,83,84
 -203 -162 -203 -162 -217 -154 c 0,85,86
 -221 -151 -221 -151 -230.5 -158 c 128,-1,87
 -240 -165 -240 -165 -238 -168 c 0,88,89
 -227 -178 -227 -178 -227 -195 c 128,-1,90
 -227 -212 -227 -212 -232.5 -222.5 c 128,-1,91
 -238 -233 -238 -233 -247 -239.5 c 128,-1,92
 -256 -246 -256 -246 -262 -246 c 1,93,-1
 -262 -244 l 1,94,95
 -268 -245 -268 -245 -273 -245 c 0,96,97
 -288 -245 -288 -245 -288 -231 c 0,98,99
 -288 -219 -288 -219 -279 -200 c 1,100,-1
 -279 -199 l 1,101,-1
 -272 -166 l 1,102,103
 -267 -155 -267 -155 -278 -141 c 128,-1,104
 -289 -127 -289 -127 -308 -119 c 0,105,106
 -333 -109 -333 -109 -355 -109 c 0,107,108
 -374 -109 -374 -109 -392 -116 c 1,109,-1
 -392 -58 l 1,110,-1
 -347 -58 l 2,111,0
 -335 -58 -335 -58 -335 -44.5 c 128,-1,1
-126 -135 m 0,112,113
 -121 -142 -121 -142 -125 -152 c 0,114,115
 -128 -163 -128 -163 -144 -164 c 128,-1,116
 -160 -165 -160 -165 -164.5 -159 c 128,-1,117
 -169 -153 -169 -153 -169 -144 c 128,-1,118
 -169 -135 -169 -135 -163 -129.5 c 128,-1,119
 -157 -124 -157 -124 -146.5 -124.5 c 128,-1,120
 -136 -125 -136 -125 -126 -135 c 0,112,113
EndSplineSet
Validated: 9
LCarets2: 1 0
Ligature2: "'blwf' Below Base Forms lookup 4 subtable" u1134D uE114
EndChar

StartChar: uE389
Encoding: 58249 58249 86
Width: 0
Flags: MW
LayerCount: 2
Fore
SplineSet
-359 -224 m 1,0,1
 -363 -231 -363 -231 -379 -231 c 128,-1,2
 -395 -231 -395 -231 -395 -222 c 2,3,-1
 -395 -206 l 1,4,5
 -396 -205 -396 -205 -396 -188 c 128,-1,6
 -396 -171 -396 -171 -405.5 -148 c 128,-1,7
 -415 -125 -415 -125 -429 -111 c 128,-1,8
 -443 -97 -443 -97 -460 -92 c 0,9,10
 -478 -87 -478 -87 -492 -91 c 0,11,12
 -524 -100 -524 -100 -526 -141 c 1,13,14
 -510 -133 -510 -133 -493 -133 c 0,15,16
 -479 -133 -479 -133 -463.5 -138.5 c 128,-1,17
 -448 -144 -448 -144 -437.5 -156 c 128,-1,18
 -427 -168 -427 -168 -427 -185 c 1,19,-1
 -464 -185 l 1,20,21
 -464 -170 -464 -170 -472 -162.5 c 128,-1,22
 -480 -155 -480 -155 -490 -155 c 128,-1,23
 -500 -155 -500 -155 -508.5 -162.5 c 128,-1,24
 -517 -170 -517 -170 -517 -185 c 256,25,26
 -517 -200 -517 -200 -508.5 -207 c 128,-1,27
 -500 -214 -500 -214 -490.5 -214 c 128,-1,28
 -481 -214 -481 -214 -472.5 -207 c 128,-1,29
 -464 -200 -464 -200 -464 -185 c 1,30,-1
 -427 -185 l 1,31,32
 -428 -216 -428 -216 -460 -230 c 0,33,34
 -474 -236 -474 -236 -489.5 -236 c 128,-1,35
 -505 -236 -505 -236 -519 -232 c 0,36,37
 -555 -220 -555 -220 -555 -185 c 1,38,39
 -557 -168 -557 -168 -557 -153 c 0,40,41
 -556 -110 -556 -110 -536 -86 c 0,42,43
 -516 -63 -516 -63 -486 -63 c 0,44,45
 -478 -62 -478 -62 -468 -64 c 0,46,47
 -428 -71 -428 -71 -395 -107 c 1,48,-1
 -395 -74 l 2,49,50
 -395 -68 -395 -68 -388 -66 c 0,51,52
 -384 -62 -384 -62 -377 -61 c 1,53,-1
 -217 -61 l 2,54,55
 -212 -61 -212 -61 -209 -66 c 128,-1,56
 -206 -71 -206 -71 -206 -76 c 256,57,58
 -206 -90 -206 -90 -217 -90 c 2,59,-1
 -264 -90 l 1,60,-1
 -264 -152 l 1,61,62
 -247 -144 -247 -144 -230 -144 c 0,63,64
 -210 -144 -210 -144 -190 -154 c 0,65,66
 -150 -174 -150 -174 -150 -221 c 1,67,-1
 -153 -221 l 1,68,69
 -153 -248 -153 -248 -196 -271 c 0,70,71
 -253 -301 -253 -301 -379 -308 c 0,72,73
 -384 -309 -384 -309 -411 -314.5 c 128,-1,74
 -438 -320 -438 -320 -464.5 -335.5 c 128,-1,75
 -491 -351 -491 -351 -493.5 -365 c 128,-1,76
 -496 -379 -496 -379 -477 -388 c 0,77,78
 -460 -396 -460 -396 -427 -396 c 0,79,80
 -423 -396 -423 -396 -419 -396 c 1,81,-1
 -419 -432 l 1,82,-1
 -418 -395 l 1,83,84
 -376 -394 -376 -394 -338 -364 c 0,85,86
 -331 -359 -331 -359 -318 -350 c 1,87,88
 -287 -319 -287 -319 -241 -312 c 0,89,90
 -230 -310 -230 -310 -220 -310 c 0,91,92
 -192 -310 -192 -310 -168 -323 c 0,93,94
 -136 -340 -136 -340 -134 -371 c 1,95,-1
 -135 -371 l 1,96,97
 -134 -371 -134 -371 -134 -372 c 0,98,99
 -140 -410 -140 -410 -190 -426 c 0,100,101
 -215 -434 -215 -434 -232 -433 c 0,102,103
 -249 -433 -249 -433 -260 -426 c 1,104,105
 -269 -426 -269 -426 -273.5 -421.5 c 128,-1,106
 -278 -417 -278 -417 -277.5 -412.5 c 128,-1,107
 -277 -408 -277 -408 -272.5 -403.5 c 128,-1,108
 -268 -399 -268 -399 -259 -399 c 1,109,110
 -244 -408 -244 -408 -228 -408 c 0,111,112
 -217 -408 -217 -408 -206 -404 c 0,113,114
 -182 -395 -182 -395 -176 -371 c 1,115,-1
 -179 -371 l 1,116,117
 -177 -363 -177 -363 -182.5 -354 c 0,118,119
 -188 -344 -188 -344 -200 -340 c 0,120,121
 -209 -337 -209 -337 -219 -337 c 0,122,123
 -243 -337 -243 -337 -275 -356 c 1,124,-1
 -293 -366 l 1,125,126
 -306 -377 -306 -377 -319.5 -388.5 c 128,-1,127
 -333 -400 -333 -400 -348 -410 c 0,128,129
 -381 -431 -381 -431 -416 -432 c 0,130,131
 -422 -432 -422 -432 -429 -432 c 0,132,133
 -458 -432 -458 -432 -478 -425 c 0,134,135
 -504 -416 -504 -416 -516 -402 c 0,136,137
 -531 -386 -531 -386 -532 -367 c 0,138,139
 -532 -351 -532 -351 -520 -336 c 0,140,141
 -489 -297 -489 -297 -394 -286 c 1,142,-1
 -373 -285 l 1,143,-1
 -369 -285 l 1,144,145
 -215 -271 -215 -271 -197 -222 c 1,146,-1
 -175 -221 l 1,147,-1
 -197 -221 l 1,148,149
 -196 -181 -196 -181 -222 -171 c 0,150,151
 -228 -169 -228 -169 -234 -169 c 0,152,153
 -252 -169 -252 -169 -264 -192 c 1,154,-1
 -264 -203 l 2,155,156
 -264 -216 -264 -216 -287 -216 c 0,157,158
 -295 -216 -295 -216 -302 -212.5 c 128,-1,159
 -309 -209 -309 -209 -309 -203 c 2,160,-1
 -309 -90 l 1,161,-1
 -359 -90 l 1,162,-1
 -359 -224 l 1,0,1
EndSplineSet
Validated: 37
LCarets2: 1 2
Ligature2: "'blwf' Below Base Forms lookup 4 subtable" u1134D uE101
EndChar

StartChar: uE38A
Encoding: 58250 58250 87
Width: 0
Flags: MW
LayerCount: 2
Fore
SplineSet
-377 -225 m 1,0,1
 -374 -242 -374 -242 -365.5 -250.5 c 128,-1,2
 -357 -259 -357 -259 -347.5 -259 c 128,-1,3
 -338 -259 -338 -259 -329.5 -252 c 128,-1,4
 -321 -245 -321 -245 -320 -232 c 1,5,-1
 -320 -90 l 1,6,-1
 -377 -90 l 1,7,-1
 -377 -225 l 1,0,1
-605 -76 m 1,8,9
 -605 -66 -605 -66 -591 -66 c 0,10,11
 -585 -66 -585 -66 -580.5 -69 c 128,-1,12
 -576 -72 -576 -72 -576 -76 c 2,13,-1
 -576 -214 l 2,14,15
 -576 -238 -576 -238 -563.5 -249.5 c 128,-1,16
 -551 -261 -551 -261 -536 -261 c 256,17,18
 -522 -261 -522 -261 -510 -249 c 0,19,20
 -499 -237 -499 -237 -498 -209 c 0,21,22
 -498 -192 -498 -192 -500 -150 c 0,23,24
 -500 -146 -500 -146 -500 -142 c 0,25,26
 -500 -119 -500 -119 -494 -103 c 0,27,28
 -488 -84 -488 -84 -473 -74.5 c 128,-1,29
 -458 -65 -458 -65 -427 -63 c 1,30,-1
 -195 -63 l 2,31,32
 -191 -63 -191 -63 -187 -66.5 c 128,-1,33
 -183 -70 -183 -70 -183 -74.5 c 128,-1,34
 -183 -79 -183 -79 -187 -84.5 c 128,-1,35
 -191 -90 -191 -90 -195 -90 c 2,36,-1
 -221 -90 l 1,37,-1
 -221 -289 l 1,38,39
 -231 -331 -231 -331 -295 -365 c 0,40,41
 -326 -382 -326 -382 -390 -384 c 0,42,43
 -401 -384 -401 -384 -411 -384 c 0,44,45
 -462 -384 -462 -384 -500 -376 c 0,46,47
 -546 -366 -546 -366 -611 -336 c 0,48,49
 -619 -333 -619 -333 -633 -317 c 128,-1,50
 -647 -301 -647 -301 -645 -299 c 0,51,52
 -643 -299 l 0,53,54
 -637 -299 -637 -299 -611 -306 c 1,55,-1
 -591 -313 l 2,56,57
 -500 -345 -500 -345 -494 -346 c 0,58,59
 -435 -352 -435 -352 -395 -352 c 0,60,61
 -375 -352 -375 -352 -361 -350 c 0,62,63
 -317 -346 -317 -346 -281 -322 c 0,64,65
 -253 -306 -253 -306 -249 -275 c 1,66,-1
 -249 -90 l 1,67,-1
 -282 -90 l 1,68,-1
 -282 -234 l 1,69,70
 -288 -270 -288 -270 -320 -282 c 0,71,72
 -332 -287 -332 -287 -345 -287 c 0,73,74
 -363 -287 -363 -287 -379 -276 c 0,75,76
 -406 -257 -406 -257 -406 -222 c 0,77,78
 -406 -218 -406 -218 -406 -214 c 1,79,-1
 -406 -90 l 1,80,-1
 -427 -90 l 2,81,82
 -461 -90 -461 -90 -465 -118 c 0,83,84
 -466 -126 -466 -126 -466 -137 c 0,85,86
 -466 -146 -466 -146 -466 -156 c 0,87,88
 -464 -180 -464 -180 -464 -214 c 1,89,-1
 -465 -214 l 1,90,91
 -464 -259 -464 -259 -502 -278 c 0,92,93
 -520 -288 -520 -288 -538 -288 c 0,94,95
 -554 -288 -554 -288 -568 -280 c 0,96,97
 -604 -261 -604 -261 -604 -217 c 2,98,-1
 -604 -76 l 1,99,-1
 -605 -76 l 1,8,9
EndSplineSet
Validated: 33
Ligature2: "'vatu' Vattu Variants lookup 10-1" uE336 uE204
LCarets2: 1 0
Ligature2: "'blwf' Below Base Forms lookup 4 subtable" u1134D uE110
EndChar

StartChar: uE38B
Encoding: 58251 58251 88
Width: 0
Flags: MW
LayerCount: 2
Fore
SplineSet
-181 -36 m 2,0,1
 -167 -36 -167 -36 -167 -50 c 0,2,3
 -167 -55 -167 -55 -171 -59 c 128,-1,4
 -175 -63 -175 -63 -181 -63 c 2,5,-1
 -231 -63 l 1,6,-1
 -231 -123 l 1,7,8
 -214 -116 -214 -116 -204 -116 c 2,9,-1
 -190 -116 l 1,10,11
 -170 -117 -170 -117 -150 -126 c 0,12,13
 -111 -144 -111 -144 -109 -191 c 1,14,-1
 -108 -191 l 1,15,16
 -108 -228 -108 -228 -121 -239 c 0,17,18
 -165 -275 -165 -275 -176 -275 c 2,19,-1
 -177 -275 l 1,20,-1
 -214 -297 l 1,21,22
 -222 -309 -222 -309 -222 -318.5 c 128,-1,23
 -222 -328 -222 -328 -217 -336 c 0,24,25
 -202 -361 -202 -361 -175 -361 c 2,26,-1
 -174 -361 l 1,27,28
 -156 -360 -156 -360 -151 -335 c 1,29,-1
 -165 -313 l 1,30,31
 -162 -298 -162 -298 -146 -298 c 0,32,33
 -145 -298 -145 -298 -144 -298 c 0,34,35
 -124 -299 -124 -299 -124 -324 c 0,36,37
 -124 -339 -124 -339 -134 -357 c 128,-1,38
 -144 -375 -144 -375 -158 -377.5 c 128,-1,39
 -172 -380 -172 -380 -189 -380 c 0,40,41
 -238 -380 -238 -380 -253 -332 c 0,42,43
 -254 -329 -254 -329 -254 -320.5 c 128,-1,44
 -254 -312 -254 -312 -245.5 -296.5 c 128,-1,45
 -237 -281 -237 -281 -219 -270 c 0,46,47
 -216 -266 -216 -266 -194 -247 c 128,-1,48
 -172 -228 -172 -228 -165.5 -219 c 128,-1,49
 -159 -210 -159 -210 -158 -197 c 1,50,-1
 -159 -197 l 1,51,52
 -159 -149 -159 -149 -186 -142 c 0,53,54
 -190 -140 -190 -140 -195 -140 c 0,55,56
 -217 -140 -217 -140 -231 -163 c 1,57,-1
 -231 -177 l 2,58,59
 -231 -200 -231 -200 -238.5 -211 c 128,-1,60
 -246 -222 -246 -222 -250 -222 c 2,61,-1
 -256 -222 l 1,62,63
 -265 -221 -265 -221 -272.5 -209.5 c 128,-1,64
 -280 -198 -280 -198 -280 -187 c 2,65,-1
 -280 -63 l 1,66,-1
 -334 -63 l 1,67,-1
 -334 -104 l 1,68,-1
 -335 -140 l 1,69,-1
 -335 -202 l 2,70,71
 -335 -212 -335 -212 -341 -217 c 128,-1,72
 -347 -222 -347 -222 -355.5 -220.5 c 128,-1,73
 -364 -219 -364 -219 -370.5 -214 c 128,-1,74
 -377 -209 -377 -209 -376 -202 c 1,75,-1
 -376 -50 l 2,76,77
 -376 -44 -376 -44 -366 -41 c 0,78,79
 -363 -36 -363 -36 -354 -36 c 2,80,-1
 -181 -36 l 2,0,1
EndSplineSet
Validated: 1
LCarets2: 1 0
Ligature2: "'blwf' Below Base Forms lookup 4 subtable" u1134D uE105
EndChar

StartChar: uE38C
Encoding: 58252 58252 89
Width: 0
Flags: MW
LayerCount: 2
Fore
SplineSet
-321 -156 m 0,0,1
 -322 -146 -322 -146 -322 -136 c 1,2,-1
 -383 -136 l 1,3,4
 -409 -140 -409 -140 -421.5 -150.5 c 128,-1,5
 -434 -161 -434 -161 -430 -171 c 128,-1,6
 -426 -181 -426 -181 -405 -188 c 0,7,8
 -389 -193 -389 -193 -361 -193 c 0,9,10
 -353 -193 -353 -193 -344 -193 c 1,11,12
 -320 -193 -320 -193 -320 -165 c 0,13,14
 -320 -161 -320 -161 -321 -156 c 0,0,1
-367 -76 m 1,15,-1
 -367 -116 l 1,16,-1
 -322 -116 l 1,17,-1
 -322 -76 l 1,18,-1
 -367 -76 l 1,15,-1
-440 -172 m 1024,19,-1
-258 -66 m 0,20,21
 -258 -76 -258 -76 -274 -76 c 2,22,-1
 -282 -76 l 1,23,-1
 -282 -116 l 1,24,25
 -278 -116 -278 -116 -273 -116 c 0,26,27
 -237 -116 -237 -116 -212 -138 c 0,28,29
 -184 -164 -184 -164 -184 -190 c 0,30,31
 -192 -251 -192 -251 -276 -256 c 0,32,33
 -292 -257 -292 -257 -310 -257 c 0,34,35
 -332 -258 -332 -258 -356 -256 c 0,36,37
 -387 -254 -387 -254 -406 -254 c 0,38,39
 -413 -254 -413 -254 -419 -254 c 1,40,-1
 -421 -251 l 1,41,42
 -469 -256 -469 -256 -473.5 -258 c 128,-1,43
 -478 -260 -478 -260 -474 -263 c 2,44,-1
 -466 -269 l 2,45,46
 -456 -277 -456 -277 -468 -286 c 0,47,48
 -475 -290 -475 -290 -482 -290 c 0,49,50
 -495 -290 -495 -290 -508 -274 c 0,51,52
 -515 -264 -515 -264 -510 -256 c 0,53,54
 -499 -232 -499 -232 -423 -232 c 0,55,56
 -389 -232 -389 -232 -352 -234 c 0,57,58
 -340 -234 -340 -234 -328 -234 c 0,59,60
 -305 -234 -305 -234 -284 -232 c 0,61,62
 -253 -229 -253 -229 -234.5 -219 c 128,-1,63
 -216 -209 -216 -209 -217 -185 c 1,64,-1
 -217 -181 l 1,65,66
 -216 -164 -216 -164 -235.5 -150.5 c 128,-1,67
 -255 -137 -255 -137 -282 -137 c 1,68,-1
 -280 -162 l 2,69,70
 -278 -193 -278 -193 -301 -208 c 0,71,72
 -315 -216 -315 -216 -353 -216 c 128,-1,73
 -391 -216 -391 -216 -418 -204 c 0,74,75
 -444 -192 -444 -192 -456 -175 c 0,76,77
 -460 -170 -460 -170 -460 -165 c 0,78,79
 -460 -150 -460 -150 -432 -136 c 1,80,-1
 -475 -136 l 1,81,-1
 -475 -166 l 1,82,83
 -476 -220 -476 -220 -498 -230 c 0,84,85
 -504 -233 -504 -233 -512 -232 c 0,86,87
 -528 -232 -528 -232 -544 -217 c 1,88,89
 -554 -232 -554 -232 -571 -232 c 0,90,91
 -582 -232 -582 -232 -596 -225 c 128,-1,92
 -610 -218 -610 -218 -621 -204 c 0,93,94
 -633 -189 -633 -189 -633 -171 c 0,95,96
 -633 -137 -633 -137 -581 -117 c 1,97,-1
 -581 -65 l 2,98,99
 -581 -59 -581 -59 -571 -56 c 1,100,-1
 -571 -55 l 1,101,-1
 -465 -55 l 2,102,103
 -448 -55 -448 -55 -445 -65 c 0,104,105
 -445 -76 -445 -76 -467 -76 c 2,106,-1
 -475 -76 l 1,107,-1
 -475 -115 l 1,108,-1
 -400 -115 l 1,109,-1
 -399 -76 l 1,110,-1
 -399 -65 l 2,111,112
 -399 -60 -399 -60 -391.5 -57.5 c 128,-1,113
 -384 -55 -384 -55 -377 -56 c 1,114,-1
 -278 -56 l 2,115,116
 -261 -56 -261 -56 -258 -66 c 0,20,21
-514 -172 m 0,117,118
 -513 -168 -513 -168 -513 -166 c 2,119,-1
 -513 -136 l 1,120,-1
 -566 -136 l 1,121,122
 -606 -151 -606 -151 -606 -177 c 0,123,124
 -606 -187 -606 -187 -597 -196 c 0,125,126
 -589 -204 -589 -204 -581.5 -206 c 128,-1,127
 -574 -208 -574 -208 -566.5 -202 c 128,-1,128
 -559 -196 -559 -196 -560 -186 c 128,-1,129
 -561 -176 -561 -176 -561 -173 c 128,-1,130
 -561 -170 -561 -170 -559.5 -165 c 128,-1,131
 -558 -160 -558 -160 -548 -161 c 128,-1,132
 -538 -162 -538 -162 -540 -167 c 1,133,-1
 -539 -167 l 1,134,-1
 -538 -180 l 2,135,136
 -537 -191 -537 -191 -531 -199 c 0,137,138
 -528 -206 -528 -206 -523 -206 c 0,139,140
 -514 -206 -514 -206 -514 -178 c 0,141,142
 -514 -175 -514 -175 -514 -172 c 0,117,118
-552 -76 m 1,143,-1
 -552 -115 l 1,144,-1
 -513 -115 l 1,145,-1
 -513 -76 l 1,146,-1
 -552 -76 l 1,143,-1
EndSplineSet
Validated: 33
Ligature2: "'blwf' Below Base Forms lookup 4 subtable" u1134D uE113
EndChar

StartChar: uE38D
Encoding: 58253 58253 90
Width: 0
Flags: MW
LayerCount: 2
Fore
SplineSet
-524 -167 m 1024,0,-1
-584 -150 m 1,1,-1
 -585 -150 l 1,2,3
 -583 -183 -583 -183 -564 -196 c 0,4,5
 -556 -201 -556 -201 -541 -200 c 128,-1,6
 -526 -199 -526 -199 -522 -184 c 0,7,8
 -520 -176 -520 -176 -526 -163 c 128,-1,9
 -532 -150 -532 -150 -542.5 -142.5 c 0,10,11
 -552 -135 -552 -135 -562 -134 c 0,12,13
 -582 -132 -582 -132 -584 -150 c 1,1,-1
-226 -199 m 1,14,-1
 -199 -200 l 1,15,-1
 -199 -128 l 1,16,17
 -215 -140 -215 -140 -262 -145 c 1,18,-1
 -290 -200 l 1,19,-1
 -226 -199 l 1,14,-1
-388 -121 m 0,20,21
 -388 -174 -388 -174 -422 -199 c 1,22,-1
 -325 -199 l 1,23,-1
 -300 -145 l 1,24,25
 -328 -142 -328 -142 -339 -126 c 128,-1,26
 -350 -110 -350 -110 -350 -78 c 2,27,-1
 -350 -75 l 1,28,-1
 -349 -75 l 1,29,-1
 -349 -74 l 2,30,31
 -349 -57 -349 -57 -340 -46 c 0,32,33
 -326 -26 -326 -26 -303 -26 c 0,34,35
 -299 -26 -299 -26 -294 -26 c 0,36,37
 -265 -30 -265 -30 -252 -65 c 0,38,39
 -248 -75 -248 -75 -248 -89 c 0,40,41
 -248 -97 -248 -97 -249 -106 c 1,42,-1
 -248 -106 l 1,43,-1
 -248 -118 l 1,44,45
 -222 -112 -222 -112 -199 -92 c 0,46,47
 -194 -89 -194 -89 -194 -87 c 0,48,49
 -194 -82 -194 -82 -184 -80.5 c 128,-1,50
 -174 -79 -174 -79 -169 -83 c 128,-1,51
 -164 -87 -164 -87 -164 -91 c 2,52,-1
 -164 -210 l 1,53,-1
 -166 -225 l 1,54,-1
 -305 -227 l 1,55,-1
 -333 -279 l 1,56,-1
 -162 -279 l 2,57,58
 -153 -279 -153 -279 -153 -293 c 128,-1,59
 -153 -307 -153 -307 -162 -307 c 2,60,-1
 -250 -307 l 1,61,-1
 -250 -338 l 2,62,63
 -250 -349 -250 -349 -266 -349 c 128,-1,64
 -282 -349 -282 -349 -282 -338 c 2,65,-1
 -282 -307 l 1,66,-1
 -374 -307 l 2,67,68
 -383 -307 -383 -307 -385.5 -304.5 c 128,-1,69
 -388 -302 -388 -302 -373 -278 c 1,70,-1
 -343 -225 l 1,71,-1
 -477 -225 l 1,72,-1
 -477 -199 l 1,73,-1
 -464 -199 l 1,74,75
 -444 -197 -444 -197 -437.5 -180.5 c 128,-1,76
 -431 -164 -431 -164 -431 -131.5 c 128,-1,77
 -431 -99 -431 -99 -441 -85 c 0,78,79
 -459 -55 -459 -55 -494 -52 c 0,80,81
 -497 -52 -497 -52 -499 -52 c 0,82,83
 -532 -52 -532 -52 -558 -78 c 0,84,85
 -570 -90 -570 -90 -579 -116 c 1,86,87
 -571 -114 -571 -114 -564 -114 c 0,88,89
 -553 -114 -553 -114 -543 -118 c 0,90,91
 -512 -131 -512 -131 -500 -157 c 0,92,93
 -493 -169 -493 -169 -493 -180 c 0,94,95
 -493 -184 -493 -184 -494 -188 c 0,96,97
 -504 -218 -504 -218 -542 -223 c 0,98,99
 -547 -224 -547 -224 -552 -224 c 0,100,101
 -584 -224 -584 -224 -605 -193 c 0,102,103
 -615 -177 -615 -177 -615 -143 c 0,104,105
 -613 -74 -613 -74 -555 -39 c 0,106,107
 -532 -25 -532 -25 -503 -24 c 0,108,109
 -499 -24 -499 -24 -495 -24 c 0,110,111
 -440 -24 -440 -24 -407 -65 c 0,112,113
 -388 -90 -388 -90 -388 -121 c 0,20,21
-283 -106 m 1,114,115
 -283 -100 -283 -100 -283 -95 c 0,116,117
 -283 -54 -283 -54 -298 -48 c 256,118,119
 -305 -45 -305 -45 -311.5 -53 c 128,-1,120
 -318 -61 -318 -61 -321 -79 c 0,121,122
 -319 -115 -319 -115 -283 -120 c 1,123,-1
 -283 -106 l 1,114,115
EndSplineSet
Validated: 1
Ligature2: "'blwf' Below Base Forms lookup 4 subtable" u1134D uE115
EndChar

StartChar: uE38E
Encoding: 58254 58254 91
Width: 0
Flags: MW
LayerCount: 2
Fore
SplineSet
-277 -38.5 m 128,-1,1
 -277 -52 -277 -52 -289 -52 c 2,2,-1
 -334 -52 l 1,3,-1
 -334 -110 l 1,4,5
 -314 -103 -314 -103 -295 -103 c 0,6,7
 -272 -102 -272 -102 -250 -112 c 0,8,9
 -231 -120 -231 -120 -217.5 -137 c 128,-1,10
 -204 -154 -204 -154 -204 -172 c 1,11,-1
 -205 -172 l 1,12,13
 -207 -215 -207 -215 -250 -243 c 1,14,-1
 -164 -243 l 1,15,-1
 -164 -118 l 1,16,17
 -163 -103 -163 -103 -152 -103 c 0,18,19
 -134 -101 -134 -101 -132 -115 c 1,20,-1
 -132 -272 l 1,21,-1
 -367 -272 l 1,22,-1
 -367 -271 l 1,23,-1
 -378 -271 l 2,24,25
 -388 -271 -388 -271 -389.5 -260 c 128,-1,26
 -391 -249 -391 -249 -383 -244 c 1,27,-1
 -382 -244 l 1,28,29
 -382 -243 -382 -243 -379 -243 c 2,30,-1
 -368 -243 l 1,31,32
 -286 -241 -286 -241 -257 -202 c 0,33,34
 -248 -190 -248 -190 -246 -173 c 1,35,-1
 -247 -173 l 1,36,37
 -247 -160 -247 -160 -258.5 -146 c 128,-1,38
 -270 -132 -270 -132 -285.5 -128.5 c 128,-1,39
 -301 -125 -301 -125 -315.5 -132 c 128,-1,40
 -330 -139 -330 -139 -334 -160 c 1,41,-1
 -334 -167 l 2,42,43
 -334 -168 -334 -168 -335 -172 c 1,44,-1
 -334 -176 l 1,45,46
 -334 -192 -334 -192 -356 -189 c 0,47,48
 -377 -186 -377 -186 -377 -173 c 2,49,-1
 -377 -52 l 1,50,-1
 -426 -52 l 1,51,-1
 -426 -240 l 2,52,53
 -426 -250 -426 -250 -443 -250 c 128,-1,54
 -460 -250 -460 -250 -460 -240 c 2,55,-1
 -460 -39 l 2,56,57
 -460 -33 -460 -33 -452 -30 c 0,58,59
 -448 -25 -448 -25 -441 -25 c 2,60,-1
 -289 -25 l 2,61,0
 -277 -25 -277 -25 -277 -38.5 c 128,-1,1
EndSplineSet
Validated: 33
LCarets2: 1 0
Ligature2: "'blwf' Below Base Forms lookup 4 subtable" u1134D uE112
EndChar

StartChar: uE38F
Encoding: 58255 58255 92
Width: 0
Flags: MW
LayerCount: 2
Fore
SplineSet
-304 -41 m 1,0,-1
 -184 -41 l 2,1,2
 -173 -41 -173 -41 -168 -46 c 128,-1,3
 -163 -51 -163 -51 -164 -56 c 128,-1,4
 -165 -61 -165 -61 -170 -65.5 c 128,-1,5
 -175 -70 -175 -70 -183 -70 c 2,6,-1
 -201 -70 l 1,7,-1
 -201 -110 l 1,8,9
 -156 -116 -156 -116 -126 -140.5 c 128,-1,10
 -96 -165 -96 -165 -96 -195 c 1,11,-1
 -139 -195 l 1,12,13
 -139 -177 -139 -177 -153.5 -160.5 c 128,-1,14
 -168 -144 -168 -144 -199 -139 c 1,15,16
 -198 -159 -198 -159 -198 -175 c 0,17,18
 -198 -198 -198 -198 -201 -208 c 0,19,20
 -213 -249 -213 -249 -265 -249 c 1,21,-1
 -265 -212 l 1,22,23
 -242 -212 -242 -212 -242 -175 c 0,24,25
 -242 -170 -242 -170 -242 -164 c 0,26,27
 -243 -151 -243 -151 -243 -137 c 1,28,-1
 -307 -137 l 1,29,30
 -332 -143 -332 -143 -340.5 -155 c 128,-1,31
 -349 -167 -349 -167 -343.5 -180 c 128,-1,32
 -338 -193 -338 -193 -318 -202.5 c 128,-1,33
 -298 -212 -298 -212 -266 -212 c 1,34,-1
 -266 -249 l 1,35,36
 -307 -249 -307 -249 -333 -235.5 c 128,-1,37
 -359 -222 -359 -222 -370 -202 c 0,38,39
 -378 -189 -378 -189 -378 -175 c 0,40,41
 -378 -169 -378 -169 -376 -162 c 0,42,43
 -371 -141 -371 -141 -349 -126 c 1,44,45
 -365 -101 -365 -101 -391.5 -86 c 128,-1,46
 -418 -71 -418 -71 -444 -69 c 0,47,48
 -447 -69 -447 -69 -451 -69 c 0,49,50
 -474 -69 -474 -69 -492 -81 c 0,51,52
 -514 -95 -514 -95 -520 -128 c 1,53,54
 -502 -122 -502 -122 -486 -122 c 0,55,56
 -472 -122 -472 -122 -461 -127 c 0,57,58
 -436 -136 -436 -136 -426.5 -147.5 c 128,-1,59
 -417 -159 -417 -159 -417 -168 c 2,60,-1
 -417 -179 l 1,61,62
 -419 -211 -419 -211 -454 -224 c 0,63,64
 -472 -231 -472 -231 -490 -231 c 0,65,66
 -506 -231 -506 -231 -522 -225 c 0,67,68
 -558 -211 -558 -211 -561 -180 c 1,69,-1
 -562 -180 l 1,70,71
 -562 -177 -562 -177 -562 -174 c 0,72,73
 -562 -99 -562 -99 -516 -66 c 0,74,75
 -486 -45 -486 -45 -450 -45 c 0,76,77
 -434 -46 -434 -46 -414 -50 c 0,78,79
 -355 -65 -355 -65 -325 -109 c 1,80,-1
 -325 -60 l 1,81,82
 -328 -57 -328 -57 -325 -51 c 0,83,84
 -325 -45 -325 -45 -318 -42 c 128,-1,85
 -311 -39 -311 -39 -304 -41 c 1,0,-1
-350 -265 m 1,86,-1
 -255 -267 l 1,87,88
 -168 -267 -168 -267 -146 -232 c 0,89,90
 -139 -221 -139 -221 -139 -204 c 0,91,92
 -139 -200 -139 -200 -139 -196 c 1,93,-1
 -96 -196 l 1,94,95
 -96 -254 -96 -254 -142 -276 c 0,96,97
 -171 -289 -171 -289 -213 -290 c 0,98,99
 -218 -290 -218 -290 -222 -290 c 0,100,101
 -271 -288 -271 -288 -299 -286 c 0,102,103
 -311 -285 -311 -285 -322 -286 c 0,104,105
 -337 -286 -337 -286 -351 -287 c 1,106,-1
 -354 -287 l 2,107,108
 -408 -287 -408 -287 -415 -296 c 0,109,110
 -420 -303 -420 -303 -400 -318 c 0,111,112
 -395 -322 -395 -322 -396.5 -328.5 c 128,-1,113
 -398 -335 -398 -335 -405 -341.5 c 128,-1,114
 -412 -348 -412 -348 -423 -345 c 128,-1,115
 -434 -342 -434 -342 -440.5 -331.5 c 128,-1,116
 -447 -321 -447 -321 -448.5 -309.5 c 128,-1,117
 -450 -298 -450 -298 -442 -288 c 0,118,119
 -420 -264 -420 -264 -350 -265 c 1,86,-1
-518 -176 m 1,120,-1
 -519 -177 l 1,121,122
 -520 -202 -520 -202 -486 -204 c 0,123,124
 -474 -204 -474 -204 -463 -197.5 c 128,-1,125
 -452 -191 -452 -191 -452 -182.5 c 128,-1,126
 -452 -174 -452 -174 -452 -167 c 128,-1,127
 -452 -160 -452 -160 -463 -154 c 128,-1,128
 -474 -148 -474 -148 -486.5 -148.5 c 128,-1,129
 -499 -149 -499 -149 -509 -155.5 c 128,-1,130
 -519 -162 -519 -162 -518 -176 c 1,120,-1
-291 -70 m 1,131,-1
 -291 -108 l 1,132,-1
 -243 -108 l 1,133,-1
 -243 -70 l 1,134,-1
 -291 -70 l 1,131,-1
-349 -284 m 1,135,-1
 -350 -285 l 1,136,-1
 -349 -284 l 1,135,-1
-308 -124 m 1,137,-1
 -309 -123 l 1,138,-1
 -308 -124 l 1,137,-1
EndSplineSet
Validated: 33
LCarets2: 1 0
Ligature2: "'blwf' Below Base Forms lookup 4 subtable" u1134D uE100
EndChar

StartChar: uE390
Encoding: 58256 58256 93
Width: 0
Flags: MW
LayerCount: 2
Fore
SplineSet
-390 -181 m 1,0,1
 -392 -189 -392 -189 -409 -189 c 128,-1,2
 -426 -189 -426 -189 -426 -180 c 2,3,-1
 -426 -160 l 2,4,5
 -426 -100 -426 -100 -460 -68 c 0,6,7
 -483 -46 -483 -46 -507 -47 c 0,8,9
 -514 -47 -514 -47 -522 -49 c 0,10,11
 -536 -53 -536 -53 -546 -66 c 128,-1,12
 -556 -79 -556 -79 -556 -99 c 1,13,14
 -541 -91 -541 -91 -523 -91 c 0,15,16
 -509 -90 -509 -90 -493 -96 c 0,17,18
 -478 -102 -478 -102 -467.5 -114 c 128,-1,19
 -457 -126 -457 -126 -457 -143 c 1,20,-1
 -495 -143 l 1,21,22
 -495 -127 -495 -127 -503 -120 c 128,-1,23
 -511 -113 -511 -113 -521 -113 c 256,24,25
 -531 -113 -531 -113 -539 -120 c 128,-1,26
 -547 -127 -547 -127 -547 -142 c 128,-1,27
 -547 -157 -547 -157 -539 -164.5 c 128,-1,28
 -531 -172 -531 -172 -521 -172 c 256,29,30
 -511 -172 -511 -172 -503 -164.5 c 128,-1,31
 -495 -157 -495 -157 -495 -143 c 1,32,-1
 -457 -143 l 1,33,34
 -458 -174 -458 -174 -490 -188 c 0,35,36
 -508 -195 -508 -195 -523 -195 c 0,37,38
 -533 -195 -533 -195 -541 -192 c 0,39,40
 -564 -184 -564 -184 -574 -174 c 0,41,42
 -586 -160 -586 -160 -586 -143 c 0,43,44
 -588 -127 -588 -127 -588 -113 c 0,45,46
 -588 -70 -588 -70 -566 -44 c 0,47,48
 -546 -21 -546 -21 -516 -21 c 0,49,50
 -508 -20 -508 -20 -498 -22 c 0,51,52
 -456 -29 -456 -29 -426 -65 c 1,53,-1
 -426 -31 l 2,54,55
 -426 -26 -426 -26 -418 -24 c 1,56,57
 -415 -19 -415 -19 -408 -19 c 2,58,-1
 -247 -19 l 2,59,60
 -236 -19 -236 -19 -236 -33.5 c 128,-1,61
 -236 -48 -236 -48 -247 -48 c 2,62,-1
 -294 -48 l 1,63,-1
 -294 -110 l 1,64,65
 -276 -102 -276 -102 -259 -102 c 0,66,67
 -239 -102 -239 -102 -220 -112 c 0,68,69
 -181 -133 -181 -133 -181 -178 c 1,70,-1
 -227 -178 l 1,71,72
 -227 -138 -227 -138 -253 -128 c 0,73,74
 -259 -126 -259 -126 -264 -126 c 0,75,76
 -281 -126 -281 -126 -294 -150 c 1,77,-1
 -294 -160 l 2,78,79
 -294 -174 -294 -174 -317 -174 c 128,-1,80
 -340 -174 -340 -174 -340 -160 c 2,81,-1
 -340 -48 l 1,82,-1
 -390 -48 l 1,83,-1
 -390 -181 l 1,0,1
-294 -237 m 2,84,85
 -227 -237 -227 -237 -227 -179 c 1,86,-1
 -181 -179 l 1,87,88
 -180 -210 -180 -210 -208 -236 c 0,89,90
 -238 -264 -238 -264 -294 -264 c 2,91,-1
 -522 -264 l 2,92,93
 -534 -264 -534 -264 -534 -250.5 c 128,-1,94
 -534 -237 -534 -237 -522 -237 c 2,95,-1
 -294 -237 l 2,84,85
EndSplineSet
Validated: 37
LCarets2: 1 0
Ligature2: "'blwf' Below Base Forms lookup 4 subtable" u1134D uE101
EndChar

StartChar: uE391
Encoding: 58257 58257 94
Width: 0
Flags: MW
LayerCount: 2
Fore
SplineSet
-499 -98 m 1,0,1
 -502 -65 -502 -65 -502 -51 c 1,2,-1
 -618 -51 l 1,3,-1
 -618 -24 l 1,4,-1
 -619 -51 l 1,5,6
 -639 -51 -639 -51 -647 -58 c 0,7,8
 -655 -64 -655 -64 -657 -80 c 0,9,10
 -658 -90 -658 -90 -658 -106 c 0,11,12
 -658 -114 -658 -114 -658 -122 c 0,13,14
 -657 -148 -657 -148 -657 -186 c 1,15,-1
 -658 -186 l 1,16,17
 -658 -236 -658 -236 -698 -257 c 0,18,19
 -717 -267 -717 -267 -735 -267 c 0,20,21
 -752 -267 -752 -267 -770 -258 c 0,22,23
 -808 -237 -808 -237 -808 -189 c 2,24,-1
 -808 -35 l 1,25,-1
 -810 -35 l 1,26,27
 -810 -26 -810 -26 -795 -26 c 256,28,29
 -778 -26 -778 -26 -778 -35 c 2,30,-1
 -778 -186 l 2,31,32
 -778 -212 -778 -212 -764.5 -224 c 128,-1,33
 -751 -236 -751 -236 -734.5 -236 c 128,-1,34
 -718 -236 -718 -236 -706 -224 c 0,35,36
 -695 -214 -695 -214 -695 -194 c 0,37,38
 -695 -191 -695 -191 -695 -187 c 1,39,-1
 -690 -186 l 1,40,-1
 -695 -186 l 1,41,-1
 -696 -111 l 2,42,43
 -696 -84 -696 -84 -690 -65 c 0,44,45
 -678 -24 -678 -24 -618 -22 c 1,46,-1
 -425 -22 l 2,47,48
 -414 -22 -414 -22 -414 -36.5 c 128,-1,49
 -414 -51 -414 -51 -425 -51 c 2,50,-1
 -461 -51 l 1,51,-1
 -461 -100 l 1,52,53
 -400 -110 -400 -110 -378 -154 c 0,54,55
 -372 -166 -372 -166 -372 -182 c 0,56,57
 -372 -225 -372 -225 -412 -245 c 1,58,59
 -324 -245 -324 -245 -237 -245 c 1,60,-1
 -237 -48 l 1,61,62
 -238 -40 -238 -40 -230.5 -35 c 128,-1,63
 -223 -30 -223 -30 -215 -30 c 0,64,65
 -192 -29 -192 -29 -192 -44 c 2,66,-1
 -192 -252 l 1,67,68
 -188 -258 -188 -258 -192 -268 c 1,69,-1
 -588 -268 l 1,70,-1
 -588 -267 l 1,71,-1
 -589 -267 l 1,72,-1
 -588 -265 l 1,73,-1
 -588 -245 l 1,74,75
 -499 -245 -499 -245 -472 -238.5 c 128,-1,76
 -445 -232 -445 -232 -431 -220 c 128,-1,77
 -417 -208 -417 -208 -412 -186 c 1,78,79
 -412 -164 -412 -164 -426.5 -147.5 c 128,-1,80
 -441 -131 -441 -131 -461 -124 c 1,81,-1
 -461 -174 l 1,82,83
 -459 -180 -459 -180 -459 -191 c 128,-1,84
 -459 -202 -459 -202 -468.5 -213 c 128,-1,85
 -478 -224 -478 -224 -493 -230 c 128,-1,86
 -508 -236 -508 -236 -525.5 -236 c 128,-1,87
 -543 -236 -543 -236 -558 -230 c 0,88,89
 -593 -217 -593 -217 -593 -186 c 2,90,-1
 -593 -181 l 1,91,92
 -586 -144 -586 -144 -558 -122 c 0,93,94
 -536 -102 -536 -102 -499 -98 c 1,0,1
-555 -186 m 1,95,-1
 -556 -186 l 1,96,97
 -556 -197 -556 -197 -546.5 -203.5 c 128,-1,98
 -537 -210 -537 -210 -525.5 -210.5 c 128,-1,99
 -514 -211 -514 -211 -504 -204.5 c 128,-1,100
 -494 -198 -494 -198 -494 -186 c 1,101,-1
 -495 -186 l 1,102,103
 -495 -173 -495 -173 -504.5 -167.5 c 128,-1,104
 -514 -162 -514 -162 -525 -162.5 c 128,-1,105
 -536 -163 -536 -163 -545.5 -169.5 c 128,-1,106
 -555 -176 -555 -176 -555 -186 c 1,95,-1
-495 -141 m 1,107,-1
 -498 -120 l 1,108,109
 -519 -122 -519 -122 -534 -136 c 1,110,111
 -530 -136 -530 -136 -526 -136 c 0,112,113
 -511 -136 -511 -136 -495 -141 c 1,107,-1
EndSplineSet
Validated: 1
LCarets2: 1 0
Ligature2: "'blwf' Below Base Forms lookup 4 subtable" u1134D uE103
EndChar

StartChar: uE392
Encoding: 58258 58258 95
Width: 0
Flags: MW
LayerCount: 2
Fore
SplineSet
-213 -215 m 0,0,1
 -214 -206 -214 -206 -204 -207 c 0,2,3
 -186 -209 -186 -209 -186 -219 c 0,4,5
 -186 -250 -186 -250 -214 -262 c 0,6,7
 -226 -268 -226 -268 -239.5 -267.5 c 0,8,9
 -253 -266 -253 -266 -265 -262 c 0,10,11
 -294 -251 -294 -251 -294 -224 c 1,12,-1
 -291 -217 l 1,13,14
 -289 -188 -289 -188 -230 -162 c 0,15,16
 -174 -138 -174 -138 -174 -90 c 1,17,-1
 -175 -90 l 1,18,19
 -180 -66 -180 -66 -198 -56 c 0,20,21
 -211 -49 -211 -49 -224 -50 c 0,22,23
 -228 -50 -228 -50 -234 -50 c 0,24,25
 -254 -54 -254 -54 -272.5 -69 c 128,-1,26
 -291 -84 -291 -84 -298 -108 c 1,27,-1
 -304 -113 l 1,28,29
 -327 -116 -327 -116 -327 -103 c 2,30,-1
 -327 -99 l 2,31,32
 -326 -68 -326 -68 -356 -58 c 0,33,34
 -367 -54 -367 -54 -378 -53 c 0,35,36
 -394 -53 -394 -53 -407 -63 c 1,37,38
 -385 -63 -385 -63 -369.5 -74 c 128,-1,39
 -354 -85 -354 -85 -354 -108 c 1,40,-1
 -357 -108 l 1,41,42
 -355 -108 -355 -108 -353 -108 c 1,43,44
 -352 -141 -352 -141 -380 -155 c 0,45,46
 -394 -162 -394 -162 -408 -162 c 0,47,48
 -420 -162 -420 -162 -432 -157 c 0,49,50
 -463 -144 -463 -144 -463 -108 c 128,-1,51
 -463 -72 -463 -72 -444 -51 c 128,-1,52
 -425 -30 -425 -30 -399 -25 c 0,53,54
 -391 -23 -391 -23 -382 -23 c 0,55,56
 -364 -22 -364 -22 -348 -30 c 0,57,58
 -322 -40 -322 -40 -307 -65 c 1,59,60
 -289 -40 -289 -40 -260 -30 c 0,61,62
 -238 -22 -238 -22 -217 -23 c 0,63,64
 -210 -24 -210 -24 -202 -24 c 0,65,66
 -174 -28 -174 -28 -152 -44 c 128,-1,67
 -130 -60 -130 -60 -126 -92 c 1,68,-1
 -127 -92 l 1,69,-1
 -126 -96 l 1,70,71
 -128 -150 -128 -150 -188 -174 c 0,72,73
 -204 -180 -204 -180 -220 -186 c 0,74,75
 -258 -201 -258 -201 -267 -219 c 1,76,77
 -267 -234 -267 -234 -258.5 -241 c 128,-1,78
 -250 -248 -250 -248 -239.5 -247 c 128,-1,79
 -229 -246 -229 -246 -221 -238 c 128,-1,80
 -213 -230 -213 -230 -213 -215 c 0,0,1
-426 -108 m 0,81,82
 -426 -123 -426 -123 -419 -130.5 c 128,-1,83
 -412 -138 -412 -138 -404.5 -138 c 128,-1,84
 -397 -138 -397 -138 -390 -130.5 c 128,-1,85
 -383 -123 -383 -123 -383 -109 c 1,86,87
 -387 -108 -387 -108 -382 -108 c 1,88,89
 -383 -98 -383 -98 -391 -93 c 128,-1,90
 -399 -88 -399 -88 -407 -88.5 c 128,-1,91
 -415 -89 -415 -89 -421.5 -94 c 128,-1,92
 -428 -99 -428 -99 -426 -108 c 0,81,82
EndSplineSet
Validated: 37
LCarets2: 1 0
Ligature2: "'blwf' Below Base Forms lookup 4 subtable" u1134D uE104
EndChar

StartChar: uE393
Encoding: 58259 58259 96
Width: 0
Flags: MW
LayerCount: 2
Fore
SplineSet
-244 -57 m 256,0,1
 -244 -70 -244 -70 -257 -70 c 2,2,-1
 -301 -70 l 1,3,-1
 -301 -129 l 1,4,5
 -282 -121 -282 -121 -263 -121 c 0,6,7
 -241 -121 -241 -121 -217 -131 c 0,8,9
 -198 -139 -198 -139 -185 -153 c 128,-1,10
 -172 -167 -172 -167 -172 -185 c 1,11,-1
 -213 -185 l 1,12,13
 -213 -171 -213 -171 -225.5 -161 c 128,-1,14
 -238 -151 -238 -151 -253.5 -147.5 c 128,-1,15
 -269 -144 -269 -144 -283 -151 c 128,-1,16
 -297 -158 -297 -158 -301 -178 c 1,17,-1
 -301 -186 l 2,18,19
 -301 -187 -301 -187 -302 -190 c 1,20,-1
 -301 -195 l 1,21,22
 -302 -202 -302 -202 -309 -205.5 c 128,-1,23
 -316 -209 -316 -209 -324 -208 c 0,24,25
 -344 -206 -344 -206 -344 -192 c 2,26,-1
 -344 -70 l 1,27,-1
 -394 -70 l 1,28,-1
 -394 -259 l 1,29,-1
 -393 -259 l 1,30,31
 -393 -268 -393 -268 -410 -268 c 256,32,33
 -427 -268 -427 -268 -427 -259 c 2,34,-1
 -427 -58 l 2,35,36
 -427 -52 -427 -52 -419 -49 c 0,37,38
 -416 -44 -416 -44 -409 -43 c 1,39,-1
 -257 -43 l 2,40,41
 -251 -43 -251 -43 -247.5 -47.5 c 128,-1,42
 -244 -52 -244 -52 -244 -57 c 256,0,1
-95 -276 m 128,-1,44
 -95 -290 -95 -290 -106 -290 c 2,45,-1
 -193 -290 l 1,46,-1
 -193 -348 l 2,47,48
 -193 -355 -193 -355 -200 -359 c 128,-1,49
 -207 -363 -207 -363 -215 -363 c 256,50,51
 -223 -363 -223 -363 -229.5 -359 c 128,-1,52
 -236 -355 -236 -355 -236 -348 c 2,53,-1
 -236 -290 l 1,54,-1
 -345 -290 l 2,55,56
 -356 -290 -356 -290 -358 -278 c 0,57,58
 -359 -268 -359 -268 -350 -263 c 0,59,60
 -350 -262 -350 -262 -349 -262 c 256,61,62
 -254 -262 -254 -262 -224 -221 c 0,63,64
 -214 -207 -214 -207 -214 -186 c 1,65,-1
 -172 -186 l 1,66,67
 -172 -232 -172 -232 -218 -262 c 1,68,-1
 -106 -262 l 2,69,43
 -95 -262 -95 -262 -95 -276 c 128,-1,44
EndSplineSet
Validated: 1
LCarets2: 1 0
Ligature2: "'blwf' Below Base Forms lookup 4 subtable" u1134D uE10D
EndChar

StartChar: uE394
Encoding: 58260 58260 97
Width: 0
Flags: MW
LayerCount: 2
Fore
SplineSet
-561 -144 m 128,-1,1
 -569 -151 -569 -151 -569 -166 c 128,-1,2
 -569 -181 -569 -181 -561 -189.5 c 128,-1,3
 -553 -198 -553 -198 -543.5 -199 c 128,-1,4
 -534 -200 -534 -200 -526 -192 c 128,-1,5
 -518 -184 -518 -184 -518 -167.5 c 128,-1,6
 -518 -151 -518 -151 -526 -144 c 128,-1,7
 -534 -137 -534 -137 -543.5 -137 c 128,-1,0
 -553 -137 -553 -137 -561 -144 c 128,-1,1
-477 -232 m 0,8,9
 -482 -232 -482 -232 -484.5 -219 c 0,10,11
 -486 -206 -486 -206 -472 -203 c 0,12,13
 -466 -202 -466 -202 -454 -188.5 c 128,-1,14
 -442 -175 -442 -175 -442 -147 c 1,15,-1
 -440 -147 l 1,16,17
 -442 -123 -442 -123 -456 -104 c 128,-1,18
 -470 -85 -470 -85 -489 -81 c 0,19,20
 -495 -80 -495 -80 -501 -80 c 0,21,22
 -514 -80 -514 -80 -528 -86 c 0,23,24
 -548 -94 -548 -94 -558 -116 c 1,25,26
 -550 -114 -550 -114 -543 -114 c 0,27,28
 -526 -114 -526 -114 -509 -124 c 0,29,30
 -485 -138 -485 -138 -485 -162 c 128,-1,31
 -485 -186 -485 -186 -494 -199 c 0,32,33
 -509 -222 -509 -222 -537 -222 c 0,34,35
 -540 -222 -540 -222 -542 -222 c 0,36,37
 -574 -220 -574 -220 -592 -193 c 0,38,39
 -602 -179 -602 -179 -602 -168.5 c 128,-1,40
 -602 -158 -602 -158 -601 -156 c 1,41,-1
 -601 -154 l 2,42,43
 -601 -100 -601 -100 -571 -72 c 128,-1,44
 -541 -44 -541 -44 -500.5 -44 c 128,-1,45
 -460 -44 -460 -44 -430 -71 c 0,46,47
 -415 -83 -415 -83 -405.5 -106.5 c 128,-1,48
 -396 -130 -396 -130 -396 -155 c 0,49,50
 -399 -184 -399 -184 -419 -203 c 1,51,-1
 -326 -203 l 1,52,-1
 -326 -102 l 2,53,54
 -326 -62 -326 -62 -288 -49 c 0,55,56
 -276 -44 -276 -44 -266 -44 c 0,57,58
 -240 -44 -240 -44 -223 -72 c 1,59,60
 -199 -46 -199 -46 -161 -44 c 0,61,62
 -158 -44 -158 -44 -155 -43 c 0,63,64
 -122 -44 -122 -44 -96 -70 c 0,65,66
 -73 -93 -73 -93 -73 -142 c 0,67,68
 -73 -153 -73 -153 -74 -164 c 0,69,70
 -77 -197 -77 -197 -114 -230 c 1,71,72
 -173 -268 -173 -268 -173 -296 c 0,73,74
 -172 -302 -172 -302 -168 -310 c 0,75,76
 -155 -332 -155 -332 -137 -333 c 0,77,78
 -129 -333 -129 -333 -119 -328 c 0,79,80
 -111 -324 -111 -324 -111 -317 c 0,81,82
 -111 -307 -111 -307 -126 -289 c 1,83,84
 -127 -269 -127 -269 -121 -267 c 0,85,86
 -117 -266 -117 -266 -112 -266 c 0,87,88
 -99 -266 -99 -266 -88 -280 c 0,89,90
 -79 -291 -79 -291 -79 -302 c 0,91,92
 -79 -311 -79 -311 -84 -321 c 0,93,94
 -95 -344 -95 -344 -125 -351 c 0,95,96
 -134 -353 -134 -353 -143 -353 c 0,97,98
 -165 -353 -165 -353 -187 -341 c 1,99,100
 -208 -325 -208 -325 -208 -304 c 0,101,102
 -208 -289 -208 -289 -198 -272 c 1,103,-1
 -152 -215 l 2,104,105
 -125 -181 -125 -181 -121 -163 c 1,106,-1
 -121 -162 l 2,107,108
 -121 -121 -121 -121 -133 -100 c 0,109,110
 -144 -80 -144 -80 -160 -74 c 0,111,112
 -166 -72 -166 -72 -171 -72 c 0,113,114
 -181 -72 -181 -72 -191 -78 c 0,115,116
 -206 -88 -206 -88 -211 -110 c 1,117,-1
 -210 -130 l 1,118,-1
 -209 -130 l 1,119,-1
 -209 -217 l 2,120,121
 -209 -224 -209 -224 -215.5 -228 c 128,-1,122
 -222 -232 -222 -232 -230 -232 c 128,-1,123
 -238 -232 -238 -232 -244.5 -228 c 128,-1,124
 -251 -224 -251 -224 -251 -217 c 2,125,-1
 -252 -139 l 1,126,-1
 -252 -131 l 2,127,128
 -252 -114 -252 -114 -259 -103 c 0,129,130
 -267 -89 -267 -89 -277 -89 c 0,131,132
 -282 -89 -282 -89 -287 -93 c 1,133,-1
 -293 -107 l 1,134,-1
 -293 -218 l 1,135,136
 -296 -232 -296 -232 -312 -232 c 0,137,138
 -395 -232 -395 -232 -477 -232 c 0,8,9
EndSplineSet
Validated: 1
LCarets2: 1 0
Ligature2: "'blwf' Below Base Forms lookup 4 subtable" u1134D uE10E
EndChar

StartChar: uE395
Encoding: 58261 58261 98
Width: 0
Flags: MW
LayerCount: 2
Fore
SplineSet
-370 -30 m 256,0,1
 -370 -43 -370 -43 -383 -43 c 2,2,-1
 -427 -43 l 1,3,-1
 -427 -101 l 1,4,5
 -410 -95 -410 -95 -391 -95 c 0,6,7
 -388 -95 -388 -95 -385 -95 c 0,8,9
 -339 -97 -339 -97 -310 -127 c 1,10,-1
 -306 -147 l 1,11,12
 -303 -154 -303 -154 -303 -163 c 0,13,14
 -303 -174 -303 -174 -308 -188 c 1,15,-1
 -307 -188 l 1,16,17
 -317 -203 -317 -203 -316.5 -216.5 c 128,-1,18
 -316 -230 -316 -230 -310 -234.5 c 128,-1,19
 -304 -239 -304 -239 -289 -236 c 1,20,-1
 -289 -237 l 1,21,22
 -283 -237 -283 -237 -273 -230 c 0,23,24
 -249 -213 -249 -213 -249 -186 c 0,25,26
 -249 -165 -249 -165 -260 -154 c 0,27,28
 -262 -152 -262 -152 -256 -146 c 0,29,30
 -244 -137 -244 -137 -234 -142 c 0,31,32
 -222 -148 -222 -148 -211 -182 c 128,-1,33
 -200 -216 -200 -216 -196 -221 c 0,34,35
 -182 -237 -182 -237 -168 -237 c 0,36,37
 -167 -236 l 0,38,39
 -152 -236 -152 -236 -141 -219 c 0,40,41
 -132 -206 -132 -206 -132 -182 c 0,42,43
 -132 -175 -132 -175 -133 -168 c 1,44,-1
 -136 -147 l 1,45,46
 -146 -109 -146 -109 -184 -109 c 1,47,-1
 -201 -107 l 1,48,49
 -211 -103 -211 -103 -205 -94 c 0,50,51
 -201 -85 -201 -85 -187 -85 c 0,52,53
 -159 -85 -159 -85 -127 -110 c 0,54,55
 -98 -133 -98 -133 -99 -181 c 0,56,57
 -99 -186 -99 -186 -99 -191 c 1,58,-1
 -111 -230 l 1,59,60
 -126 -254 -126 -254 -148 -260 c 0,61,62
 -157 -263 -157 -263 -165 -262 c 0,63,64
 -178 -262 -178 -262 -192 -256 c 0,65,66
 -214 -246 -214 -246 -230 -223 c 1,67,68
 -254 -261 -254 -261 -291 -263 c 1,69,-1
 -291 -262 l 1,70,71
 -322 -262 -322 -262 -335 -253.5 c 128,-1,72
 -348 -245 -348 -245 -354 -228 c 0,73,74
 -356 -222 -356 -222 -357 -216 c 0,75,76
 -357 -206 -357 -206 -350 -196 c 0,77,78
 -339 -181 -339 -181 -339 -162.5 c 128,-1,79
 -339 -144 -339 -144 -351.5 -134 c 128,-1,80
 -364 -124 -364 -124 -379.5 -120.5 c 128,-1,81
 -395 -117 -395 -117 -409 -124 c 128,-1,82
 -423 -131 -423 -131 -427 -151 c 1,83,-1
 -427 -158 l 2,84,85
 -427 -160 -427 -160 -429 -163 c 1,86,-1
 -427 -168 l 1,87,88
 -428 -175 -428 -175 -435 -178.5 c 128,-1,89
 -442 -182 -442 -182 -450 -181 c 0,90,91
 -471 -178 -471 -178 -471 -165 c 2,92,-1
 -471 -43 l 1,93,-1
 -520 -43 l 1,94,-1
 -520 -232 l 1,95,-1
 -519 -232 l 1,96,97
 -519 -241 -519 -241 -536 -241 c 128,-1,98
 -553 -241 -553 -241 -553 -232 c 2,99,-1
 -553 -31 l 2,100,101
 -553 -25 -553 -25 -546 -22 c 0,102,103
 -542 -17 -542 -17 -535 -16 c 1,104,-1
 -383 -16 l 2,105,106
 -377 -16 -377 -16 -373.5 -20.5 c 128,-1,107
 -370 -25 -370 -25 -370 -30 c 256,0,1
-340 -158 m 1024,108,-1
EndSplineSet
Validated: 33
LCarets2: 1 0
Ligature2: "'blwf' Below Base Forms lookup 4 subtable" u1134D uE111
EndChar

StartChar: uE400
Encoding: 58368 58368 99
Width: 508
Flags: MW
LayerCount: 2
Fore
SplineSet
304 384 m 0,0,1
 304 414 304 414 288 414 c 2,2,-1
 112 414 l 2,3,4
 101 414 101 414 90 407.5 c 128,-1,5
 79 401 79 401 79 381 c 2,6,-1
 79 265 l 1,7,8
 46 252 46 252 27.5 226 c 0,9,10
 8 200 8 200 4 171 c 0,11,12
 2 161 2 161 3 151 c 0,13,14
 2 132 2 132 8 112 c 0,15,16
 27 46 27 46 95 16 c 0,17,18
 131 0 131 0 175.5 0 c 128,-1,19
 220 0 220 0 242.5 25.5 c 128,-1,20
 265 51 265 51 268 79.5 c 128,-1,21
 271 108 271 108 271 217 c 1,22,23
 274 217 274 217 277 217 c 0,24,25
 303 218 303 218 325 210 c 0,26,27
 350 202 350 202 370 193 c 1,28,29
 358 176 358 176 355.5 157.5 c 128,-1,30
 353 139 353 139 350 127 c 128,-1,31
 347 115 347 115 347 88 c 128,-1,32
 347 61 347 61 354.5 44 c 128,-1,33
 362 27 362 27 377 13.5 c 128,-1,34
 392 0 392 0 410 0 c 0,35,36
 480 0 480 0 479 105 c 0,37,38
 479 155 479 155 440 202 c 0,39,40
 430 214 430 214 424 223 c 1,41,42
 426 228 426 228 428 234.5 c 128,-1,43
 430 241 430 241 433 249.5 c 128,-1,44
 436 258 436 258 438 268 c 128,-1,45
 440 278 440 278 446 308 c 0,46,47
 449 322 449 322 449 335 c 0,48,49
 449 352 449 352 445 366 c 0,50,51
 432 414 432 414 392 414 c 0,52,53
 356 414 356 414 356 390 c 4,54,55
 356 374 356 374 370 371 c 24,56,57
 394 366 394 366 398 364 c 0,58,59
 410 354 410 354 410 337 c 0,60,61
 410 309 410 309 389 243 c 1,62,63
 336 263 336 263 270 268 c 1,64,-1
 270 356 l 1,65,-1
 283 356 l 2,66,67
 293 356 293 356 298.5 365 c 128,-1,68
 304 374 304 374 304 384 c 0,0,1
203 121 m 2,69,70
 203 71 203 71 170 69 c 0,71,72
 119 69 119 69 88 88.5 c 128,-1,73
 57 108 57 108 52 128 c 0,74,75
 50 134 50 134 50 142 c 0,76,77
 50 159 50 159 58 182 c 0,78,79
 70 215 70 215 106 215 c 2,80,-1
 203 215 l 1,81,-1
 203 121 l 2,69,70
131 356 m 1,82,-1
 204 356 l 1,83,-1
 204 269 l 1,84,-1
 131 269 l 1,85,-1
 131 356 l 1,82,-1
404 171 m 1,86,87
 425 150 425 150 431 133.5 c 128,-1,88
 437 117 437 117 437 91 c 128,-1,89
 437 65 437 65 433 55.5 c 128,-1,90
 429 46 429 46 421 42 c 128,-1,91
 413 38 413 38 404 42.5 c 128,-1,92
 395 47 395 47 391 62 c 128,-1,93
 387 77 387 77 387 104 c 128,-1,94
 387 131 387 131 404 171 c 1,86,87
EndSplineSet
Validated: 41
LCarets2: 1 0
Ligature2: "'haln' Halant Forms lookup 6 subtable" u11324 u1134D
EndChar

StartChar: uE401
Encoding: 58369 58369 100
Width: 512
Flags: MW
LayerCount: 2
Fore
SplineSet
224 256 m 1,0,1
 264 279 264 279 303 279 c 0,2,3
 322 279 322 279 341 274 c 1,4,5
 348 284 348 284 352 296 c 6,6,-1
 359 341 l 6,7,8
 358 355 358 355 350 361 c 132,-1,9
 342 367 342 367 317 371 c 4,10,11
 303 373 303 373 303.5 386.5 c 132,-1,12
 304 400 304 400 313 407 c 132,-1,13
 322 414 322 414 340 414 c 4,14,15
 382 414 382 414 393 366 c 20,16,17
 397 350 397 350 397 334 c 0,18,19
 397 297 397 297 376 260 c 1,20,21
 399 246 399 246 419 214.5 c 128,-1,22
 439 183 439 183 439 152 c 128,-1,23
 439 121 439 121 436.5 95.5 c 128,-1,24
 434 70 434 70 424 48 c 0,25,26
 401 0 401 0 347 0 c 1,27,28
 327 0 327 0 310 17 c 128,-1,29
 293 34 293 34 287 63 c 0,30,31
 284 80 284 80 284 98 c 0,32,33
 284 156 284 156 319 230 c 1,34,35
 299 239 299 239 281 239 c 0,36,37
 270 240 270 240 259 236 c 0,38,39
 226 225 226 225 226 176 c 0,40,41
 226 169 226 169 202 168 c 0,42,43
 193 168 193 168 185 168 c 0,44,45
 174 168 174 168 169 169 c 0,46,47
 161 171 161 171 158.5 172.5 c 128,-1,48
 156 174 156 174 156 185 c 2,49,-1
 156 366 l 1,50,-1
 80 366 l 1,51,-1
 80 97 l 2,52,53
 80 89 80 89 71.5 84.5 c 128,-1,54
 63 80 63 80 53 80 c 256,55,56
 43 80 43 80 35 84.5 c 128,-1,57
 27 89 27 89 27 97 c 2,58,-1
 27 378 l 2,59,60
 27 412 27 412 51 412 c 2,61,-1
 241 412 l 2,62,63
 251 412 251 412 256.5 404.5 c 128,-1,64
 262 397 262 397 262 388.5 c 128,-1,65
 262 380 262 380 256.5 373 c 128,-1,66
 251 366 251 366 241 366 c 2,67,-1
 224 366 l 1,68,-1
 224 256 l 1,0,1
388 122 m 258,69,-1
 388 150 l 2,70,71
 388 162 388 162 378 179 c 128,-1,72
 368 196 368 196 355 208 c 1,73,74
 326 130 326 130 326 89 c 0,75,76
 326 53 326 53 348 46 c 1,77,78
 388 46 388 46 388 122 c 258,69,-1
EndSplineSet
Validated: 1
LCarets2: 1 0
Ligature2: "'haln' Halant Forms lookup 6 subtable" u11328 u1134D
EndChar

StartChar: uE402
Encoding: 58370 58370 101
Width: 561
Flags: MW
LayerCount: 2
Fore
SplineSet
399 79 m 0,0,1
 399 113 399 113 355 113 c 0,2,3
 330 112 330 112 288 100 c 0,4,5
 274 96 274 96 274 86 c 0,6,7
 274 35 274 35 348 35 c 0,8,9
 399 35 399 35 399 79 c 0,0,1
406 396 m 0,10,11
 504 364 504 364 504 290 c 0,12,13
 504 216 504 216 380 166 c 0,14,15
 355 156 355 156 319 137 c 1,16,17
 332 143 332 143 348 143 c 0,18,19
 392 143 392 143 416.5 124 c 128,-1,20
 441 105 441 105 441 80 c 0,21,22
 440 36 440 36 396 15 c 0,23,24
 366 0 366 0 334 -0 c 0,25,26
 302 0 302 0 264.5 18 c 128,-1,27
 227 36 227 36 227 66.5 c 128,-1,28
 227 97 227 97 231 103 c 128,-1,29
 235 109 235 109 237 113 c 1,30,31
 171 133 171 133 100 195 c 128,-1,32
 29 257 29 257 29 339 c 2,33,-1
 29 439 l 1,34,-1
 72 439 l 1,35,-1
 72 342 l 2,36,37
 72 275 72 275 135.5 217.5 c 128,-1,38
 199 160 199 160 265 144 c 1,39,40
 292 163 292 163 324.5 180 c 128,-1,41
 357 197 357 197 386 214 c 0,42,43
 454 252 454 252 454 305 c 0,44,45
 454 350 454 350 355 366 c 0,46,47
 336 369 336 369 318 369 c 0,48,49
 261 369 261 369 237 354 c 5,50,51
 263 354 263 354 302 324 c 0,52,53
 323 308 323 308 323 283 c 0,54,55
 323 258 323 258 305.5 239.5 c 128,-1,56
 288 221 288 221 249.5 221 c 128,-1,57
 211 221 211 221 179 242.5 c 128,-1,58
 147 264 147 264 147 286 c 24,59,60
 147 327 147 327 174 356 c 0,61,62
 224 410 224 410 323 410 c 0,63,64
 363 410 363 410 406 396 c 0,10,11
238 263 m 0,65,66
 272 263 272 263 272 284 c 0,67,68
 272 298 272 298 258 312 c 0,69,70
 244 326 244 326 228 326 c 0,71,72
 210 326 210 326 206 320 c 0,73,74
 202 314 202 314 200 303 c 0,75,76
 201 263 201 263 238 263 c 0,65,66
EndSplineSet
Validated: 1
LCarets2: 1 0
Ligature2: "'haln' Halant Forms lookup 6 subtable" u1132E u1134D
EndChar

StartChar: uE403
Encoding: 58371 58371 102
Width: 716
Flags: MW
LayerCount: 2
Fore
SplineSet
592 209 m 1,0,1
 565 144 565 144 565 113 c 2,2,-1
 565 83 l 2,3,4
 565 48 565 48 584 47 c 1,5,6
 624 47 624 47 624 123 c 2,7,-1
 624 144 l 2,8,9
 624 181 624 181 592 209 c 1,0,1
486 262 m 1,10,-1
 549 265 l 1,11,12
 572 265 572 265 574 264 c 1,13,14
 580 275 l 1,15,16
 586 284 586 284 588 296 c 6,17,-1
 596 341 l 2,18,19
 595 355 595 355 587 361 c 128,-1,20
 579 367 579 367 554 371 c 0,21,22
 540 373 540 373 540.5 386.5 c 128,-1,23
 541 400 541 400 550 407 c 0,24,25
 558 414 558 414 576 414 c 0,26,27
 618 413 618 413 630 367 c 0,28,29
 633 355 633 355 633 341 c 0,30,31
 633 305 633 305 610 259 c 1,32,33
 678 222 678 222 678 144 c 2,34,-1
 678 114 l 2,35,36
 678 85 678 85 660 50 c 0,37,38
 634 0 634 0 588 0 c 0,39,40
 562 0 562 0 547 18 c 0,41,42
 522 48 522 48 522 104 c 2,43,-1
 522 134 l 2,44,45
 522 181 522 181 556 231 c 1,46,47
 542 229 542 229 529 229 c 0,48,49
 502 229 502 229 486 196 c 25,50,-1
 486 178 l 2,51,52
 486 167 486 167 474 161.5 c 128,-1,53
 462 156 462 156 448 156 c 128,-1,54
 434 156 434 156 422 161.5 c 128,-1,55
 410 167 410 167 410 178 c 2,56,-1
 410 366 l 1,57,-1
 328 366 l 1,58,-1
 328 143 l 2,59,60
 328 130 328 130 298 130 c 128,-1,61
 268 130 268 130 268 145 c 2,62,-1
 268 173 l 2,63,64
 268 274 268 274 211 331 c 0,65,66
 175 367 175 367 130 367 c 0,67,68
 91 367 91 367 67 336 c 0,69,70
 50 315 50 315 50 280 c 1,71,72
 74 293 74 293 105 293 c 0,73,74
 167 293 167 293 197 251 c 0,75,76
 214 227 214 227 214 201 c 0,77,78
 214 154 214 154 161 132 c 0,79,80
 136 121 136 121 110 121 c 0,81,82
 56 121 56 121 20 156 c 0,83,84
 7 168 7 168 2 200 c 0,85,86
 1 206 1 206 1 254 c 128,-1,87
 1 302 1 302 2 308 c 0,88,89
 8 343 8 343 32 371.5 c 128,-1,90
 56 400 56 400 79 405 c 128,-1,91
 102 410 102 410 120 410 c 0,92,93
 202 410 202 410 268 337 c 1,94,-1
 268 393 l 2,95,96
 268 409 268 409 275 410 c 25,97,98
 277 414 277 414 298 414 c 2,99,-1
 494 414 l 2,100,101
 504 414 504 414 509 406 c 128,-1,102
 514 398 514 398 514 389.5 c 128,-1,103
 514 381 514 381 509 373.5 c 128,-1,104
 504 366 504 366 494 366 c 2,105,-1
 486 366 l 1,106,-1
 486 262 l 1,10,-1
139 170.5 m 128,-1,108
 152 182 152 182 152 203.5 c 128,-1,109
 152 225 152 225 138 241 c 128,-1,110
 124 257 124 257 108 257 c 128,-1,111
 92 257 92 257 78 245 c 128,-1,112
 64 233 64 233 64 208 c 128,-1,113
 64 183 64 183 78 171 c 128,-1,114
 92 159 92 159 109 159 c 128,-1,107
 126 159 126 159 139 170.5 c 128,-1,108
EndSplineSet
Validated: 1
LCarets2: 1 0
Ligature2: "'haln' Halant Forms lookup 6 subtable" uE101 u1134D
EndChar

StartChar: u11302
Encoding: 70402 70402 103
Width: 366
Flags: MW
LayerCount: 2
Fore
SplineSet
345 208 m 0,0,1
 345 176 345 176 322 151.5 c 128,-1,2
 299 127 299 127 264.5 115 c 0,3,4
 230 102 230 102 190 102 c 0,5,6
 188 102 188 102 187 102 c 0,7,8
 150 102 150 102 116 114 c 128,-1,9
 82 126 82 126 58.5 150.5 c 0,10,11
 35 176 35 176 35 208 c 0,12,13
 35 265 35 265 82 293.5 c 128,-1,14
 129 322 129 322 192 322 c 128,-1,15
 255 322 255 322 300 294.5 c 128,-1,16
 345 267 345 267 345 208 c 0,0,1
269 212 m 128,-1,18
 269 244 269 244 245.5 259 c 128,-1,19
 222 274 222 274 191.5 274 c 128,-1,20
 161 274 161 274 136.5 259 c 128,-1,21
 112 244 112 244 112 212 c 128,-1,22
 112 180 112 180 136.5 164 c 128,-1,23
 161 148 161 148 190.5 148 c 128,-1,24
 220 148 220 148 244.5 164 c 128,-1,17
 269 180 269 180 269 212 c 128,-1,18
EndSplineSet
Validated: 1
EndChar

StartChar: u11303
Encoding: 70403 70403 104
Width: 372
Flags: MW
LayerCount: 2
Fore
SplineSet
68 288 m 1,0,-1
 68 294 l 2,1,2
 68 335 68 335 104 359 c 0,3,4
 137 381 137 381 184 381 c 0,5,6
 262 380 262 380 291 332 c 0,7,8
 301 316 301 316 302 294 c 1,9,-1
 302 292 l 1,10,-1
 301 288 l 1,11,12
 300 256 300 256 264 238 c 0,13,14
 232 222 232 222 184 222 c 256,15,16
 110 222 110 222 79 259 c 0,17,18
 69 271 69 271 68 288 c 1,0,-1
68 110 m 2,19,-1
 68 113 l 1,20,21
 72 159 72 159 144 173 c 0,22,23
 164 177 164 177 185.5 177 c 128,-1,24
 207 177 207 177 227.5 173 c 128,-1,25
 248 169 248 169 264 161 c 0,26,27
 300 144 300 144 302 112 c 1,28,-1
 302 110 l 2,29,30
 302 68 302 68 266 42 c 0,31,32
 232 19 232 19 184 18 c 0,33,34
 138 18 138 18 104 42 c 0,35,36
 68 68 68 68 68 110 c 2,19,-1
225 289 m 1,37,-1
 225 294 l 1,38,39
 224 316 224 316 212 326 c 128,-1,40
 200 336 200 336 185.5 336 c 128,-1,41
 171 336 171 336 158.5 325.5 c 128,-1,42
 146 315 146 315 146 294 c 2,43,-1
 146 292 l 2,44,45
 146 281 146 281 158 274.5 c 128,-1,46
 170 268 170 268 184.5 267.5 c 128,-1,47
 199 267 199 267 211 272.5 c 128,-1,48
 223 278 223 278 225 289 c 1,37,-1
225 106 m 1,49,-1
 225 112 l 1,50,51
 221 131 221 131 185 131 c 1,52,53
 171 131 171 131 159 126 c 128,-1,54
 147 121 147 121 146 112 c 1,55,-1
 146 110 l 2,56,57
 146 87 146 87 158 75 c 128,-1,58
 170 63 170 63 184.5 63 c 128,-1,59
 199 63 199 63 211.5 74 c 128,-1,60
 224 85 224 85 225 106 c 1,49,-1
EndSplineSet
Validated: 1
EndChar

StartChar: u11305
Encoding: 70405 70405 105
Width: 613
Flags: MW
LayerCount: 2
Fore
SplineSet
197 357 m 1,0,-1
 197 258 l 1,1,-1
 279 258 l 1,2,-1
 279 357 l 1,3,-1
 197 357 l 1,0,-1
279 211 m 1,4,-1
 171 211 l 1,5,6
 125 201 125 201 104 176 c 0,7,8
 89 158 89 158 89 139 c 0,9,10
 88 132 88 132 90 125 c 0,11,12
 98 99 98 99 134.5 79 c 128,-1,13
 171 59 171 59 241 59 c 0,14,15
 270 58 270 58 278 88 c 0,16,17
 280 95 280 95 279 153 c 0,18,19
 279 177 279 177 279 211 c 1,4,-1
242 2 m 2,20,-1
 238 2 l 2,21,22
 122 2 122 2 72 54 c 0,23,24
 36 91 36 91 35 132 c 0,25,26
 35 149 35 149 41 166 c 0,27,28
 50 194 50 194 74 217 c 128,-1,29
 98 240 98 240 135 251 c 1,30,-1
 135 381 l 2,31,32
 135 397 135 397 165 402 c 1,33,-1
 166 403 l 1,34,-1
 354 403 l 2,35,36
 364 403 364 403 370 396 c 128,-1,37
 376 389 376 389 376 380.5 c 128,-1,38
 376 372 376 372 370.5 364.5 c 128,-1,39
 365 357 365 357 354 357 c 1,40,-1
 354 258 l 1,41,-1
 509 258 l 1,42,-1
 509 306 l 2,43,44
 509 317 509 317 518.5 323.5 c 128,-1,45
 528 330 528 330 540 330 c 0,46,47
 542 330 542 330 544 331 c 0,48,49
 572 331 572 331 572 309 c 2,50,-1
 572 17 l 2,51,52
 572 10 572 10 560 6 c 0,53,54
 544 0 544 0 522 0 c 0,55,56
 495 0 495 0 457 8 c 0,57,58
 398 20 398 20 398 117 c 2,59,-1
 398 211 l 1,60,-1
 354 211 l 1,61,-1
 354 116 l 2,62,63
 354 42 354 42 296 13 c 0,64,65
 274 2 274 2 242 2 c 2,20,-1
509 212 m 1,66,-1
 447 211 l 1,67,-1
 446 114 l 1,68,-1
 446 81 l 2,69,70
 446 56 446 56 456 46.5 c 128,-1,71
 466 37 466 37 492 35 c 2,72,-1
 509 34 l 1,73,-1
 509 212 l 1,66,-1
EndSplineSet
Validated: 33
EndChar

StartChar: u11306
Encoding: 70406 70406 106
Width: 798
Flags: MW
LayerCount: 2
Fore
SplineSet
261 362 m 1,0,-1
 261 261 l 1,1,-1
 341 261 l 1,2,-1
 341 362 l 1,3,-1
 261 362 l 1,0,-1
497 214 m 1,4,-1
 497 119 l 2,5,6
 496 79 496 79 526 48 c 0,7,8
 541 33 541 33 548 33 c 0,9,10
 556 33 556 33 556 49 c 2,11,-1
 556 214 l 1,12,-1
 497 214 l 1,4,-1
234 214 m 1,13,14
 189 204 189 204 169 179 c 0,15,16
 154 160 154 160 154 141 c 0,17,18
 154 134 154 134 156 128 c 0,19,20
 163 102 163 102 199.5 81 c 128,-1,21
 236 60 236 60 302 60 c 2,22,-1
 306 60 l 2,23,24
 324 60 324 60 331 68 c 128,-1,25
 338 76 338 76 341 91 c 1,26,-1
 341 214 l 1,27,-1
 234 214 l 1,13,14
615 197 m 1,28,-1
 615 50 l 2,29,30
 616 26 616 26 600 12 c 0,31,32
 588 0 588 0 565 -0 c 0,33,34
 560 0 560 0 554 0 c 0,35,36
 524 4 524 4 506 18 c 0,37,38
 459 52 459 52 459 119 c 2,39,-1
 459 214 l 1,40,-1
 417 214 l 1,41,-1
 417 175 l 2,42,43
 417 66 417 66 403 42 c 0,44,45
 377 0 377 0 311 0 c 132,-1,46
 245 0 245 0 202.5 17 c 128,-1,47
 160 34 160 34 136.5 58 c 0,48,49
 112 82 112 82 106 112 c 0,50,51
 103 124 103 124 104 136 c 0,52,53
 104 153 104 153 109 169 c 0,54,55
 118 197 118 197 141.5 220 c 128,-1,56
 165 243 165 243 202 254 c 1,57,-1
 202 393 l 2,58,59
 202 409 202 409 231 409 c 2,60,-1
 441 409 l 2,61,62
 461 409 461 409 461 382 c 0,63,64
 461 362 461 362 435 362 c 2,65,-1
 417 362 l 1,66,-1
 417 261 l 1,67,-1
 555 261 l 1,68,-1
 555 324 l 2,69,70
 555 336 555 336 565 342 c 128,-1,71
 575 348 575 348 586.5 348.5 c 128,-1,72
 598 349 598 349 608 344 c 128,-1,73
 618 339 618 339 618 327 c 2,74,-1
 618 249 l 1,75,76
 720 226 720 226 754 156 c 0,77,78
 766 133 766 133 765 118 c 0,79,80
 765 8 765 8 662 -49 c 0,81,82
 575 -97 575 -97 435 -97 c 128,-1,83
 295 -97 295 -97 174.5 -59 c 128,-1,84
 54 -21 54 -21 23 30 c 1,85,-1
 22 31 l 1,86,-1
 79 31 l 1,87,88
 79 13 79 13 107.5 -5 c 128,-1,89
 136 -23 136 -23 181.5 -36 c 128,-1,90
 227 -49 227 -49 284 -57 c 128,-1,91
 341 -65 341 -65 400 -65 c 128,-1,92
 459 -65 459 -65 514 -55 c 0,93,94
 628 -34 628 -34 664 32 c 0,95,96
 680 60 680 60 680 121 c 0,97,98
 680 135 680 135 666 157 c 128,-1,99
 652 179 652 179 615 197 c 1,28,-1
EndSplineSet
Validated: 33
EndChar

StartChar: u11307
Encoding: 70407 70407 107
Width: 613
Flags: MW
LayerCount: 2
Fore
SplineSet
109 237 m 1,0,-1
 106 237 l 1,1,2
 106 222 106 222 114.5 212 c 128,-1,3
 123 202 123 202 132 200.5 c 128,-1,4
 141 199 141 199 149.5 207.5 c 128,-1,5
 158 216 158 216 158 238 c 2,6,-1
 158 243 l 1,7,8
 154 262 154 262 134 262 c 0,9,10
 134 262 134 262 132 262 c 0,11,12
 124 262 124 262 116.5 255.5 c 128,-1,13
 109 249 109 249 109 237 c 1,0,-1
382 47 m 2,14,-1
 548 48 l 2,15,16
 558 48 558 48 563.5 41 c 128,-1,17
 569 34 569 34 569 25.5 c 128,-1,18
 569 17 569 17 563.5 8.5 c 128,-1,19
 558 0 558 0 548 0 c 0,20,21
 493 -1 493 -1 437 -1 c 0,22,23
 409 -0 409 -0 381 -0 c 0,24,25
 297 0 297 0 233.5 0 c 132,-1,26
 170 0 170 0 139 6.5 c 0,27,28
 108 14 108 14 88 22 c 0,29,30
 50 38 50 38 50.5 62.5 c 128,-1,31
 51 87 51 87 73.5 106.5 c 128,-1,32
 96 126 96 126 125 129 c 2,33,-1
 278 146 l 2,34,35
 326 151 326 151 373 167 c 128,-1,36
 420 183 420 183 444 206 c 128,-1,37
 468 229 468 229 468 267.5 c 128,-1,38
 468 306 468 306 449 332.5 c 0,39,40
 430 360 430 360 406 362 c 0,41,42
 404 362 404 362 402 362 c 0,43,44
 380 362 380 362 359 339 c 0,45,46
 336 314 336 314 328 255 c 1,47,48
 333 229 333 229 333 213 c 0,49,50
 333 185 333 185 296 185 c 0,51,52
 283 185 283 185 271.5 191 c 128,-1,53
 260 197 260 197 260 208 c 0,54,55
 260 266 260 266 242 302 c 128,-1,56
 224 338 224 338 200 350 c 0,57,58
 188 356 188 356 176 357 c 0,59,60
 164 357 164 357 151 350 c 0,61,62
 127 337 127 337 115 299 c 1,63,64
 124 300 124 300 132 300 c 0,65,66
 175 300 175 300 198 270 c 1,67,68
 199 253 199 253 204.5 247.5 c 128,-1,69
 210 242 210 242 210 237 c 0,70,71
 210 182 210 182 165 168 c 0,72,73
 150 163 150 163 135 163 c 0,74,75
 109 162 109 162 83 178 c 0,76,77
 44 201 44 201 44 238 c 0,78,79
 46 310 46 310 73.5 348 c 128,-1,80
 101 386 101 386 141 398 c 0,81,82
 157 403 157 403 174 402 c 0,83,84
 198 402 198 402 224 392 c 0,85,86
 267 376 267 376 296 335 c 1,87,88
 328 390 328 390 392 400 c 0,89,90
 403 402 403 402 412 402 c 0,91,92
 456 402 456 402 496 372 c 0,93,94
 518 354 518 354 534 326 c 0,95,96
 551 296 551 296 551 260 c 0,97,98
 551 213 551 213 512 178 c 0,99,100
 471 142 471 142 421 130 c 4,101,102
 321 104 321 104 293 104 c 0,103,104
 175 97 175 97 162 96 c 0,105,106
 126 94 126 94 112 84 c 0,107,108
 99 74 99 74 102 63 c 0,109,110
 107 43 107 43 163 43 c 0,111,112
 184 43 184 43 213 46 c 1,113,-1
 216 48 l 1,114,115
 240 47 240 47 261 47 c 0,116,117
 322 47 322 47 382 47 c 2,14,-1
EndSplineSet
Validated: 33
EndChar

StartChar: u11308
Encoding: 70408 70408 108
Width: 736
Flags: MW
LayerCount: 2
Fore
SplineSet
47 204 m 1,0,-1
 54 205 l 1,1,2
 48 205 48 205 47 204 c 1,0,-1
86 207 m 1,3,-1
 85 207 l 1,4,5
 86 206 86 206 86 203 c 2,6,-1
 86 201 l 2,7,8
 86 181 86 181 94.5 174.5 c 128,-1,9
 103 168 103 168 113.5 170.5 c 128,-1,10
 124 173 124 173 132 181.5 c 128,-1,11
 140 190 140 190 139 200 c 0,12,13
 136 202 136 202 143 206 c 1,14,-1
 139 206 l 1,15,16
 139 218 139 218 131.5 225 c 128,-1,17
 124 232 124 232 114 232.5 c 128,-1,18
 104 233 104 233 95.5 226.5 c 128,-1,19
 87 220 87 220 86 207 c 1,3,-1
557 204 m 1,20,21
 561 203 561 203 566 204 c 1,22,-1
 557 206 l 1,23,24
 557 238 557 238 577 253.5 c 128,-1,25
 597 269 597 269 621 269 c 256,26,27
 645 269 645 269 664 253 c 128,-1,28
 683 237 683 237 683 204.5 c 128,-1,29
 683 172 683 172 664.5 155.5 c 128,-1,30
 646 139 646 139 623 139 c 128,-1,31
 600 139 600 139 580 155.5 c 128,-1,32
 560 172 560 172 557 204 c 1,20,21
179 207 m 1,33,-1
 180 204 l 1,34,35
 180 168 180 168 157 152 c 0,36,37
 135 137 135 137 111 138 c 0,38,39
 110 138 110 138 108 138 c 0,40,41
 82 139 82 139 60 156 c 0,42,43
 41 171 41 171 41 197 c 0,44,45
 41 201 41 201 41 204 c 0,46,47
 41 235 41 235 62 250.5 c 128,-1,48
 83 266 83 266 108 266 c 0,49,50
 109 266 109 266 110 267 c 0,51,52
 134 266 134 266 155 252 c 0,53,54
 177 238 177 238 179 207 c 1,33,-1
418 41 m 0,55,56
 444 41 444 41 446 59 c 1,57,-1
 446 362 l 1,58,-1
 394 362 l 1,59,-1
 394 51 l 1,60,-1
 393 51 l 1,61,62
 393 47 393 47 401 44 c 128,-1,63
 409 41 409 41 418 41 c 0,55,56
522 74 m 1,64,-1
 521 57 l 1,65,-1
 521 53 l 1,66,-1
 520 53 l 1,67,68
 512 20 512 20 484 9 c 4,69,70
 462 0 462 0 439 0 c 0,71,72
 433 0 433 0 426 1 c 4,73,74
 395 4 395 4 370.5 19 c 128,-1,75
 346 34 346 34 345 53 c 1,76,-1
 344 53 l 1,77,-1
 344 362 l 1,78,-1
 257 362 l 1,79,80
 257 207 257 207 255.5 158 c 128,-1,81
 254 109 254 109 254 20 c 0,82,83
 254 0 254 0 234 0 c 0,84,85
 223 0 223 0 213.5 4.5 c 128,-1,86
 204 9 204 9 204 18 c 2,87,-1
 204 377 l 1,88,89
 200 387 200 387 205.5 398 c 128,-1,90
 211 409 211 409 225 409 c 2,91,-1
 594 409 l 2,92,93
 613 409 613 409 613 385.5 c 128,-1,94
 613 362 613 362 594 362 c 2,95,-1
 521 362 l 1,96,-1
 521 73 l 1,97,-1
 522 74 l 1,64,-1
594 206 m 1,98,-1
 591 206 l 1,99,-1
 592 205 l 1,100,101
 592 189 592 189 601 180 c 128,-1,102
 610 171 610 171 621 171 c 128,-1,103
 632 171 632 171 641 179 c 128,-1,104
 650 187 650 187 650 202 c 128,-1,105
 650 217 650 217 640.5 225.5 c 128,-1,106
 631 234 631 234 620.5 236 c 128,-1,107
 610 238 610 238 602 230.5 c 128,-1,108
 594 223 594 223 594 206 c 1,98,-1
EndSplineSet
Validated: 33
EndChar

StartChar: u11309
Encoding: 70409 70409 109
Width: 613
Flags: MW
LayerCount: 2
Fore
SplineSet
202 96 m 6,0,-1
 194 96 l 5,1,2
 162 94 162 94 144 84 c 132,-1,3
 126 74 126 74 124.5 63.5 c 132,-1,4
 123 53 123 53 140 48 c 4,5,6
 148 46 148 46 158 46 c 128,-1,7
 168 46 168 46 180 48 c 4,8,9
 203 53 203 53 206 53 c 6,10,-1
 560 53 l 6,11,12
 572 53 572 53 579 45 c 132,-1,13
 586 37 586 37 586 27 c 260,14,15
 586 17 586 17 579 8.5 c 132,-1,16
 572 0 572 0 560 0 c 6,17,-1
 200 0 l 6,18,19
 103 0 103 0 82 28 c 4,20,21
 72 41 72 41 72 55 c 0,22,23
 72 76 72 76 92 98 c 4,24,25
 128 138 128 138 196 141 c 5,26,-1
 201 141 l 6,27,28
 319 141 319 141 319 216 c 5,29,30
 323 232 323 232 323 246 c 0,31,32
 324 268 324 268 314 286 c 4,33,34
 298 316 298 316 270 333 c 132,-1,35
 242 350 242 350 208 352 c 4,36,37
 203 352 203 352 199 353 c 0,38,39
 172 353 172 353 151 341 c 5,40,41
 155 341 155 341 158 341 c 0,42,43
 214 342 214 342 244 292 c 4,44,45
 254 276 254 276 253.5 252 c 132,-1,46
 253 228 253 228 245 211.5 c 132,-1,47
 237 195 237 195 223 184 c 4,48,49
 195 162 195 162 156 162 c 260,50,51
 94 162 94 162 64 212 c 4,52,53
 54 228 54 228 53 250 c 4,54,55
 53 253 53 253 53 256 c 0,56,57
 53 297 53 297 78 329 c 4,58,59
 105 363 105 363 146 382.5 c 132,-1,60
 187 402 187 402 235 404 c 4,61,62
 241 404 241 404 246 405 c 0,63,64
 286 404 286 404 322 388 c 4,65,66
 362 370 362 370 388 328 c 4,67,68
 411 291 411 291 411 232 c 0,69,70
 411 225 411 225 411 218 c 4,71,72
 410 203 410 203 398 182 c 132,-1,73
 386 161 386 161 361 142 c 4,74,75
 300 96 300 96 202 96 c 6,0,-1
108 250 m 5,76,-1
 105 250 l 5,77,78
 106 222 106 222 120 210 c 4,79,80
 134 198 134 198 150 198 c 0,81,82
 151 198 l 4,83,84
 168 198 168 198 182.5 211.5 c 132,-1,85
 197 225 197 225 197 252 c 5,86,-1
 198 252 l 5,87,88
 197 276 197 276 183.5 287.5 c 132,-1,89
 170 299 170 299 154.5 299 c 132,-1,90
 139 299 139 299 125 287 c 132,-1,91
 111 275 111 275 108 250 c 5,76,-1
EndSplineSet
Validated: 33
EndChar

StartChar: u1130A
Encoding: 70410 70410 110
Width: 736
Flags: MW
LayerCount: 2
Fore
SplineSet
155 53 m 1,0,1
 158 47 158 47 172 50 c 1,2,-1
 230 50 l 1,3,-1
 444 53 l 1,4,-1
 633 53 l 2,5,6
 642 53 642 53 646.5 45 c 128,-1,7
 651 37 651 37 651 28 c 128,-1,8
 651 19 651 19 646.5 9.5 c 128,-1,9
 642 0 642 0 633 0 c 0,10,11
 387 0 387 0 141 0 c 0,12,13
 84 0 84 0 62 27 c 0,14,15
 50 41 50 41 50 59 c 0,16,17
 50 80 50 80 64 98 c 0,18,19
 94 138 94 138 156 140 c 1,20,-1
 156 137 l 1,21,-1
 166 137 l 2,22,23
 208 138 208 138 234 168 c 0,24,25
 252 190 252 190 254 219 c 1,26,27
 254 291 254 291 227.5 325 c 128,-1,28
 201 359 201 359 174 359 c 128,-1,29
 147 359 147 359 130 346 c 1,30,31
 164 346 164 346 190.5 321 c 128,-1,32
 217 296 217 296 217 252.5 c 128,-1,33
 217 209 217 209 192 185 c 128,-1,34
 167 161 167 161 130 161 c 0,35,36
 74 160 74 160 50 212 c 0,37,38
 42 228 42 228 42 252 c 1,39,-1
 39 252 l 1,40,41
 40 297 40 297 60 331 c 0,42,43
 102 400 102 400 178 402 c 0,44,45
 180 402 180 402 183 402 c 0,46,47
 270 402 270 402 297 326 c 0,48,49
 318 265 318 265 318 222 c 2,50,-1
 318 221 l 2,51,52
 318 209 318 209 310.5 185 c 0,53,54
 302 160 302 160 284 140 c 0,55,56
 246 99 246 99 185 99 c 0,57,58
 173 99 173 99 159 101 c 1,59,-1
 159 100 l 1,60,61
 131 100 131 100 114.5 90 c 128,-1,62
 98 80 98 80 96 69 c 128,-1,63
 94 58 94 58 108 52 c 0,64,65
 114 49 114 49 123 49 c 0,66,67
 135 49 135 49 153 53 c 1,68,-1
 155 53 l 1,0,1
422 81 m 1,69,-1
 411 81 l 1,70,71
 367 86 367 86 351 150 c 0,72,73
 344 177 344 177 344 203 c 0,74,75
 344 236 344 236 354 270 c 0,76,77
 362 298 362 298 378.5 317 c 128,-1,78
 395 336 395 336 419 338 c 1,79,-1
 426 336 l 1,80,-1
 428 336 l 2,81,82
 436 337 436 337 440 338 c 128,-1,83
 444 339 444 339 468 331 c 128,-1,84
 492 323 492 323 512 300 c 1,85,-1
 512 338 l 1,86,-1
 551 338 l 1,87,-1
 551 337 l 1,88,89
 614 337 614 337 677 337 c 5,90,-1
 677 303 l 1,91,-1
 676 302 l 1,92,-1
 647 302 l 1,93,-1
 647 99 l 2,94,95
 647 89 647 89 641 84 c 128,-1,96
 635 79 635 79 628 79 c 128,-1,97
 621 79 621 79 614.5 84 c 128,-1,98
 608 89 608 89 608 99 c 2,99,-1
 608 302 l 1,100,-1
 551 302 l 1,101,-1
 551 84 l 1,102,-1
 512 84 l 1,103,-1
 512 200 l 1,104,-1
 509 200 l 1,105,106
 510 238 510 238 486 270 c 0,107,108
 476 284 476 284 461 294.5 c 128,-1,109
 446 305 446 305 440 303.5 c 128,-1,110
 434 302 434 302 422 300 c 0,111,112
 400 296 400 296 389 253 c 1,113,114
 430 250 430 250 452 224 c 128,-1,115
 474 198 474 198 477 167 c 0,116,117
 478 161 478 161 478 156 c 0,118,119
 478 131 478 131 466 110 c 0,120,121
 452 84 452 84 422 81 c 1,69,-1
104.5 293 m 128,-1,123
 93 280 93 280 93 253.5 c 128,-1,124
 93 227 93 227 104.5 214 c 128,-1,125
 116 201 116 201 129.5 201 c 128,-1,126
 143 201 143 201 155 214 c 128,-1,127
 167 227 167 227 167 253.5 c 128,-1,128
 167 280 167 280 155 293 c 128,-1,129
 143 306 143 306 129.5 306 c 128,-1,122
 116 306 116 306 104.5 293 c 128,-1,123
414 124 m 2,130,-1
 417 124 l 1,131,132
 428 126 428 126 434 143 c 0,133,134
 438 154 438 154 438 165 c 0,135,136
 438 171 438 171 437 177 c 0,137,138
 434 194 434 194 422 204 c 0,139,140
 417 208 417 208 409 208 c 0,141,142
 399 208 399 208 385 201 c 1,143,144
 386 171 386 171 394 147.5 c 128,-1,145
 402 124 402 124 414 124 c 2,130,-1
EndSplineSet
Validated: 33
EndChar

StartChar: u1130B
Encoding: 70411 70411 111
Width: 614
Flags: MW
LayerCount: 2
Fore
SplineSet
202 326 m 4,0,1
 210 336 210 336 210.5 348 c 132,-1,2
 211 360 211 360 198.5 368.5 c 4,3,4
 186 376 186 376 165 380 c 4,5,6
 157 381 157 381 150 382 c 0,7,8
 138 382 138 382 128 378 c 4,9,10
 117 374 117 374 118 355 c 0,11,12
 118 348 118 348 120 338 c 4,13,14
 124 316 124 316 158 310 c 4,15,16
 163 309 163 309 167 309 c 0,17,18
 187 310 187 310 202 326 c 4,0,1
439 369 m 4,19,20
 425 361 425 361 425 347.5 c 4,21,22
 426 334 426 334 434 324 c 4,23,24
 448 308 448 308 466 309 c 0,25,26
 470 309 470 309 475 310 c 4,27,28
 498 315 498 315 502 322 c 20,29,30
 512 341 512 341 512 353 c 0,31,32
 512 368 512 368 500 374 c 4,33,34
 487 380 487 380 474 379 c 0,35,36
 457 379 457 379 439 369 c 4,19,20
314 52 m 1,37,38
 271 0 271 0 207 0 c 0,39,40
 136 0 136 0 94 43 c 0,41,42
 76 62 76 62 68 86 c 0,43,44
 65 96 65 96 65 106 c 0,45,46
 66 120 66 120 72 134 c 0,47,48
 82 158 82 158 116.5 178.5 c 128,-1,49
 151 199 151 199 208 212 c 5,50,51
 162 225 162 225 127 250 c 4,52,53
 59 299 59 299 59 349 c 4,54,55
 58 391 58 391 114 405 c 4,56,57
 133 410 133 410 154 410 c 0,58,59
 184 410 184 410 216 399 c 4,60,61
 272 380 272 380 271 349 c 4,62,63
 271 316 271 316 238 298 c 4,64,65
 209 282 209 282 165 282 c 5,66,67
 217 236 217 236 311 236 c 4,68,69
 407 236 407 236 465 282 c 5,70,71
 425 282 425 282 403 294 c 4,72,73
 363 317 363 317 363 349 c 4,74,75
 364 364 364 364 380 378 c 4,76,77
 413 405 413 405 470 409 c 4,78,79
 478 410 478 410 484 410 c 0,80,81
 505 410 505 410 521 405 c 4,82,83
 562 392 562 392 562 341 c 0,84,85
 562 331 562 331 560 319 c 4,86,87
 555 282 555 282 515.5 253.5 c 132,-1,88
 476 225 476 225 427 211 c 5,89,90
 518 191 518 191 546 136 c 0,91,92
 554 120 554 120 555 103 c 0,93,94
 554 74 554 74 532 46 c 0,95,96
 494 0 494 0 426.5 0 c 128,-1,97
 359 0 359 0 314 52 c 1,37,38
281 133 m 1,98,-1
 281 138 l 2,99,100
 281 147 281 147 292 152 c 128,-1,101
 303 157 303 157 316 157 c 128,-1,102
 329 157 329 157 341 152 c 128,-1,103
 353 147 353 147 354 138 c 1,104,-1
 354 133 l 2,105,106
 354 74 354 74 392 51 c 0,107,108
 406 43 406 43 431 43 c 128,-1,109
 456 43 456 43 472 52.5 c 128,-1,110
 488 62 488 62 496 76 c 0,111,112
 501 85 501 85 501 95 c 0,113,114
 502 101 502 101 500 107 c 0,115,116
 490 144 490 144 414 167 c 0,117,118
 366 183 366 183 315 182.5 c 128,-1,119
 264 182 264 182 211 167 c 0,120,121
 137 144 137 144 130 107 c 0,122,123
 129 102 129 102 129 97 c 0,124,125
 129 70 129 70 161 54 c 0,126,127
 179 46 179 46 203 45.5 c 128,-1,128
 227 45 227 45 240.5 53 c 128,-1,129
 254 61 254 61 262 74 c 0,130,131
 279 101 279 101 281 133 c 1,98,-1
EndSplineSet
Validated: 33
EndChar

StartChar: u1130C
Encoding: 70412 70412 112
Width: 765
Flags: MW
LayerCount: 2
Fore
SplineSet
697 201 m 1,0,-1
 696 318 l 1,1,-1
 696 359 l 1,2,-1
 744 359 l 1,3,-1
 744 410 l 1,4,-1
 338 410 l 1,5,-1
 338 315 l 1,6,7
 330 330 330 330 318 350 c 0,8,9
 294 394 294 394 240 406 c 0,10,11
 225 410 225 410 209 409 c 0,12,13
 192 408 192 408 174 404 c 0,14,15
 140 396 140 396 117 373.5 c 128,-1,16
 94 351 94 351 80 322 c 0,17,18
 51 262 51 262 51 188 c 128,-1,19
 51 114 51 114 79 62 c 0,20,21
 111 3 111 3 170 3 c 2,22,-1
 179 3 l 2,23,24
 202 3 202 3 220.5 23.5 c 128,-1,25
 239 44 239 44 248 74 c 0,26,27
 256 100 256 100 256 129 c 0,28,29
 256 134 256 134 256 138 c 0,30,31
 254 172 254 172 238.5 199 c 128,-1,32
 223 226 223 226 192 240 c 0,33,34
 175 248 175 248 151 248 c 0,35,36
 133 248 133 248 111 243 c 1,37,38
 119 289 119 289 135 314 c 128,-1,39
 151 339 151 339 184 347 c 1,40,-1
 221 347 l 1,41,42
 259 334 259 334 297 284 c 0,43,44
 336 232 336 232 336 191 c 2,45,-1
 336 1 l 1,46,-1
 401 1 l 1,47,-1
 401 362 l 1,48,-1
 498 362 l 1,49,-1
 498 77 l 1,50,51
 499 63 499 63 524.5 37.5 c 128,-1,52
 550 12 550 12 570 6 c 0,53,54
 584 1 584 1 598 1 c 0,55,56
 626 1 626 1 652 21 c 0,57,58
 673 37 673 37 685 63.5 c 128,-1,59
 697 90 697 90 697 108 c 2,60,-1
 697 201 l 1,0,-1
633 362 m 1,61,-1
 633 111 l 2,62,63
 633 52 633 52 605 46 c 0,64,65
 593 44 593 44 579.5 56 c 128,-1,66
 566 68 566 68 559 96 c 1,67,-1
 559 362 l 1,68,-1
 633 362 l 1,61,-1
111 187 m 1,69,-1
 125 197 l 5,70,71
 139 202 139 202 151 202 c 0,72,73
 180 202 180 202 197 174 c 0,74,75
 210 152 210 152 210 125 c 0,76,77
 210 110 210 110 206 93 c 0,78,79
 195 46 195 46 168 46 c 0,80,81
 132 48 132 48 111 84 c 0,82,83
 96 109 96 109 96 140 c 0,84,85
 96 154 96 154 99 169 c 1,86,-1
 111 187 l 1,69,-1
EndSplineSet
Validated: 9
EndChar

StartChar: u1130F
Encoding: 70415 70415 113
Width: 1104
Flags: MW
LayerCount: 2
Fore
SplineSet
96 152 m 1,0,1
 100 104 100 104 112 79 c 128,-1,2
 124 54 124 54 137 47.5 c 128,-1,3
 150 41 150 41 160 50 c 128,-1,4
 170 59 170 59 172 78 c 0,5,6
 171 79 171 79 171 94 c 128,-1,7
 171 109 171 109 162.5 128 c 128,-1,8
 154 147 154 147 141.5 158 c 128,-1,9
 129 169 129 169 116 168 c 128,-1,10
 103 167 103 167 96 152 c 1,0,1
782 315 m 1,11,12
 725 269 725 269 725 176 c 2,13,-1
 725 175 l 2,14,15
 726 108 726 108 742 74 c 0,16,17
 758 41 758 41 777 40 c 0,18,19
 778 40 l 0,20,21
 798 40 798 40 814.5 74 c 128,-1,22
 831 108 831 108 831 175 c 0,23,24
 831 270 831 270 782 315 c 1,11,12
1081 377 m 128,-1,26
 1081 354 1081 354 1064 354 c 2,27,-1
 1026 354 l 1,28,-1
 1026 26 l 2,29,30
 1026 15 1026 15 1015.5 7.5 c 0,31,32
 1006 0 1006 0 992 0 c 0,33,34
 956 0 956 0 956 26 c 2,35,-1
 956 354 l 1,36,-1
 932 354 l 1,37,-1
 837 342 l 1,38,39
 897 274 897 274 897 175 c 2,40,-1
 897 172 l 2,41,42
 897 116 897 116 879 76.5 c 128,-1,43
 861 37 861 37 836 18 c 0,44,45
 812 -1 812 -1 784 -1 c 0,46,-1
 782 -0 l 0,47,48
 754 0 754 0 728 20 c 0,49,50
 670 64 670 64 671 174 c 1,51,-1
 670 174 l 1,52,53
 670 278 670 278 741 341 c 1,54,55
 715 348 715 348 698 348 c 2,56,-1
 696 348 l 2,57,58
 643 348 643 348 607 290 c 0,59,60
 572 230 572 230 570 160 c 0,61,62
 570 156 570 156 570 152 c 0,63,64
 570 87 570 87 600 52 c 1,65,-1
 601 48 l 1,66,67
 610 46 610 46 614 38.5 c 0,68,69
 618 30 618 30 616 22 c 0,70,71
 612 0 612 0 592 0 c 2,72,-1
 260 0 l 2,73,74
 254 0 254 0 252 6 c 128,-1,75
 250 12 250 12 249 13.5 c 128,-1,76
 248 15 248 15 248 16 c 0,77,78
 247 17 247 17 247 20 c 2,79,-1
 247 27 l 2,80,81
 247 34 247 34 250 37.5 c 128,-1,82
 253 41 253 41 256 45 c 128,-1,83
 259 49 259 49 266 49 c 2,84,-1
 268 49 l 2,85,86
 274 49 274 49 288 63 c 128,-1,87
 302 77 302 77 316 98 c 0,88,89
 348 148 348 148 348 196 c 0,90,91
 348 199 348 199 348 201 c 0,92,93
 348 246 348 246 333 276 c 0,94,95
 317 308 317 308 292.5 327 c 128,-1,96
 268 346 268 346 238 349 c 0,97,98
 233 350 233 350 227 350 c 0,99,100
 203 350 203 350 180 338 c 0,101,102
 152 324 152 324 128 292 c 128,-1,103
 104 260 104 260 93 208 c 1,104,105
 98 209 98 209 103 209 c 0,106,107
 138 210 138 210 180 174 c 0,108,109
 227 134 227 134 226 93 c 0,110,111
 226 66 226 66 211 38 c 0,112,113
 192 0 192 0 152.5 0 c 132,-1,114
 113 0 113 0 88 28 c 0,115,116
 38 84 38 84 38 183 c 0,117,118
 38 193 38 193 39 204 c 1,119,120
 59 343 59 343 158 390 c 0,121,122
 194 407 194 407 233 407 c 0,123,124
 241 407 241 407 249 406 c 0,125,126
 297 402 297 402 337.5 377 c 128,-1,127
 378 352 378 352 404.5 308 c 128,-1,128
 431 264 431 264 431 212 c 0,129,130
 431 122 431 122 350 49 c 1,131,-1
 539 49 l 1,132,133
 514 91 514 91 514 163 c 0,134,135
 514 168 514 168 514 174 c 0,136,137
 518 325 518 325 612 381 c 0,138,139
 649 403 649 403 698 408 c 1,140,141
 753 408 753 408 799 377 c 1,142,143
 852 400 852 400 932 400 c 2,144,-1
 1064 400 l 2,145,25
 1081 400 1081 400 1081 377 c 128,-1,26
EndSplineSet
Validated: 33
EndChar

StartChar: u11313
Encoding: 70419 70419 115
Width: 735
Flags: MW
LayerCount: 2
Fore
SplineSet
518 -99 m 2,0,1
 518 -121 518 -121 489 -121 c 128,-1,2
 460 -121 460 -121 460 -99 c 2,3,-1
 460 0 l 1,4,-1
 291 0 l 2,5,6
 289 0 289 0 287.5 0 c 128,-1,7
 286 0 286 0 284.5 2 c 128,-1,8
 283 4 283 4 283 5 c 128,-1,9
 283 6 283 6 282 6 c 1,10,-1
 282 7 l 1,11,12
 278 11 278 11 278 18 c 2,13,-1
 278 30 l 2,14,15
 278 40 278 40 284 42 c 128,-1,16
 290 44 290 44 291 45 c 128,-1,17
 292 46 292 46 294 46 c 2,18,-1
 303 46 l 2,19,20
 380 46 380 46 431 84 c 0,21,22
 480 120 480 120 486 184 c 1,23,24
 485 220 485 220 479 249 c 0,25,26
 472 278 472 278 452 298 c 0,27,28
 411 339 411 339 295 345 c 0,29,30
 230 345 230 345 176 312 c 128,-1,31
 122 279 122 279 97 208 c 1,32,33
 115 214 115 214 131 214 c 0,34,35
 159 214 159 214 184 198 c 0,36,37
 228 170 228 170 228 113 c 0,38,39
 228 72 228 72 200.5 51.5 c 0,40,41
 172 31 172 31 138 30 c 0,42,43
 136 30 136 30 135 30 c 0,44,45
 102 30 102 30 74 48 c 0,46,47
 44 66 44 66 37 101 c 0,48,49
 35 109 35 109 35 113 c 0,50,51
 35 232 35 232 98 312 c 0,52,53
 169 402 169 402 295 406 c 0,54,55
 494 406 494 406 561 296 c 0,56,57
 584 257 584 257 584 198 c 0,58,59
 584 191 584 191 584 184 c 0,60,61
 584 133 584 133 530 81 c 0,62,63
 510 62 510 62 483 46 c 1,64,-1
 631 46 l 2,65,66
 644 46 644 46 652 39 c 128,-1,67
 660 32 660 32 661.5 23 c 128,-1,68
 663 14 663 14 655 7 c 128,-1,69
 647 0 647 0 631 0 c 2,70,-1
 518 0 l 1,71,-1
 518 -99 l 2,0,1
98 158 m 0,72,73
 82 144 82 144 82 116 c 128,-1,74
 82 88 82 88 98 75.5 c 128,-1,75
 114 63 114 63 132 63 c 128,-1,76
 150 63 150 63 166 75.5 c 128,-1,77
 182 88 182 88 182 115 c 128,-1,78
 182 142 182 142 166.5 157 c 0,79,80
 150 172 150 172 132 172 c 0,81,82
 131 172 131 172 131 173 c 0,83,84
 113 172 113 172 98 158 c 0,72,73
EndSplineSet
Validated: 1
EndChar

StartChar: u11315
Encoding: 70421 70421 117
Width: 562
Flags: MW
LayerCount: 2
Fore
SplineSet
380 32 m 0,0,1
 372 41 372 41 366 64 c 0,2,3
 362 81 362 81 362 99 c 3,4,5
 362 106 362 106 363 113 c 0,6,7
 367 169 367 169 392 212 c 1,8,-1
 313 212 l 1,9,-1
 313 149 l 2,10,11
 313 81 313 81 302 50 c 0,12,13
 290 13 290 13 270 4 c 0,14,15
 261 0 261 0 253 -0 c 3,16,17
 244 0 244 0 234 4 c 0,18,19
 214 14 214 14 198 35 c 1,20,21
 179 -0 179 -0 150 0 c 3,22,23
 130 0 130 0 104 16 c 0,24,25
 80 32 80 32 62 62 c 0,26,27
 42 95 42 95 41 131 c 0,28,29
 41 162 41 162 60 194 c 0,30,31
 80 228 80 228 132 252 c 1,32,-1
 132 388 l 2,33,34
 132 402 132 402 148 407 c 24,35,36
 160 411 160 411 181 411 c 2,37,-1
 360 411 l 6,38,39
 375 411 375 411 384 403.5 c 132,-1,40
 393 396 393 396 393 387 c 135,-1,41
 393 378 393 378 384 371 c 132,-1,42
 375 364 375 364 356 364 c 6,43,-1
 313 364 l 1,44,-1
 313 260 l 1,45,46
 369 260 369 260 426 260 c 256,47,48
 496 260 496 260 520 192 c 0,49,50
 531 160 531 160 531 127 c 3,51,52
 531 95 531 95 523 68 c 0,53,54
 504 0 504 0 448 0 c 3,55,56
 408 0 408 0 380 32 c 0,0,1
252 212 m 1,57,-1
 156 212 l 24,58,59
 116 194 116 194 102 169 c 0,60,61
 89 147 89 147 89 126 c 3,62,63
 89 99 89 99 104.5 79 c 0,64,65
 118 62 118 62 133 58 c 128,-1,66
 148 54 148 54 160 68 c 0,67,68
 175 84 175 84 175 104 c 2,69,70
 175 143.5 l 2,71,72
 175 150 175 150 185 156 c 0,73,74
 195 163 195 163 204 154.5 c 0,75,76
 209 150 209 150 209 145 c 2,77,-1
 209 104.5 l 2,78,79
 209 86 209 86 221 69 c 0,80,81
 229 58 229 58 234 58 c 3,82,83
 252 58 252 58 252 122 c 2,84,-1
 252 212 l 1,57,-1
402 98 m 3,85,86
 402 74 402 74 409 63 c 24,87,88
 425 38 425 38 445 40 c 128,-1,89
 465 42 465 42 479 67 c 0,90,91
 493 91 493 91 496 114 c 0,92,93
 497 121 497 121 497 128 c 3,94,95
 497 146 497 146 491 166 c 0,96,97
 481 198 481 198 463.5 207 c 128,-1,98
 446 216 446 216 440 210 c 24,99,100
 402 171 402 171 402 108 c 0,101,102
 402 103 402 103 402 98 c 3,85,86
181 364 m 1,103,-1
 181 260 l 1,104,-1
 252 260 l 1,105,-1
 252 364 l 1,106,-1
 181 364 l 1,103,-1
EndSplineSet
EndChar

StartChar: u11316
Encoding: 70422 70422 118
Width: 982
Flags: MW
LayerCount: 2
Fore
SplineSet
408 48 m 0,0,1
 416 68 416 68 437 79 c 128,-1,2
 458 90 458 90 485 99.5 c 128,-1,3
 512 109 512 109 534 120 c 128,-1,4
 556 131 556 131 578 155 c 0,5,6
 597 176 597 176 597 203 c 0,7,8
 596 207 596 207 596 212 c 0,9,10
 592 245 592 245 559.5 281 c 128,-1,11
 527 317 527 317 479.5 333 c 0,12,13
 432 348 432 348 376 350 c 0,14,15
 370 350 370 350 365 351 c 0,16,17
 316 351 316 351 269 339 c 0,18,19
 217 326 217 326 174 297 c 128,-1,20
 131 268 131 268 111 222 c 1,21,22
 125 225 125 225 140 225 c 0,23,24
 163 226 163 226 189 218 c 0,25,26
 279 191 279 191 279 116 c 0,27,28
 278 102 278 102 276 88 c 0,29,30
 270 54 270 54 248.5 33 c 0,31,32
 228 12 228 12 196 4 c 0,33,34
 182 1 182 1 168 1 c 0,35,36
 117 1 117 1 77 51 c 0,37,38
 38 100 38 100 38 155.5 c 128,-1,39
 38 211 38 211 65 257.5 c 128,-1,40
 92 304 92 304 137 336 c 128,-1,41
 182 368 182 368 240 385 c 128,-1,42
 298 402 298 402 359 406 c 0,43,44
 376 407 376 407 393 407 c 0,45,46
 438 408 438 408 480 400 c 0,47,48
 605 378 605 378 665 301 c 0,49,50
 701 256 701 256 701 208 c 0,51,52
 700 126 700 126 594 88 c 0,53,54
 548 72 548 72 503 63 c 128,-1,55
 458 54 458 54 442 50 c 1,56,-1
 866 50 l 1,57,-1
 866 383 l 2,58,59
 866 394 866 394 877 399 c 128,-1,60
 888 404 888 404 900 404 c 256,61,62
 912 404 912 404 923 398.5 c 128,-1,63
 934 393 934 393 934 382 c 2,64,-1
 934 26 l 2,65,66
 934 14 934 14 923 8 c 1,67,-1
 901 1 l 5,68,-1
 413 1 l 1,69,70
 405 17 405 17 405 31 c 0,71,72
 405 40 405 40 408 48 c 0,0,1
114 94 m 0,73,74
 138 48 138 48 176 47 c 0,75,76
 179 48 179 48 181 48 c 0,77,78
 199 50 199 50 211.5 61.5 c 0,79,80
 224 72 224 72 228 92 c 0,81,82
 229 99 229 99 229 105 c 0,83,84
 229 145 229 145 182 173 c 0,85,86
 158 188 158 188 138 188 c 0,87,88
 126 188 126 188 115 182 c 0,89,90
 96 172 96 172 96 150 c 128,-1,91
 96 128 96 128 114 94 c 0,73,74
EndSplineSet
Validated: 33
EndChar

StartChar: u11317
Encoding: 70423 70423 119
Width: 570
Flags: MW
LayerCount: 2
Fore
SplineSet
398 336 m 4,0,1
 388 322 388 322 377 281.5 c 132,-1,2
 366 241 366 241 365 207.5 c 132,-1,3
 364 174 364 174 347 155 c 132,-1,4
 330 136 330 136 305 132 c 4,5,6
 298 131 298 131 291 130 c 0,7,8
 272 130 272 130 251 138 c 4,9,10
 222 150 222 150 198 180 c 4,11,12
 143 250 143 250 143 382 c 0,13,14
 143 386 143 386 143 390 c 5,15,-1
 144 390 l 5,16,17
 144 398 144 398 153.5 402.5 c 132,-1,18
 163 407 163 407 175 407 c 132,-1,19
 187 407 187 407 196.5 402.5 c 132,-1,20
 206 398 206 398 206 390 c 4,21,22
 206 297 206 297 221 247.5 c 132,-1,23
 236 198 236 198 254 180 c 4,24,25
 266 168 266 168 276 169 c 0,26,27
 281 169 281 169 286 172 c 4,28,29
 301 181 301 181 301 206 c 6,30,-1
 301 210 l 5,31,32
 318 361 318 361 380 396 c 4,33,34
 397 405 397 405 414 405 c 0,35,36
 424 405 424 405 434 402 c 4,37,38
 462 393 462 393 486.5 370 c 4,39,40
 510 346 510 346 520 320 c 4,41,42
 529 292 529 292 530 258 c 0,43,44
 530 227 530 227 522 190 c 4,45,46
 514 150 514 150 486 110 c 4,47,48
 422 16 422 16 292 1 c 5,49,-1
 55 1 l 6,50,51
 43 1 43 1 37 8.5 c 132,-1,52
 31 16 31 16 30.5 25 c 132,-1,53
 30 34 30 34 35.5 41.5 c 132,-1,54
 41 49 41 49 53 49 c 6,55,-1
 293 49 l 6,56,57
 367 49 367 49 410 116 c 4,58,59
 450 179 450 179 451 261 c 4,60,61
 451 316 451 316 434 338 c 4,62,63
 426 349 426 349 417 349 c 0,64,65
 407 349 407 349 398 336 c 4,0,1
EndSplineSet
Validated: 1
EndChar

